# Blender 5.2.2 LTS
# www.blender.org
mtllib PataTraseraIzquierda.mtl
g PataTraseraIzquierda_RoverModificado.004
v -3.536156 3.727114 -6.209000
v -3.536156 3.727114 -5.508999
v -3.461156 3.707019 -6.209000
v -3.461156 3.707019 -5.508999
v -3.406252 3.652115 -6.209000
v -3.406252 3.652115 -5.508999
v -3.386156 3.577115 -6.209000
v -3.386156 3.577115 -5.508999
v -3.406252 3.502115 -6.209000
v -3.406252 3.502115 -5.508999
v -3.461156 3.447211 -6.209000
v -3.461156 3.447211 -5.508999
v -3.536156 3.427115 -6.209000
v -3.536156 3.427115 -5.508999
v -3.611156 3.447211 -6.209000
v -3.611156 3.447211 -5.508999
v -3.666060 3.502115 -6.209000
v -3.666060 3.502115 -5.508999
v -3.686156 3.577115 -6.209000
v -3.686156 3.577115 -5.508999
v -3.666060 3.652115 -6.209000
v -3.666060 3.652115 -5.508999
v -3.611156 3.707019 -6.209000
v -3.611156 3.707019 -5.508999
v -2.536155 3.727113 -6.208999
v -2.536155 3.727113 -5.508998
v -2.461156 3.707018 -6.208999
v -2.461156 3.707018 -5.508998
v -2.406252 3.652114 -6.208999
v -2.406252 3.652114 -5.508998
v -2.386155 3.577113 -6.208999
v -2.386155 3.577113 -5.508998
v -2.406252 3.502114 -6.208999
v -2.406252 3.502114 -5.508998
v -2.461156 3.447210 -6.208999
v -2.461156 3.447210 -5.508998
v -2.536155 3.427115 -6.208999
v -2.536155 3.427115 -5.508998
v -2.611156 3.447210 -6.208999
v -2.611156 3.447210 -5.508998
v -2.666059 3.502114 -6.208999
v -2.666059 3.502114 -5.508998
v -2.686155 3.577113 -6.208999
v -2.686155 3.577113 -5.508998
v -2.666059 3.652114 -6.208999
v -2.666059 3.652114 -5.508998
v -2.611156 3.707018 -6.208999
v -2.611156 3.707018 -5.508998
v -4.722684 1.597480 -5.978397
v -4.798495 1.674436 -5.870398
v -4.744889 1.620020 -5.902030
v -4.828821 1.705220 -5.870398
v -4.904633 1.782176 -5.978397
v -4.882427 1.759636 -5.902030
v -4.798495 1.674436 -6.129598
v -4.722684 1.597480 -6.021597
v -4.744889 1.620020 -6.097964
v -4.904633 1.782176 -6.021597
v -4.828821 1.705220 -6.129598
v -4.882427 1.759636 -6.097964
v -5.532197 1.448968 -5.519999
v -5.527502 1.166164 -5.519999
v -5.588420 1.306594 -5.519999
v -5.527502 1.166164 -6.479999
v -5.532197 1.448968 -6.479999
v -5.588420 1.306594 -6.479999
v -5.311879 0.957582 -5.519999
v -5.029075 0.962277 -5.519999
v -5.169504 0.901359 -5.519999
v -5.029075 0.962276 -6.479999
v -5.311879 0.957582 -6.479999
v -5.169504 0.901359 -6.479999
v -3.005570 3.050765 -6.199458
v -3.025726 3.000415 -5.603999
v -3.595266 3.562217 -5.603999
v -3.025726 3.000415 -5.795999
v -3.595266 3.562217 -5.795999
v -5.378195 0.826705 -5.603999
v -5.095359 0.828639 -5.603999
v -5.288185 0.775556 -5.603999
v -5.184660 0.776264 -5.603999
v -5.664900 1.390442 -5.603999
v -5.662966 1.107605 -5.603999
v -5.716050 1.300433 -5.603999
v -5.715343 1.196908 -5.603999
v -5.378195 0.826705 -5.795999
v -5.288185 0.775556 -5.795999
v -5.662966 1.107605 -5.795999
v -5.715343 1.196908 -5.795999
v -5.716050 1.300433 -5.795999
v -5.001660 1.666336 -6.479999
v -4.949179 1.639394 -6.479999
v -4.902960 1.602731 -6.479999
v -4.864783 1.557756 -6.479999
v -4.818054 1.450034 -6.479999
v -4.836113 1.506196 -6.479999
v -5.048593 1.092294 -6.479999
v -4.816105 1.332631 -6.479999
v -4.895895 1.177201 -6.479999
v -4.940871 1.139023 -6.479999
v -4.859232 1.223418 -6.479999
v -5.107199 1.085538 -6.479999
v -4.992431 1.110353 -6.479999
v -4.832291 1.275901 -6.479999
v -5.111067 1.085854 -6.479999
v -4.811297 1.391429 -6.479999
v -5.328490 1.595666 -6.479999
v -5.365153 1.549449 -6.479999
v -5.283515 1.633844 -6.479999
v -5.392096 1.496966 -6.479999
v -5.231956 1.662513 -6.479999
v -5.408281 1.440236 -6.479999
v -5.406332 1.322832 -6.479999
v -5.413088 1.381438 -6.479999
v -5.321426 1.170135 -6.479999
v -5.359603 1.215112 -6.479999
v -5.388272 1.266671 -6.479999
v -5.175795 1.680573 -6.479999
v -5.117188 1.687329 -6.479999
v -5.058392 1.682521 -6.479999
v -5.275208 1.133473 -6.479999
v -5.222726 1.106531 -6.479999
v -5.165997 1.090345 -6.479999
v -4.993680 1.109951 -5.519999
v -4.992431 1.110353 -5.519999
v -4.895895 1.177201 -5.519999
v -4.859232 1.223418 -5.519999
v -4.940871 1.139023 -5.519999
v -5.328490 1.595666 -5.519999
v -5.365153 1.549449 -5.519999
v -5.283515 1.633844 -5.519999
v -5.392096 1.496966 -5.519999
v -5.231956 1.662513 -5.519999
v -5.408281 1.440236 -5.519999
v -5.175795 1.680573 -5.519999
v -5.117188 1.687329 -5.519999
v -5.001660 1.666336 -5.519999
v -5.058392 1.682521 -5.519999
v -4.902960 1.602731 -5.519999
v -4.864783 1.557756 -5.519999
v -4.949179 1.639394 -5.519999
v -5.359603 1.215112 -5.519999
v -5.321426 1.170135 -5.519999
v -5.222726 1.106531 -5.519999
v -5.165997 1.090345 -5.519999
v -5.275208 1.133473 -5.519999
v -5.048593 1.092294 -5.519999
v -5.107199 1.085538 -5.519999
v -4.832291 1.275901 -5.519999
v -4.816105 1.332631 -5.519999
v -4.811297 1.391429 -5.519999
v -5.413088 1.381438 -5.519999
v -5.406332 1.322832 -5.519999
v -4.818054 1.450034 -5.519999
v -4.836113 1.506196 -5.519999
v -5.388272 1.266671 -5.519999
v -5.231956 1.662513 -5.795999
v -5.359603 1.215112 -5.795999
v -4.949179 1.639394 -5.795999
v -5.275208 1.133473 -5.795999
v -4.864783 1.557756 -5.795999
v -4.992431 1.110353 -5.795999
v -4.832291 1.275901 -5.795999
v -5.107199 1.085538 -5.795999
v -5.365153 1.549449 -5.603999
v -5.231956 1.662513 -5.603999
v -5.117188 1.687329 -5.603999
v -5.408281 1.440236 -5.603999
v -5.388272 1.266671 -5.603999
v -5.275208 1.133473 -5.603999
v -4.864783 1.557756 -5.603999
v -4.949179 1.639394 -5.603999
v -4.818054 1.450034 -5.603999
v -5.107199 1.085538 -5.603999
v -4.992431 1.110353 -5.603999
v -4.895895 1.177201 -5.603999
v -4.816105 1.332631 -5.603999
v -3.005570 3.050765 -5.799458
v -3.446031 2.572235 -5.603999
v -3.446031 2.572235 -5.795999
v -3.732173 2.785939 -5.870398
v -3.760284 2.813639 -5.870398
v -3.682483 2.736975 -6.097964
v -3.661900 2.716693 -5.978397
v -3.809975 2.862602 -5.902030
v -3.760284 2.813639 -6.129598
v -3.682483 2.736975 -5.902030
v -3.661900 2.716693 -6.021597
v -3.830557 2.882884 -6.021597
v -3.830557 2.882884 -5.978397
v -3.732173 2.785939 -6.129598
v -3.809975 2.862602 -6.097964
v -2.651219 3.006663 -5.603999
v -2.480370 3.183353 -5.603999
v -2.529216 3.059639 -5.603999
v -2.484415 3.426983 -5.603999
v -2.660908 3.593515 -5.603999
v -2.537303 3.547722 -5.603999
v -2.480370 3.183353 -5.795999
v -2.651219 3.006663 -5.795999
v -2.529216 3.059639 -5.795999
v -2.660908 3.593515 -5.795999
v -2.484415 3.426983 -5.795999
v -2.537303 3.547722 -5.795999
v -2.633662 3.154623 -6.199458
v -2.729707 3.055345 -6.199458
v -2.737683 3.539617 -6.199458
v -2.638449 3.444938 -6.199458
v -2.729707 3.055345 -5.799458
v -2.633662 3.154623 -5.799458
v -2.638449 3.444938 -5.799458
v -2.737683 3.539617 -5.799458
v -3.288768 3.522808 -6.199458
v -3.461749 3.479191 -6.199458
v -3.288768 3.522808 -5.799458
v -3.461749 3.479191 -5.799458
v -5.058392 1.682521 -5.795999
v -5.392096 1.496966 -5.795999
v -5.664900 1.390442 -5.795999
v -3.242899 3.279529 -5.814670
v -3.171783 3.209571 -5.859903
v -3.840937 2.885941 -5.859903
v -3.870394 2.914919 -5.969110
v -3.629016 2.677471 -5.969110
v -3.658474 2.706448 -5.859903
v -3.629016 2.677471 -6.030885
v -3.658474 2.706448 -6.140090
v -3.729589 2.776407 -6.185326
v -3.283130 3.319106 -5.814670
v -3.283130 3.319106 -6.185326
v -3.354246 3.389064 -6.140090
v -3.769821 2.815983 -6.185326
v -3.840937 2.885941 -6.140090
v -3.729589 2.776407 -5.814670
v -3.769821 2.815983 -5.814670
v -3.242899 3.279529 -6.185326
v -3.870394 2.914919 -6.030885
v -3.171783 3.209571 -6.140090
v -3.142326 3.180593 -5.969110
v -3.142326 3.180593 -6.030886
v -3.354246 3.389064 -5.859904
v -3.383703 3.418041 -5.969110
v -3.383703 3.418041 -6.030886
v -4.929658 1.812200 -5.519999
v -5.184927 1.807962 -5.519999
v -5.058170 1.862949 -5.519999
v -5.184927 1.807962 -6.479999
v -4.929658 1.812200 -6.479999
v -5.058170 1.862949 -6.479999
v -4.681806 1.321272 -5.519999
v -4.686043 1.576541 -5.519999
v -4.631056 1.449784 -5.519999
v -4.686043 1.576541 -6.479999
v -4.681806 1.321272 -6.479999
v -4.631056 1.449784 -6.479999
v -5.411737 1.397969 -5.795999
v -4.811297 1.391429 -5.795999
v -5.095359 0.828639 -5.795999
v -5.184660 0.776264 -5.795999
v -5.328490 1.595666 -5.795999
v -4.895895 1.177201 -5.795999
v -2.656064 3.300089 -5.603999
v -2.656064 3.300089 -5.795999
v -3.446031 2.572235 -5.795999
v -5.095359 0.828639 -5.795999
v -3.025726 3.000415 -6.203999
v -3.595266 3.562217 -6.203999
v -3.025726 3.000415 -6.395998
v -3.595266 3.562217 -6.395998
v -5.378195 0.826705 -6.203999
v -5.095359 0.828639 -6.203999
v -5.288185 0.775556 -6.203999
v -5.184660 0.776264 -6.203999
v -5.664900 1.390442 -6.203999
v -5.662966 1.107605 -6.203999
v -5.716050 1.300433 -6.203999
v -5.715343 1.196908 -6.203999
v -5.378195 0.826705 -6.395998
v -5.288185 0.775556 -6.395998
v -5.662966 1.107605 -6.395998
v -5.715343 1.196908 -6.395998
v -5.716050 1.300433 -6.395998
v -5.231956 1.662513 -6.395998
v -5.359603 1.215112 -6.395998
v -4.949179 1.639394 -6.395998
v -5.275208 1.133473 -6.395998
v -4.864783 1.557756 -6.395998
v -4.992431 1.110353 -6.395998
v -4.832291 1.275901 -6.395998
v -5.107199 1.085538 -6.395998
v -5.365153 1.549449 -6.203999
v -5.231956 1.662513 -6.203999
v -5.117188 1.687329 -6.203999
v -5.408281 1.440236 -6.203999
v -5.388272 1.266671 -6.203999
v -5.275208 1.133473 -6.203999
v -4.864783 1.557756 -6.203999
v -4.949179 1.639394 -6.203999
v -4.818054 1.450034 -6.203999
v -5.107199 1.085538 -6.203999
v -4.992431 1.110353 -6.203999
v -4.895895 1.177201 -6.203999
v -4.816105 1.332631 -6.203999
v -3.446031 2.572235 -6.203999
v -3.446031 2.572235 -6.395998
v -2.651219 3.006663 -6.203999
v -2.480370 3.183353 -6.203999
v -2.529216 3.059639 -6.203999
v -2.484415 3.426983 -6.203999
v -2.660908 3.593515 -6.203999
v -2.537303 3.547722 -6.203999
v -2.480370 3.183353 -6.395998
v -2.651219 3.006663 -6.395998
v -2.529216 3.059639 -6.395998
v -2.660908 3.593515 -6.395998
v -2.484415 3.426983 -6.395998
v -2.537303 3.547722 -6.395998
v -5.058392 1.682521 -6.395998
v -5.392096 1.496966 -6.395998
v -5.664900 1.390442 -6.395998
v -5.411737 1.397969 -6.395998
v -4.811297 1.391429 -6.395998
v -5.095359 0.828639 -6.395998
v -5.184660 0.776264 -6.395998
v -5.328490 1.595666 -6.395998
v -4.895895 1.177201 -6.395998
v -2.656064 3.300089 -6.203999
v -2.656064 3.300089 -6.395998
v -1.333530 1.617309 -6.029600
v -1.259007 1.695513 -6.137599
v -1.311703 1.640215 -6.105967
v -1.229196 1.726796 -6.137599
v -1.154674 1.804999 -6.029600
v -1.176501 1.782094 -6.105968
v -1.259007 1.695513 -5.878399
v -1.333530 1.617309 -5.986400
v -1.311703 1.640215 -5.910032
v -1.154674 1.804999 -5.986400
v -1.229196 1.726796 -5.878399
v -1.176501 1.782094 -5.910032
v -0.521664 1.482255 -6.487999
v -0.521664 1.199412 -6.487999
v -0.463085 1.340833 -6.487999
v -0.521663 1.199412 -5.527998
v -0.521664 1.482255 -5.527999
v -0.463085 1.340833 -5.527999
v -0.733796 0.987280 -6.487998
v -1.016639 0.987280 -6.487998
v -0.875217 0.928700 -6.487998
v -1.016638 0.987280 -5.527998
v -0.733795 0.987280 -5.527998
v -0.875217 0.928701 -5.527998
v -3.074530 3.041892 -5.808538
v -3.053542 2.991883 -6.403998
v -2.493405 3.563061 -6.403999
v -3.053542 2.991883 -6.211998
v -2.493405 3.563061 -6.211998
v -0.665316 0.857521 -6.403999
v -0.948145 0.854761 -6.403999
v -0.754464 0.804885 -6.403999
v -0.857987 0.803874 -6.403999
v -0.388007 1.425940 -6.403999
v -0.385247 1.143111 -6.403999
v -0.335371 1.336792 -6.403999
v -0.334360 1.233269 -6.403999
v -0.665316 0.857521 -6.211999
v -0.754464 0.804885 -6.211998
v -0.385247 1.143111 -6.211999
v -0.334360 1.233269 -6.211999
v -0.335371 1.336792 -6.211999
v -1.055735 1.690786 -5.527998
v -1.107763 1.662977 -5.527998
v -1.153366 1.625552 -5.527998
v -1.190791 1.579949 -5.527998
v -1.235726 1.471467 -5.527998
v -1.218601 1.527921 -5.527998
v -0.999282 1.117603 -5.527998
v -1.235726 1.354047 -5.527998
v -1.153366 1.199963 -5.527998
v -1.107763 1.162537 -5.527998
v -1.190792 1.245566 -5.527998
v -0.940572 1.111821 -5.527998
v -1.055735 1.134727 -5.527998
v -1.218601 1.297594 -5.527998
v -0.936708 1.112201 -5.527998
v -1.241509 1.412758 -5.527998
v -0.727777 1.625552 -5.527998
v -0.690352 1.579949 -5.527998
v -0.773380 1.662977 -5.527998
v -0.662542 1.527921 -5.527998
v -0.825408 1.690787 -5.527998
v -0.645417 1.471467 -5.527998
v -0.645417 1.354047 -5.527998
v -0.639635 1.412757 -5.527998
v -0.727777 1.199963 -5.527998
v -0.690352 1.245566 -5.527998
v -0.662542 1.297594 -5.527998
v -0.881862 1.707912 -5.527998
v -0.940572 1.713694 -5.527998
v -0.999282 1.707911 -5.527998
v -0.773380 1.162537 -5.527998
v -0.825408 1.134727 -5.527998
v -0.881862 1.117603 -5.527998
v -1.054479 1.134346 -6.487998
v -1.055736 1.134727 -6.487998
v -1.153367 1.199963 -6.487998
v -1.190792 1.245566 -6.487998
v -1.107763 1.162537 -6.487998
v -0.727778 1.625552 -6.487999
v -0.690352 1.579949 -6.487999
v -0.773380 1.662977 -6.487998
v -0.662543 1.527921 -6.487999
v -0.825409 1.690787 -6.487998
v -0.645418 1.471467 -6.487999
v -0.881862 1.707912 -6.487998
v -0.940572 1.713694 -6.487998
v -1.055736 1.690786 -6.487998
v -0.999282 1.707911 -6.487998
v -1.153367 1.625552 -6.487998
v -1.190792 1.579949 -6.487998
v -1.107764 1.662977 -6.487998
v -0.690352 1.245566 -6.487999
v -0.727778 1.199963 -6.487998
v -0.825408 1.134727 -6.487998
v -0.881862 1.117603 -6.487998
v -0.773380 1.162537 -6.487998
v -0.999282 1.117603 -6.487998
v -0.940572 1.111821 -6.487998
v -1.218602 1.297594 -6.487998
v -1.235726 1.354047 -6.487998
v -1.241509 1.412758 -6.487998
v -0.639635 1.412757 -6.487999
v -0.645417 1.354047 -6.487999
v -1.235726 1.471467 -6.487998
v -1.218602 1.527921 -6.487998
v -0.662543 1.297594 -6.487999
v -0.825409 1.690787 -6.211998
v -0.690352 1.245566 -6.211998
v -1.107764 1.662977 -6.211998
v -0.773380 1.162537 -6.211998
v -1.190792 1.579949 -6.211998
v -1.055736 1.134727 -6.211998
v -1.218602 1.297594 -6.211998
v -0.940572 1.111821 -6.211998
v -0.690352 1.579949 -6.403999
v -0.825409 1.690787 -6.403999
v -0.940572 1.713694 -6.403999
v -0.645418 1.471467 -6.403999
v -0.662543 1.297594 -6.403999
v -0.773380 1.162537 -6.403999
v -1.190792 1.579949 -6.403999
v -1.107764 1.662977 -6.403999
v -1.235726 1.471467 -6.403999
v -0.940572 1.111821 -6.403999
v -1.055736 1.134727 -6.403999
v -1.153367 1.199963 -6.403999
v -1.235726 1.354047 -6.403999
v -3.074530 3.041892 -6.208539
v -2.626188 2.570740 -6.403998
v -2.626187 2.570740 -6.211998
v -2.343631 2.789163 -6.137599
v -2.315984 2.817326 -6.137599
v -2.392502 2.739381 -5.910031
v -2.412746 2.718761 -6.029600
v -2.267113 2.867108 -6.105967
v -2.315984 2.817326 -5.878399
v -2.392502 2.739381 -6.105967
v -2.412746 2.718761 -5.986400
v -2.246870 2.887728 -5.986400
v -2.246870 2.887728 -6.029600
v -2.343631 2.789163 -5.878399
v -2.267113 2.867108 -5.910031
v -3.428100 2.991914 -6.403998
v -3.601859 3.165744 -6.403998
v -3.550966 3.042858 -6.403998
v -3.601859 3.409406 -6.403998
v -3.428154 3.578846 -6.403999
v -3.550982 3.531008 -6.403999
v -3.601859 3.165744 -6.211998
v -3.428100 2.991914 -6.211998
v -3.550966 3.042858 -6.211998
v -3.428154 3.578846 -6.211998
v -3.601859 3.409406 -6.211998
v -3.550982 3.531008 -6.211998
v -3.448111 3.139562 -5.808538
v -3.350431 3.041893 -5.808538
v -3.350494 3.526230 -5.808539
v -3.448143 3.429918 -5.808539
v -3.350431 3.041893 -6.208539
v -3.448111 3.139562 -6.208539
v -3.448143 3.429918 -6.208539
v -3.350494 3.526230 -6.208539
v -2.799207 3.518571 -5.808540
v -2.625525 3.477832 -5.808540
v -2.799207 3.518571 -6.208539
v -2.625526 3.477832 -6.208539
v -0.999282 1.707911 -6.211998
v -0.662543 1.527921 -6.211998
v -0.388007 1.425940 -6.211999
v -2.841032 3.274564 -6.193326
v -2.910976 3.203435 -6.148092
v -2.236543 2.890957 -6.148092
v -2.207571 2.920420 -6.038888
v -2.444974 2.678998 -6.038888
v -2.416002 2.708460 -6.148092
v -2.444974 2.678998 -5.977111
v -2.416001 2.708460 -5.867906
v -2.346057 2.779590 -5.822671
v -2.801463 3.314803 -6.193326
v -2.801462 3.314803 -5.822672
v -2.731518 3.385932 -5.867906
v -2.306488 2.819828 -5.822671
v -2.236543 2.890957 -5.867906
v -2.346057 2.779590 -6.193327
v -2.306488 2.819828 -6.193327
v -2.841032 3.274564 -5.822672
v -2.207571 2.920420 -5.977111
v -2.910976 3.203435 -5.867906
v -2.939949 3.173973 -6.038888
v -2.939949 3.173973 -5.977111
v -2.731518 3.385932 -6.148093
v -2.702546 3.415394 -6.038888
v -2.702546 3.415394 -5.977112
v -1.130149 1.835435 -6.487998
v -0.874844 1.835435 -6.487998
v -1.002497 1.888311 -6.487998
v -0.874844 1.835435 -5.527998
v -1.130149 1.835435 -5.527998
v -1.002496 1.888311 -5.527998
v -1.369819 1.340460 -6.487998
v -1.369819 1.595765 -6.487998
v -1.422695 1.468113 -6.487998
v -1.369819 1.595765 -5.527998
v -1.369819 1.340460 -5.527998
v -1.422694 1.468113 -5.527998
v -0.641261 1.429263 -6.211999
v -1.241509 1.412758 -6.211998
v -0.948145 0.854761 -6.211998
v -0.857987 0.803874 -6.211998
v -0.727778 1.625552 -6.211998
v -1.153367 1.199963 -6.211998
v -3.428127 3.285380 -6.403998
v -3.428127 3.285380 -6.211998
v -2.626187 2.570740 -6.211998
v -0.948145 0.854761 -6.211998
v -3.053542 2.991883 -5.803998
v -2.493405 3.563061 -5.803998
v -3.053542 2.991883 -5.611999
v -2.493405 3.563061 -5.611999
v -0.665316 0.857521 -5.803998
v -0.948145 0.854761 -5.803998
v -0.754464 0.804885 -5.803998
v -0.857986 0.803874 -5.803998
v -0.388007 1.425940 -5.803999
v -0.385247 1.143111 -5.803999
v -0.335371 1.336792 -5.803999
v -0.334360 1.233269 -5.803999
v -0.665316 0.857521 -5.611999
v -0.754464 0.804885 -5.611999
v -0.385247 1.143111 -5.611999
v -0.334360 1.233269 -5.611999
v -0.335371 1.336792 -5.611999
v -0.825409 1.690787 -5.611999
v -0.690352 1.245566 -5.611999
v -1.107763 1.662977 -5.611999
v -0.773380 1.162537 -5.611999
v -1.190791 1.579949 -5.611999
v -1.055735 1.134727 -5.611999
v -1.218601 1.297594 -5.611999
v -0.940572 1.111821 -5.611999
v -0.690352 1.579949 -5.803998
v -0.825409 1.690787 -5.803998
v -0.940572 1.713694 -5.803998
v -0.645417 1.471467 -5.803998
v -0.662543 1.297594 -5.803998
v -0.773380 1.162537 -5.803998
v -1.190791 1.579949 -5.803998
v -1.107763 1.662977 -5.803998
v -1.235726 1.471467 -5.803998
v -0.940572 1.111821 -5.803998
v -1.055735 1.134727 -5.803998
v -1.153366 1.199963 -5.803998
v -1.235726 1.354047 -5.803998
v -2.626187 2.570740 -5.803998
v -2.626187 2.570740 -5.611999
v -3.428100 2.991914 -5.803998
v -3.601858 3.165744 -5.803998
v -3.550966 3.042858 -5.803998
v -3.601858 3.409406 -5.803998
v -3.428154 3.578846 -5.803998
v -3.550982 3.531008 -5.803998
v -3.601858 3.165744 -5.611999
v -3.428100 2.991914 -5.611999
v -3.550966 3.042858 -5.611999
v -3.428154 3.578846 -5.611999
v -3.601858 3.409406 -5.611999
v -3.550982 3.531008 -5.611999
v -0.999282 1.707911 -5.611999
v -0.662542 1.527921 -5.611999
v -0.388007 1.425940 -5.611999
v -0.641261 1.429263 -5.611999
v -1.241509 1.412758 -5.611999
v -0.948145 0.854761 -5.611999
v -0.857986 0.803874 -5.611999
v -0.727777 1.625552 -5.611999
v -1.153366 1.199963 -5.611999
v -3.428127 3.285380 -5.803998
v -3.428127 3.285380 -5.611999
v 0.152379 1.866459 -6.538949
v 0.041487 2.073923 -6.538949
v 0.152379 1.866459 -6.538949
v 0.041487 2.073923 -6.538949
v -4.021544 1.858303 -6.538948
v -4.135864 2.063898 -6.538948
v -4.021544 1.858303 -6.538948
v -4.135864 2.063898 -6.538948
vn -0.0000 -0.0000 -1.0000
vn -0.0000 -0.0000 1.0000
vn -0.7892 -0.6142 -0.0000
vn -0.6033 -0.7975 -0.0000
vn 0.6224 -0.7827 -0.0000
vn 0.2654 -0.9641 -0.0000
vn 0.0068 -1.0000 -0.0000
vn -0.4941 -0.8694 -0.0000
vn -0.8027 0.5964 -0.0000
vn -0.9677 0.2522 -0.0000
vn -1.0000 -0.0068 -0.0000
vn -0.8626 -0.5059 -0.0000
vn -0.0335 0.9994 -0.0000
vn 0.1600 0.9871 -0.0000
vn 0.9839 -0.1788 -0.0000
vn 0.9770 0.2131 -0.0000
vn 0.0167 -0.9999 -0.0000
vn 0.2116 -0.9774 -0.0000
vn 0.3983 -0.9173 -0.0000
vn 0.9301 -0.3672 -0.0000
vn 0.9160 0.4012 -0.0000
vn 0.3474 0.9377 -0.0000
vn 0.0166 -0.9999 -0.0000
vn 0.6903 0.7235 -0.0000
vn 0.7187 -0.6953 -0.0000
vn 0.9999 0.0165 -0.0000
vn -0.2445 0.9697 -0.0000
vn -0.1383 0.9904 -0.0000
vn -0.0305 0.9995 -0.0000
vn -0.6846 -0.7289 -0.0000
vn 0.7136 -0.7005 -0.0000
vn 0.7201 -0.6939 -0.0000
vn -0.7239 0.6899 -0.0000
vn 0.7993 -0.6010 -0.0000
vn 0.6165 -0.7874 -0.0000
vn -0.6093 -0.7929 -0.0000
vn -0.2494 -0.9684 -0.0000
vn 0.0098 -1.0000 -0.0000
vn 0.5084 -0.8611 -0.0000
vn 0.7927 0.6097 -0.0000
vn 0.9634 0.2682 -0.0000
vn 1.0000 0.0098 -0.0000
vn 0.8709 -0.4915 -0.0000
vn 0.0169 0.9999 -0.0000
vn -0.1763 0.9843 -0.0000
vn -0.9808 -0.1951 -0.0000
vn -0.9804 0.1968 -0.0000
vn -0.0001 -1.0000 -0.0000
vn -0.1953 -0.9807 -0.0000
vn -0.3830 -0.9237 -0.0000
vn -0.9239 -0.3826 -0.0000
vn -0.9225 0.3860 -0.0000
vn -0.3629 0.9318 -0.0000
vn -0.0000 -1.0000 -0.0000
vn -0.7022 0.7120 -0.0000
vn -0.7071 -0.7071 -0.0000
vn -1.0000 -0.0001 -0.0000
vn 0.2284 0.9736 -0.0000
vn 0.1218 0.9925 -0.0000
vn 0.0139 0.9999 -0.0000
vn 0.6966 -0.7175 -0.0000
vn -0.7019 -0.7123 -0.0000
vn -0.7085 -0.7057 -0.0000
vn 0.7124 0.7018 -0.0000
vn 0.2588 0.9659 -0.0000
vn 0.7071 0.7071 -0.0000
vn 0.9659 0.2588 -0.0000
vn 0.9659 -0.2588 -0.0000
vn 0.7071 -0.7071 -0.0000
vn 0.2588 -0.9659 -0.0000
vn -0.2588 -0.9659 -0.0000
vn -0.9659 -0.2588 -0.0000
vn -0.9659 0.2588 -0.0000
vn -0.7071 0.7071 -0.0000
vn -0.2588 0.9659 -0.0000
vn -0.7025 0.6844 -0.1951
vn -0.7041 0.6870 0.1798
vn -0.7041 0.6870 -0.1798
vn 0.1442 -0.1372 0.9800
vn 0.2973 -0.2852 0.9112
vn 0.1512 -0.1451 0.9778
vn 0.6708 -0.6359 0.3816
vn 0.7133 -0.6772 0.1808
vn 0.6777 -0.6446 0.3539
vn -0.7025 0.6844 0.1950
vn -0.6692 0.6529 0.3549
vn -0.2762 0.2663 0.9235
vn -0.1521 0.1478 0.9772
vn -0.2961 0.2879 0.9107
vn 0.7132 -0.6771 -0.1812
vn 0.6708 -0.6359 -0.3816
vn 0.6777 -0.6446 -0.3539
vn 0.2973 -0.2852 -0.9112
vn 0.1442 -0.1372 -0.9800
vn 0.1512 -0.1451 -0.9778
vn -0.1524 0.1481 -0.9772
vn -0.2762 0.2663 -0.9235
vn -0.2961 0.2879 -0.9107
vn -0.6692 0.6529 -0.3549
vn -0.1382 0.1333 0.9814
vn -0.1383 0.1333 -0.9814
vn 0.7120 -0.6748 -0.1942
vn 0.7120 -0.6748 0.1942
vn 0.2774 -0.2638 0.9238
vn -0.6624 0.6441 0.3827
vn 0.7134 -0.6772 -0.1802
vn 0.6708 -0.6360 -0.3815
vn 0.2774 -0.2638 -0.9238
vn -0.1518 0.1475 -0.9773
vn -0.2758 0.2659 -0.9237
vn -0.6624 0.6441 -0.3827
vn 0.6911 0.6960 0.1950
vn 0.6926 0.6986 -0.1798
vn 0.6926 0.6986 0.1798
vn -0.1419 -0.1396 -0.9800
vn -0.2926 -0.2901 -0.9112
vn -0.1488 -0.1476 -0.9778
vn -0.6602 -0.6469 -0.3816
vn -0.7019 -0.6889 -0.1808
vn -0.6669 -0.6558 -0.3539
vn 0.6911 0.6960 -0.1950
vn 0.6582 0.6639 -0.3549
vn 0.2717 0.2709 -0.9235
vn 0.1496 0.1504 -0.9772
vn 0.2913 0.2928 -0.9107
vn -0.7019 -0.6889 0.1812
vn -0.6602 -0.6469 0.3816
vn -0.6669 -0.6558 0.3538
vn -0.2926 -0.2901 0.9112
vn -0.1419 -0.1396 0.9800
vn -0.1488 -0.1476 0.9778
vn 0.1500 0.1507 0.9771
vn 0.2717 0.2709 0.9235
vn 0.2913 0.2928 0.9107
vn 0.6582 0.6639 0.3549
vn 0.1360 0.1355 -0.9814
vn 0.1360 0.1356 0.9814
vn -0.7007 -0.6865 0.1942
vn -0.7007 -0.6865 -0.1942
vn -0.2729 -0.2684 -0.9238
vn 0.6516 0.6550 -0.3827
vn -0.7020 -0.6890 0.1804
vn -0.6603 -0.6470 0.3814
vn -0.2729 -0.2684 0.9238
vn 0.1493 0.1501 0.9773
vn 0.2717 0.2709 0.9234
vn 0.6516 0.6550 0.3827
vn -0.7642 -0.6447 0.0168
vn -0.7643 -0.6447 -0.0169
vn -0.7642 -0.6447 -0.0168
vn -0.6510 -0.7568 0.0590
vn -0.6858 -0.7226 0.0870
vn -0.6850 -0.7233 0.0868
vn -0.6510 -0.7568 -0.0590
vn -0.6858 -0.7226 -0.0870
vn -0.6529 -0.7549 -0.0617
vn -0.7129 -0.6960 0.0862
vn -0.7115 -0.6974 0.0861
vn 0.6722 -0.6503 0.3539
vn 0.7070 -0.6839 0.1800
vn 0.6722 -0.6503 -0.3539
vn 0.7070 -0.6839 -0.1800
vn 0.7070 -0.6840 -0.1797
vn 0.1530 -0.1479 -0.9771
vn 0.2968 -0.2871 -0.9107
vn 0.1526 -0.1476 0.9772
vn 0.2968 -0.2871 0.9107
vn 0.1511 -0.1461 0.9777
vn -0.7070 0.6839 0.1800
vn -0.7070 0.6840 -0.1797
vn -0.7071 0.6840 -0.1796
vn -0.2968 0.2871 0.9107
vn -0.1526 0.1476 0.9772
vn -0.1511 0.1461 -0.9777
vn 0.1511 -0.1461 -0.9777
vn 0.1523 -0.1473 -0.9773
vn -0.7069 0.6839 -0.1805
vn -0.6722 0.6503 -0.3539
vn -0.6722 0.6503 0.3539
vn -0.7070 0.6840 0.1797
vn -0.1511 0.1461 0.9777
vn 0.7070 -0.6840 0.1797
vn -0.2968 0.2871 -0.9107
vn -0.1526 0.1476 -0.9772
vn -0.7449 -0.6647 0.0573
vn -0.7643 -0.6447 0.0169
vn -0.7429 -0.6668 0.0598
vn -0.7449 -0.6647 -0.0573
vn -0.7115 -0.6974 -0.0861
vn -0.7129 -0.6960 -0.0862
vn -0.6291 -0.7771 -0.0177
vn -0.6291 -0.7771 -0.0178
vn -0.6291 -0.7771 0.0178
vn -0.6291 -0.7771 0.0177
vn -0.6529 -0.7549 0.0617
vn -0.6850 -0.7233 -0.0868
vn -0.7429 -0.6668 -0.0598
vn 0.7748 -0.6319 -0.0168
vn 0.7749 -0.6319 0.0169
vn 0.7748 -0.6319 0.0168
vn 0.6634 -0.7459 -0.0590
vn 0.6977 -0.7111 -0.0870
vn 0.6970 -0.7118 -0.0868
vn 0.6634 -0.7459 0.0590
vn 0.6977 -0.7111 0.0870
vn 0.6654 -0.7440 0.0617
vn 0.7243 -0.6840 -0.0862
vn 0.7230 -0.6855 -0.0861
vn -0.6614 -0.6614 -0.3539
vn -0.6956 -0.6956 -0.1800
vn -0.6614 -0.6613 -0.3539
vn -0.6614 -0.6614 0.3539
vn -0.6956 -0.6956 0.1800
vn -0.6956 -0.6956 0.1797
vn -0.1504 -0.1504 0.9771
vn -0.2920 -0.2920 0.9107
vn -0.1501 -0.1501 -0.9772
vn -0.2920 -0.2920 -0.9107
vn -0.1486 -0.1486 -0.9777
vn 0.6956 0.6956 -0.1800
vn 0.6956 0.6956 0.1797
vn 0.6956 0.6956 0.1796
vn 0.2920 0.2920 -0.9107
vn 0.1501 0.1501 -0.9772
vn 0.1486 0.1486 0.9777
vn -0.1486 -0.1486 0.9777
vn -0.1498 -0.1498 0.9773
vn 0.6955 0.6955 0.1804
vn 0.6614 0.6614 0.3539
vn 0.6613 0.6614 -0.3539
vn 0.6956 0.6956 -0.1797
vn 0.1486 0.1486 -0.9777
vn -0.6956 -0.6956 -0.1797
vn 0.2920 0.2920 0.9107
vn 0.1501 0.1501 0.9772
vn 0.7558 -0.6523 -0.0573
vn 0.7749 -0.6319 -0.0169
vn 0.7538 -0.6543 -0.0598
vn 0.7558 -0.6523 0.0573
vn 0.7230 -0.6855 0.0861
vn 0.7243 -0.6840 0.0862
vn 0.6420 -0.7665 0.0177
vn 0.6419 -0.7666 0.0178
vn 0.6419 -0.7666 -0.0178
vn 0.6420 -0.7665 -0.0177
vn 0.6654 -0.7440 -0.0617
vn 0.6970 -0.7118 0.0868
vn 0.7538 -0.6543 0.0598
vn 0.6613 0.6613 -0.3539
vn 0.8406 -0.5417 -0.0000
vn 0.5693 -0.8221 -0.0000
vn -0.5417 -0.8406 -0.0000
vn -0.8221 -0.5693 -0.0000
vn -0.9174 -0.3980 -0.0000
vn -0.9301 0.3673 -0.0000
vn -0.8406 0.5417 -0.0000
vn -0.3673 -0.9301 -0.0000
vn 0.3980 -0.9174 -0.0000
vn 0.5417 0.8406 -0.0000
vn 0.8221 0.5693 -0.0000
vn 0.3673 0.9301 -0.0000
vn -0.3980 0.9174 -0.0000
vn -0.5693 0.8221 -0.0000
vn 0.9301 -0.3673 -0.0000
vn 0.9174 0.3980 -0.0000
vn 0.0014 0.0014 -1.0000
vn -0.8315 -0.5556 -0.0000
vn -0.5556 -0.8315 -0.0000
vn 0.5556 -0.8315 -0.0000
vn 0.8315 -0.5556 -0.0000
vn 0.9239 -0.3827 -0.0000
vn 0.9239 0.3827 -0.0000
vn 0.8315 0.5556 -0.0000
vn 0.3827 -0.9239 -0.0000
vn -0.3827 -0.9239 -0.0000
vn -0.5556 0.8315 -0.0000
vn -0.8315 0.5556 -0.0000
vn -0.3827 0.9239 -0.0000
vn 0.3827 0.9239 -0.0000
vn 0.5556 0.8315 -0.0000
vn -0.9239 -0.3827 -0.0000
vn -0.9239 0.3827 -0.0000
vn -0.0014 0.0014 1.0000
vn -0.0005 -0.0000 -1.0000
vn -0.0009 -0.0000 -1.0000
vn -0.0001 -0.0001 -1.0000
vt 0.241622 0.510735
vt 0.262199 0.510897
vt 0.286090 0.562227
vt 0.489608 0.005306
vt 0.412377 0.408469
vt 0.393727 0.416523
vt 0.489280 0.541730
vt 0.476932 0.554704
vt 0.467015 0.487651
vt 0.355586 0.650679
vt 0.322106 0.581599
vt 0.355325 0.581474
vt 0.355122 0.527739
vt 0.321971 0.545776
vt 0.321904 0.527865
vt 0.355189 0.545651
vt 0.322039 0.563688
vt 0.322571 0.704539
vt 0.355721 0.686502
vt 0.355789 0.704413
vt 0.322503 0.686627
vt 0.355654 0.668590
vt 0.322435 0.668716
vt 0.359014 0.718922
vt 0.466215 0.740939
vt 0.359014 0.740939
vt 0.524386 0.718922
vt 0.496445 0.740938
vt 0.496445 0.718922
vt 0.465644 0.774585
vt 0.465073 0.808231
vt 0.597839 0.740938
vt 0.554889 0.718922
vt 0.597839 0.718922
vt 0.422129 0.652351
vt 0.465644 0.685276
vt 0.466215 0.718922
vt 0.554889 0.740938
vt 0.539637 0.718922
vt 0.539637 0.740938
vt 0.481330 0.718922
vt 0.481330 0.740938
vt 0.489863 0.632665
vt 0.457290 0.585440
vt 0.489863 0.585440
vt 0.556644 0.632665
vt 0.540452 0.585440
vt 0.556644 0.585440
vt 0.506172 0.632665
vt 0.540452 0.632665
vt 0.506172 0.585440
vt 0.545275 0.644195
vt 0.590017 0.689389
vt 0.545755 0.678472
vt 0.383404 0.632665
vt 0.362342 0.585440
vt 0.383404 0.585440
vt 0.621737 0.632665
vt 0.590017 0.528716
vt 0.621737 0.585440
vt 0.545755 0.539634
vt 0.557446 0.528264
vt 0.545275 0.573910
vt 0.557446 0.689842
vt 0.387036 0.496738
vt 0.390568 0.561476
vt 0.373158 0.557269
vt 0.360184 0.544921
vt 0.459751 0.559766
vt 0.413904 0.510586
vt 0.493487 0.524320
vt 0.289409 0.496661
vt 0.303742 0.557895
vt 0.316852 0.545313
vt 0.213057 0.493957
vt 0.216178 0.560147
vt 0.199008 0.555032
vt 0.186683 0.541999
vt 0.182530 0.524541
vt 0.480205 0.713200
vt 0.485803 0.699160
vt 0.485331 0.671223
vt 0.479258 0.657233
vt 0.465073 0.651630
vt 0.479258 0.802628
vt 0.485803 0.760701
vt 0.480205 0.746661
vt 0.485331 0.788638
vt 0.353162 0.008700
vt 0.320336 0.112629
vt 0.319944 0.008825
vt 0.353554 0.112504
vt 0.351243 0.008725
vt 0.015007 0.718923
vt 0.015007 0.740939
vt 0.182530 0.004687
vt 0.263125 0.406809
vt 0.242722 0.406644
vt 0.322372 0.007743
vt 0.069176 0.510735
vt 0.089753 0.510897
vt 0.113644 0.562227
vt 0.317162 0.005306
vt 0.239931 0.408469
vt 0.221281 0.416523
vt 0.316834 0.541730
vt 0.304486 0.554704
vt 0.294569 0.487651
vt 0.183140 0.650679
vt 0.149661 0.581599
vt 0.182879 0.581474
vt 0.182676 0.527740
vt 0.149525 0.545776
vt 0.149458 0.527865
vt 0.182744 0.545651
vt 0.149593 0.563688
vt 0.150125 0.704539
vt 0.183276 0.686502
vt 0.183343 0.704413
vt 0.150057 0.686627
vt 0.183208 0.668590
vt 0.149990 0.668716
vt 0.358473 0.718923
vt 0.465674 0.740939
vt 0.358473 0.740939
vt 0.523845 0.718922
vt 0.495904 0.740938
vt 0.495904 0.718922
vt 0.465103 0.774585
vt 0.464532 0.808231
vt 0.597298 0.740938
vt 0.554348 0.718922
vt 0.597298 0.718922
vt 0.421588 0.652351
vt 0.465103 0.685276
vt 0.465674 0.718922
vt 0.554348 0.740938
vt 0.539097 0.718922
vt 0.539097 0.740938
vt 0.480789 0.718922
vt 0.480790 0.740939
vt 0.214590 0.496738
vt 0.218122 0.561476
vt 0.200712 0.557269
vt 0.187738 0.544921
vt 0.287305 0.559766
vt 0.241458 0.510587
vt 0.321041 0.524320
vt 0.116963 0.496661
vt 0.131296 0.557895
vt 0.144407 0.545313
vt 0.040612 0.493957
vt 0.043732 0.560147
vt 0.026563 0.555032
vt 0.014238 0.541999
vt 0.010084 0.524541
vt 0.479664 0.713200
vt 0.485262 0.699160
vt 0.484790 0.671223
vt 0.478717 0.657233
vt 0.464532 0.651630
vt 0.478718 0.802628
vt 0.485262 0.760701
vt 0.479664 0.746661
vt 0.484790 0.788638
vt 0.180716 0.008700
vt 0.147890 0.112629
vt 0.147498 0.008825
vt 0.181108 0.112504
vt 0.178797 0.008725
vt 0.014467 0.718923
vt 0.014467 0.740940
vt 0.010084 0.004687
vt 0.090679 0.406809
vt 0.070276 0.406644
vt 0.149926 0.007743
vt 0.375498 0.480017
vt 0.474507 0.468769
vt 0.471095 0.438735
vt 0.371238 0.460154
vt 0.459557 0.422014
vt 0.379579 0.431101
vt 0.432689 0.408165
vt 0.322368 0.650804
vt 0.355257 0.563563
vt 0.524386 0.740938
vt 0.422129 0.807510
vt 0.457290 0.632665
vt 0.362342 0.632665
vt 0.642307 0.580916
vt 0.642307 0.637190
vt 0.443938 0.507174
vt 0.203707 0.479271
vt 0.301010 0.479645
vt 0.305221 0.459500
vt 0.199888 0.459461
vt 0.204282 0.437423
vt 0.300863 0.438172
vt 0.223782 0.414267
vt 0.289721 0.421211
vt 0.203053 0.480017
vt 0.302061 0.468769
vt 0.298649 0.438735
vt 0.198792 0.460154
vt 0.287111 0.422014
vt 0.207133 0.431101
vt 0.260243 0.408165
vt 0.149922 0.650804
vt 0.182811 0.563562
vt 0.523845 0.740938
vt 0.421588 0.807510
vt 0.271492 0.507174
vt 0.031261 0.479271
vt 0.128564 0.479645
vt 0.132775 0.459500
vt 0.027442 0.459461
vt 0.031836 0.437423
vt 0.128417 0.438171
vt 0.051336 0.414267
vt 0.117276 0.421211
vt 0.697059 0.724178
vt 0.703175 0.779316
vt 0.697059 0.779316
vt 0.703175 0.724178
vt 0.709291 0.779316
vt 0.709291 0.724178
vt 0.715407 0.779316
vt 0.715407 0.724178
vt 0.721523 0.779316
vt 0.721523 0.724178
vt 0.727639 0.779316
vt 0.727639 0.724178
vt 0.733755 0.779316
vt 0.733755 0.724178
vt 0.739871 0.779316
vt 0.739871 0.724178
vt 0.745987 0.779316
vt 0.745987 0.724178
vt 0.752103 0.779316
vt 0.752103 0.724178
vt 0.758219 0.779316
vt 0.758219 0.724178
vt 0.764335 0.779316
vt 0.690943 0.724178
vt 0.690943 0.779316
vt 0.705414 0.793787
vt 0.685646 0.799084
vt 0.696945 0.724178
vt 0.703062 0.779316
vt 0.696946 0.779316
vt 0.703061 0.724178
vt 0.709178 0.779316
vt 0.709177 0.724178
vt 0.715294 0.779316
vt 0.715294 0.724178
vt 0.721410 0.779316
vt 0.721410 0.724178
vt 0.727526 0.779316
vt 0.727526 0.724178
vt 0.733642 0.779316
vt 0.733642 0.724178
vt 0.739758 0.779316
vt 0.739758 0.724178
vt 0.745874 0.779316
vt 0.745874 0.724178
vt 0.751990 0.779316
vt 0.751990 0.724178
vt 0.758106 0.779316
vt 0.758106 0.724178
vt 0.764222 0.779316
vt 0.690829 0.724178
vt 0.690830 0.779316
vt 0.705300 0.793787
vt 0.685533 0.799084
vt 0.764335 0.724178
vt 0.702356 0.782374
vt 0.705414 0.787671
vt 0.702356 0.799084
vt 0.697059 0.802142
vt 0.690943 0.802142
vt 0.682588 0.793787
vt 0.682588 0.787671
vt 0.685646 0.782375
vt 0.764222 0.724178
vt 0.702242 0.782374
vt 0.705300 0.787671
vt 0.702242 0.799084
vt 0.696946 0.802142
vt 0.690830 0.802142
vt 0.682475 0.793787
vt 0.682475 0.787671
vt 0.685533 0.782375
vt 0.566835 0.188397
vt 0.972358 0.174418
vt 0.972430 0.185814
vt 0.565584 0.122015
vt 0.971579 0.102075
vt 0.971813 0.122275
vt 0.565029 0.100217
vt 0.971543 0.080541
vt 0.566762 0.177004
vt 0.972183 0.152884
vt 0.566458 0.155205
vt 0.971945 0.132683
vt 0.971603 0.069150
vt 0.565316 0.045226
vt 0.971864 0.047617
vt 0.566100 0.023436
vt 0.972308 0.027420
vt 0.972549 0.227551
vt 0.566808 0.210198
vt 0.972530 0.207349
vt 0.565899 0.133407
vt 0.566533 0.012048
vt 0.564916 0.067024
vt 0.564857 0.078417
vt 0.566527 0.232001
vt 0.972549 0.017014
vt 0.232807 0.594563
vt 0.240762 0.603562
vt 0.232461 0.601632
vt 0.198973 0.580562
vt 0.209438 0.566528
vt 0.210555 0.575731
vt 0.197826 0.612659
vt 0.207263 0.627403
vt 0.191235 0.619333
vt 0.217574 0.576043
vt 0.210243 0.566457
vt 0.219474 0.566967
vt 0.057949 0.714444
vt 0.046703 0.646475
vt 0.058043 0.646457
vt 0.029269 0.714404
vt 0.040703 0.646467
vt 0.040609 0.714454
vt 0.018631 0.714308
vt 0.029363 0.646417
vt 0.068587 0.714377
vt 0.068682 0.646391
vt 0.096047 0.714255
vt 0.102141 0.646276
vt 0.102047 0.714263
vt 0.084706 0.714272
vt 0.074163 0.646352
vt 0.084801 0.646286
vt 0.013150 0.714255
vt 0.018725 0.646321
vt 0.113481 0.646325
vt 0.113387 0.714312
vt 0.096141 0.646268
vt 0.074068 0.714339
vt 0.046609 0.714462
vt 0.124119 0.646422
vt 0.124025 0.714408
vt 0.228709 0.581829
vt 0.241256 0.593453
vt 0.235398 0.575242
vt 0.227141 0.613906
vt 0.216500 0.627796
vt 0.215494 0.618578
vt 0.185140 0.601200
vt 0.193564 0.599979
vt 0.193817 0.592905
vt 0.185502 0.591086
vt 0.192875 0.573434
vt 0.209034 0.618303
vt 0.233155 0.621113
vt 0.211118 0.575686
vt 0.013244 0.646268
vt 0.210617 0.819606
vt 0.118606 0.996451
vt 0.118606 0.819606
vt 0.316598 0.638264
vt 0.295815 0.658845
vt 0.291751 0.641371
vt 0.062210 0.819606
vt 0.006945 0.996451
vt 0.006945 0.819605
vt 0.267978 0.641369
vt 0.273802 0.643137
vt 0.315475 0.638254
vt 0.285919 0.643221
vt 0.291742 0.641452
vt 0.243029 0.638456
vt 0.243338 0.586724
vt 0.249404 0.606719
vt 0.523274 0.996451
vt 0.495075 0.819605
vt 0.523274 0.819605
vt 0.495075 0.996451
vt 0.466877 0.819605
vt 0.090408 0.996451
vt 0.062210 0.996451
vt 0.090408 0.819606
vt 0.323961 0.819606
vt 0.261522 0.996451
vt 0.261522 0.819606
vt 0.244234 0.638171
vt 0.244241 0.586658
vt 0.249416 0.606634
vt 0.250272 0.652759
vt 0.262611 0.638499
vt 0.264856 0.658808
vt 0.254048 0.629934
vt 0.257908 0.634638
vt 0.349414 0.996451
vt 0.323961 0.996451
vt 0.349414 0.819605
vt 0.374867 0.996451
vt 0.236070 0.996451
vt 0.210617 0.996451
vt 0.236069 0.819606
vt 0.466877 0.996451
vt 0.294873 0.658884
vt 0.267968 0.641461
vt 0.273800 0.643230
vt 0.309443 0.652836
vt 0.262585 0.638580
vt 0.263919 0.658955
vt 0.249275 0.653010
vt 0.253970 0.629908
vt 0.257859 0.634689
vt 0.248790 0.573597
vt 0.267994 0.584120
vt 0.262630 0.586983
vt 0.257926 0.590834
vt 0.310013 0.573608
vt 0.308528 0.600913
vt 0.305660 0.595550
vt 0.316413 0.586632
vt 0.310337 0.618753
vt 0.310925 0.612692
vt 0.291735 0.584013
vt 0.310960 0.573486
vt 0.297807 0.568042
vt 0.262615 0.586884
vt 0.249695 0.573494
vt 0.262859 0.568042
vt 0.273803 0.582250
vt 0.267981 0.584016
vt 0.257911 0.590744
vt 0.297127 0.638494
vt 0.301533 0.634870
vt 0.310444 0.652850
vt 0.285921 0.643141
vt 0.279861 0.643735
vt 0.297106 0.638584
vt 0.301808 0.634724
vt 0.250949 0.624158
vt 0.251132 0.624484
vt 0.254062 0.595528
vt 0.251184 0.600892
vt 0.249389 0.618838
vt 0.248796 0.612795
vt 0.251180 0.624567
vt 0.254051 0.595447
vt 0.251183 0.600812
vt 0.249414 0.618744
vt 0.248819 0.612689
vt 0.374867 0.819605
vt 0.279861 0.643821
vt 0.261929 0.568160
vt 0.273814 0.582357
vt 0.296856 0.568160
vt 0.315465 0.586765
vt 0.305666 0.630021
vt 0.308532 0.624657
vt 0.279865 0.581764
vt 0.310296 0.618837
vt 0.310891 0.612784
vt 0.285917 0.582360
vt 0.291737 0.584125
vt 0.310294 0.606732
vt 0.297100 0.586992
vt 0.301801 0.590850
vt 0.297102 0.586875
vt 0.301886 0.634594
vt 0.305612 0.630063
vt 0.301807 0.590729
vt 0.305671 0.595429
vt 0.308548 0.624621
vt 0.308545 0.600796
vt 0.310320 0.606625
vt 0.285913 0.582248
vt 0.279858 0.581653
s 1
g off
g PataTraseraIzquierda_SpacialRoverExploreralumWhite
usemtl SpacialRoverExploreralumWhite
f 158/1/1 160/2/1 86/3/1
s 2
f 75/4/2 171/5/2 173/6/2
f 84/7/2 85/8/2 168/9/2
s 3
f 83/10/3 86/11/4 78/12/4
s 4
f 79/13/5 259/14/6 258/15/5
f 81/16/6 87/17/7 259/14/6
s 3
f 87/17/8 78/12/4 86/11/4
s 5
f 219/18/9 84/19/10 82/20/9
f 90/21/10 85/22/11 84/19/10
s 3
f 89/23/12 83/10/3 85/22/12
s 6
f 75/24/13 202/25/14 77/26/13
s 7
f 194/27/15 203/28/16 196/29/16
s 1
f 77/26/1 263/30/1 200/31/1
s 8
f 76/32/17 193/33/18 74/34/17
s 2
f 74/35/2 262/36/2 197/37/2
s 8
f 200/38/18 195/39/19 193/33/18
s 7
f 201/40/20 194/27/15 195/39/20
f 203/28/16 198/41/21 196/29/16
s 6
f 204/42/22 197/37/14 198/41/22
s 9
f 209/43/23 73/44/23 206/45/23
s 10
f 212/46/24 208/47/24 207/48/24
s 11
f 206/45/25 210/49/25 209/43/25
s 12
f 211/50/26 205/51/26 208/47/26
s 13
f 211/52/2 178/53/2 210/54/2
s 14
f 216/55/27 213/56/28 214/57/27
f 207/48/29 215/58/28 212/46/29
s 15
f 73/44/30 216/55/30 214/57/30
s 16
f 73/59/1 213/60/1 207/48/1
f 73/59/1 205/61/1 206/62/1
f 208/63/1 73/59/1 207/48/1
f 205/61/1 73/59/1 208/63/1
s 13
f 210/54/2 178/53/2 209/64/2
f 178/53/2 211/52/2 212/46/2
f 215/58/2 178/53/2 212/46/2
s 2
f 174/65/2 78/66/2 80/67/2
f 80/67/2 81/68/2 174/65/2
f 79/13/2 174/65/2 81/68/2
f 83/69/2 174/65/2 170/70/2
f 168/9/2 82/71/2 84/7/2
f 168/9/2 85/8/2 83/69/2
s 1
f 86/3/1 164/72/1 87/73/1
f 87/73/1 164/72/1 259/74/1
f 256/75/1 88/76/1 89/77/1
f 90/78/1 219/79/1 256/75/1
f 89/77/1 90/78/1 256/75/1
f 164/72/1 258/15/1 259/74/1
s 2
f 197/37/2 262/36/2 198/80/2
f 198/80/2 262/36/2 196/81/2
f 196/81/2 262/36/2 194/82/2
f 195/83/2 262/36/2 193/84/2
f 194/82/2 262/36/2 195/83/2
s 1
f 200/31/1 263/30/1 201/85/1
f 203/86/1 263/30/1 204/87/1
f 204/87/1 263/30/1 202/25/1
f 201/85/1 263/30/1 199/88/1
f 199/88/1 263/30/1 203/86/1
s 4
f 74/89/31 180/90/32 76/91/31
s 2
f 75/4/2 179/92/2 74/93/2
s 4
f 179/92/32 258/15/5 180/90/32
s 5
f 82/94/9 77/26/33 219/95/9
s 1
f 77/96/1 161/97/1 159/98/1
f 180/90/1 77/96/1 76/99/1
s 17
f 284/100/1 286/101/1 278/102/1
s 18
f 267/103/2 297/104/2 299/105/2
f 276/106/2 277/107/2 294/108/2
s 19
f 275/109/3 278/110/4 270/111/4
s 20
f 271/112/5 324/113/6 323/114/5
f 273/115/6 279/116/7 324/113/6
s 19
f 279/116/8 270/111/4 278/110/4
s 21
f 320/117/9 276/118/10 274/119/9
f 282/120/10 277/121/11 276/118/10
s 19
f 281/122/12 275/109/3 277/121/12
s 22
f 267/123/13 315/124/14 269/125/13
s 23
f 307/126/15 316/127/16 309/128/16
s 17
f 269/125/1 328/129/1 313/130/1
s 24
f 268/131/17 306/132/18 266/133/17
s 18
f 266/134/2 327/135/2 310/136/2
s 24
f 313/137/18 308/138/19 306/132/18
s 23
f 314/139/20 307/126/15 308/138/20
f 316/127/16 311/140/21 309/128/16
s 22
f 317/141/22 310/136/14 311/140/22
s 18
f 300/142/2 270/143/2 272/144/2
f 272/144/2 273/145/2 300/142/2
f 271/112/2 300/142/2 273/145/2
f 275/146/2 300/142/2 296/147/2
f 294/108/2 274/148/2 276/106/2
f 294/108/2 277/107/2 275/146/2
s 17
f 278/102/1 290/149/1 279/150/1
f 279/150/1 290/149/1 324/151/1
f 321/152/1 280/153/1 281/154/1
f 282/155/1 320/156/1 321/152/1
f 281/154/1 282/155/1 321/152/1
f 290/149/1 323/114/1 324/151/1
s 18
f 310/136/2 327/135/2 311/157/2
f 311/157/2 327/135/2 309/158/2
f 309/158/2 327/135/2 307/159/2
f 308/160/2 327/135/2 306/161/2
f 307/159/2 327/135/2 308/160/2
s 17
f 313/130/1 328/129/1 314/162/1
f 316/163/1 328/129/1 317/164/1
f 317/164/1 328/129/1 315/124/1
f 314/162/1 328/129/1 312/165/1
f 312/165/1 328/129/1 316/163/1
s 20
f 266/166/31 305/167/32 268/168/31
s 18
f 267/103/2 304/169/2 266/170/2
s 20
f 304/169/32 323/114/5 305/167/32
s 21
f 274/171/9 269/125/33 320/172/9
s 17
f 269/173/1 287/174/1 285/175/1
f 305/167/1 269/173/1 268/176/1
s 1
f 86/3/1 88/76/1 256/75/1
f 86/3/1 256/75/1 158/1/1
f 160/2/1 164/72/1 86/3/1
s 2
f 175/177/2 174/65/2 79/13/2
f 82/71/2 168/9/2 165/178/2
f 82/71/2 165/178/2 166/179/2
f 176/180/2 175/177/2 79/13/2
f 176/180/2 79/13/2 179/92/2
f 75/4/2 82/71/2 166/179/2
f 75/4/2 166/179/2 167/181/2
f 176/180/2 179/92/2 75/4/2
f 177/182/2 176/180/2 75/4/2
f 75/4/2 167/181/2 172/183/2
f 75/4/2 172/183/2 171/5/2
f 173/6/2 177/182/2 75/4/2
s 3
f 83/10/3 88/184/3 86/11/4
s 4
f 79/13/5 81/16/6 259/14/6
f 81/16/6 80/185/7 87/17/7
s 3
f 87/17/8 80/185/8 78/12/4
s 5
f 219/18/9 90/21/10 84/19/10
f 90/21/10 89/23/11 85/22/11
s 3
f 89/23/12 88/184/3 83/10/3
s 6
f 75/24/13 197/37/14 202/25/14
s 7
f 194/27/15 199/186/15 203/28/16
s 1
f 200/31/1 76/187/1 77/26/1
f 77/26/1 202/25/1 263/30/1
s 8
f 76/32/17 200/38/18 193/33/18
s 2
f 197/37/2 75/24/2 74/35/2
f 74/35/2 193/84/2 262/36/2
s 8
f 200/38/18 201/40/19 195/39/19
s 7
f 201/40/20 199/186/15 194/27/15
f 203/28/16 204/42/21 198/41/21
s 6
f 204/42/22 202/25/14 197/37/14
s 9
f 209/43/23 178/188/23 73/44/23
s 10
f 212/46/24 211/50/24 208/47/24
s 11
f 206/45/25 205/51/25 210/49/25
s 12
f 211/50/26 210/49/26 205/51/26
s 14
f 216/55/27 215/189/28 213/56/28
f 207/48/29 213/60/28 215/58/28
s 15
f 73/44/30 178/188/30 216/55/30
s 16
f 73/59/1 214/190/1 213/60/1
s 13
f 215/58/2 216/191/2 178/53/2
s 2
f 169/192/2 168/9/2 83/69/2
f 83/69/2 78/66/2 174/65/2
f 170/70/2 169/192/2 83/69/2
s 4
f 74/89/31 179/92/32 180/90/32
f 179/92/32 79/13/5 258/15/5
s 5
f 82/94/9 75/24/33 77/26/33
s 1
f 218/193/1 256/75/1 219/79/1
f 258/15/1 164/72/1 162/194/1
f 258/15/1 162/194/1 261/195/1
f 260/196/1 218/193/1 219/79/1
f 157/197/1 260/196/1 219/79/1
f 180/90/1 258/15/1 261/195/1
f 180/90/1 261/195/1 163/198/1
f 157/197/1 219/79/1 77/96/1
f 217/199/1 157/197/1 77/96/1
f 77/96/1 180/90/1 163/198/1
f 77/96/1 163/198/1 257/200/1
f 159/98/1 217/199/1 77/96/1
f 77/96/1 257/200/1 161/97/1
s 17
f 278/102/1 280/153/1 321/152/1
f 278/102/1 321/152/1 284/100/1
f 286/101/1 290/149/1 278/102/1
s 18
f 301/201/2 300/142/2 271/112/2
f 274/148/2 294/108/2 291/202/2
f 274/148/2 291/202/2 292/203/2
f 302/204/2 301/201/2 271/112/2
f 302/204/2 271/112/2 304/169/2
f 267/103/2 274/148/2 292/203/2
f 267/103/2 292/203/2 293/205/2
f 302/204/2 304/169/2 267/103/2
f 303/206/2 302/204/2 267/103/2
f 267/103/2 293/205/2 298/207/2
f 267/103/2 298/207/2 297/104/2
f 299/105/2 303/206/2 267/103/2
s 19
f 275/109/3 280/208/3 278/110/4
s 20
f 271/112/5 273/115/6 324/113/6
f 273/115/6 272/209/7 279/116/7
s 19
f 279/116/8 272/209/8 270/111/4
s 21
f 320/117/9 282/120/10 276/118/10
f 282/120/10 281/122/11 277/121/11
s 19
f 281/122/12 280/208/3 275/109/3
s 22
f 267/123/13 310/136/14 315/124/14
s 23
f 307/126/15 312/210/15 316/127/16
s 17
f 313/130/1 268/211/1 269/125/1
f 269/125/1 315/124/1 328/129/1
s 24
f 268/131/17 313/137/18 306/132/18
s 18
f 310/136/2 267/123/2 266/134/2
f 266/134/2 306/161/2 327/135/2
s 24
f 313/137/18 314/139/19 308/138/19
s 23
f 314/139/20 312/210/15 307/126/15
f 316/127/16 317/141/21 311/140/21
s 22
f 317/141/22 315/124/14 310/136/14
s 18
f 295/212/2 294/108/2 275/146/2
f 275/146/2 270/143/2 300/142/2
f 296/147/2 295/212/2 275/146/2
s 20
f 266/166/31 304/169/32 305/167/32
f 304/169/32 271/112/5 323/114/5
s 21
f 274/171/9 267/123/33 269/125/33
s 17
f 319/213/1 321/152/1 320/156/1
f 323/114/1 290/149/1 288/214/1
f 323/114/1 288/214/1 326/215/1
f 325/216/1 319/213/1 320/156/1
f 283/217/1 325/216/1 320/156/1
f 305/167/1 323/114/1 326/215/1
f 305/167/1 326/215/1 289/218/1
f 283/217/1 320/156/1 269/173/1
f 318/219/1 283/217/1 269/173/1
f 269/173/1 305/167/1 289/218/1
f 269/173/1 289/218/1 322/220/1
f 285/175/1 318/219/1 269/173/1
f 269/173/1 322/220/1 287/174/1
s 25
f 438/1/2 440/2/2 366/3/2
s 26
f 355/4/1 451/5/1 453/6/1
f 364/7/1 365/8/1 448/9/1
s 27
f 363/10/34 366/11/35 358/12/35
s 28
f 359/13/36 539/14/37 538/15/36
f 361/16/37 367/17/38 539/14/37
s 27
f 367/17/39 358/12/35 366/11/35
s 29
f 499/18/40 364/19/41 362/20/40
f 370/21/41 365/22/42 364/19/41
s 27
f 369/23/43 363/10/34 365/22/43
s 30
f 355/24/44 482/25/45 357/26/44
s 31
f 474/27/46 483/28/47 476/29/47
s 25
f 357/26/2 543/30/2 480/31/2
s 32
f 356/32/48 473/33/49 354/34/48
s 26
f 354/35/1 542/36/1 477/37/1
s 32
f 480/38/49 475/39/50 473/33/49
s 31
f 481/40/51 474/27/46 475/39/51
f 483/28/47 478/41/52 476/29/47
s 30
f 484/42/53 477/37/45 478/41/53
s 33
f 489/43/54 353/44/54 486/45/54
s 34
f 492/46/55 488/47/55 487/48/55
s 35
f 486/45/56 490/49/56 489/43/56
s 36
f 491/50/57 485/51/57 488/47/57
s 37
f 491/52/1 458/53/1 490/54/1
s 38
f 496/55/58 493/56/59 494/57/58
f 487/48/60 495/58/59 492/46/60
s 39
f 353/44/61 496/55/61 494/57/61
s 40
f 353/59/2 493/60/2 487/48/2
f 353/59/2 485/61/2 486/62/2
f 488/63/2 353/59/2 487/48/2
f 485/61/2 353/59/2 488/63/2
s 37
f 490/54/1 458/53/1 489/64/1
f 458/53/1 491/52/1 492/46/1
f 495/58/1 458/53/1 492/46/1
s 26
f 454/65/1 358/66/1 360/67/1
f 360/67/1 361/68/1 454/65/1
f 359/13/1 454/65/1 361/68/1
f 363/69/1 454/65/1 450/70/1
f 448/9/1 362/71/1 364/7/1
f 448/9/1 365/8/1 363/69/1
s 25
f 366/3/2 444/72/2 367/73/2
f 367/73/2 444/72/2 539/74/2
f 536/75/2 368/76/2 369/77/2
f 370/78/2 499/79/2 536/75/2
f 369/77/2 370/78/2 536/75/2
f 444/72/2 538/15/2 539/74/2
s 26
f 477/37/1 542/36/1 478/80/1
f 478/80/1 542/36/1 476/81/1
f 476/81/1 542/36/1 474/82/1
f 475/83/1 542/36/1 473/84/1
f 474/82/1 542/36/1 475/83/1
s 25
f 480/31/2 543/30/2 481/85/2
f 483/86/2 543/30/2 484/87/2
f 484/87/2 543/30/2 482/25/2
f 481/85/2 543/30/2 479/88/2
f 479/88/2 543/30/2 483/86/2
s 28
f 354/89/62 460/90/63 356/91/62
s 26
f 355/4/1 459/92/1 354/93/1
s 28
f 459/92/63 538/15/36 460/90/63
s 29
f 362/94/40 357/26/64 499/95/40
s 25
f 357/96/2 441/97/2 439/98/2
f 460/90/2 357/96/2 356/99/2
s 41
f 564/100/2 566/101/2 558/102/2
s 42
f 547/103/1 577/104/1 579/105/1
f 556/106/1 557/107/1 574/108/1
s 43
f 555/109/34 558/110/35 550/111/35
s 44
f 551/112/36 604/113/37 603/114/36
f 553/115/37 559/116/38 604/113/37
s 43
f 559/116/39 550/111/35 558/110/35
s 45
f 600/117/40 556/118/41 554/119/40
f 562/120/41 557/121/42 556/118/41
s 43
f 561/122/43 555/109/34 557/121/43
s 46
f 547/123/44 595/124/45 549/125/44
s 47
f 587/126/46 596/127/47 589/128/47
s 41
f 549/125/2 608/129/2 593/130/2
s 48
f 548/131/48 586/132/49 546/133/48
s 42
f 546/134/1 607/135/1 590/136/1
s 48
f 593/137/49 588/138/50 586/132/49
s 47
f 594/139/51 587/126/46 588/138/51
f 596/127/47 591/140/52 589/128/47
s 46
f 597/141/53 590/136/45 591/140/53
s 42
f 580/142/1 550/143/1 552/144/1
f 552/144/1 553/145/1 580/142/1
f 551/112/1 580/142/1 553/145/1
f 555/146/1 580/142/1 576/147/1
f 574/108/1 554/148/1 556/106/1
f 574/108/1 557/107/1 555/146/1
s 41
f 558/102/2 570/149/2 559/150/2
f 559/150/2 570/149/2 604/151/2
f 601/152/2 560/153/2 561/154/2
f 562/155/2 600/156/2 601/152/2
f 561/154/2 562/155/2 601/152/2
f 570/149/2 603/114/2 604/151/2
s 42
f 590/136/1 607/135/1 591/157/1
f 591/157/1 607/135/1 589/158/1
f 589/158/1 607/135/1 587/159/1
f 588/160/1 607/135/1 586/161/1
f 587/159/1 607/135/1 588/160/1
s 41
f 593/130/2 608/129/2 594/162/2
f 596/163/2 608/129/2 597/164/2
f 597/164/2 608/129/2 595/124/2
f 594/162/2 608/129/2 592/165/2
f 592/165/2 608/129/2 596/163/2
s 44
f 546/166/62 585/167/63 548/168/62
s 42
f 547/103/1 584/169/1 546/170/1
s 44
f 584/169/63 603/114/36 585/167/63
s 45
f 554/171/40 549/125/64 600/172/40
s 41
f 549/173/2 567/174/2 565/175/2
f 585/167/2 549/173/2 548/176/2
s 25
f 366/3/2 368/76/2 536/75/2
f 366/3/2 536/75/2 438/1/2
f 440/2/2 444/72/2 366/3/2
s 26
f 455/177/1 454/65/1 359/13/1
f 362/71/1 448/9/1 445/178/1
f 362/71/1 445/178/1 446/179/1
f 456/180/1 455/177/1 359/13/1
f 456/180/1 359/13/1 459/92/1
f 355/4/1 362/71/1 446/179/1
f 355/4/1 446/179/1 447/181/1
f 456/180/1 459/92/1 355/4/1
f 457/182/1 456/180/1 355/4/1
f 355/4/1 447/181/1 452/183/1
f 355/4/1 452/183/1 451/5/1
f 453/6/1 457/182/1 355/4/1
s 27
f 363/10/34 368/184/34 366/11/35
s 28
f 359/13/36 361/16/37 539/14/37
f 361/16/37 360/185/38 367/17/38
s 27
f 367/17/39 360/185/39 358/12/35
s 29
f 499/18/40 370/21/41 364/19/41
f 370/21/41 369/23/42 365/22/42
s 27
f 369/23/43 368/184/34 363/10/34
s 30
f 355/24/44 477/37/45 482/25/45
s 31
f 474/27/46 479/186/46 483/28/47
s 25
f 480/31/2 356/187/2 357/26/2
f 357/26/2 482/25/2 543/30/2
s 32
f 356/32/48 480/38/49 473/33/49
s 26
f 477/37/1 355/24/1 354/35/1
f 354/35/1 473/84/1 542/36/1
s 32
f 480/38/49 481/40/50 475/39/50
s 31
f 481/40/51 479/186/46 474/27/46
f 483/28/47 484/42/52 478/41/52
s 30
f 484/42/53 482/25/45 477/37/45
s 33
f 489/43/54 458/188/54 353/44/54
s 34
f 492/46/55 491/50/55 488/47/55
s 35
f 486/45/56 485/51/56 490/49/56
s 36
f 491/50/57 490/49/57 485/51/57
s 38
f 496/55/58 495/189/59 493/56/59
f 487/48/60 493/60/59 495/58/59
s 39
f 353/44/61 458/188/61 496/55/61
s 40
f 353/59/2 494/190/2 493/60/2
s 37
f 495/58/1 496/191/1 458/53/1
s 26
f 449/192/1 448/9/1 363/69/1
f 363/69/1 358/66/1 454/65/1
f 450/70/1 449/192/1 363/69/1
s 28
f 354/89/62 459/92/63 460/90/63
f 459/92/63 359/13/36 538/15/36
s 29
f 362/94/40 355/24/64 357/26/64
s 25
f 498/193/2 536/75/2 499/79/2
f 538/15/2 444/72/2 442/194/2
f 538/15/2 442/194/2 541/195/2
f 540/196/2 498/193/2 499/79/2
f 437/197/2 540/196/2 499/79/2
f 460/90/2 538/15/2 541/195/2
f 460/90/2 541/195/2 443/198/2
f 437/197/2 499/79/2 357/96/2
f 497/199/2 437/197/2 357/96/2
f 357/96/2 460/90/2 443/198/2
f 357/96/2 443/198/2 537/200/2
f 439/98/2 497/199/2 357/96/2
f 357/96/2 537/200/2 441/97/2
s 41
f 558/102/2 560/153/2 601/152/2
f 558/102/2 601/152/2 564/100/2
f 566/101/2 570/149/2 558/102/2
s 42
f 581/201/1 580/142/1 551/112/1
f 554/148/1 574/108/1 571/202/1
f 554/148/1 571/202/1 572/203/1
f 582/204/1 581/201/1 551/112/1
f 582/204/1 551/112/1 584/169/1
f 547/103/1 554/148/1 572/203/1
f 547/103/1 572/203/1 573/205/1
f 582/204/1 584/169/1 547/103/1
f 583/206/1 582/204/1 547/103/1
f 547/103/1 573/205/1 578/207/1
f 547/103/1 578/207/1 577/104/1
f 579/105/1 583/206/1 547/103/1
s 43
f 555/109/34 560/208/34 558/110/35
s 44
f 551/112/36 553/115/37 604/113/37
f 553/115/37 552/209/38 559/116/38
s 43
f 559/116/39 552/209/39 550/111/35
s 45
f 600/117/40 562/120/41 556/118/41
f 562/120/41 561/122/42 557/121/42
s 43
f 561/122/43 560/208/34 555/109/34
s 46
f 547/123/44 590/136/45 595/124/45
s 47
f 587/126/46 592/210/46 596/127/47
s 41
f 593/130/2 548/211/2 549/125/2
f 549/125/2 595/124/2 608/129/2
s 48
f 548/131/48 593/137/49 586/132/49
s 42
f 590/136/1 547/123/1 546/134/1
f 546/134/1 586/161/1 607/135/1
s 48
f 593/137/49 594/139/50 588/138/50
s 47
f 594/139/51 592/210/46 587/126/46
f 596/127/47 597/141/52 591/140/52
s 46
f 597/141/53 595/124/45 590/136/45
s 42
f 575/212/1 574/108/1 555/146/1
f 555/146/1 550/143/1 580/142/1
f 576/147/1 575/212/1 555/146/1
s 44
f 546/166/62 584/169/63 585/167/63
f 584/169/63 551/112/36 603/114/36
s 45
f 554/171/40 547/123/64 549/125/64
s 41
f 599/213/2 601/152/2 600/156/2
f 603/114/2 570/149/2 568/214/2
f 603/114/2 568/214/2 606/215/2
f 605/216/2 599/213/2 600/156/2
f 563/217/2 605/216/2 600/156/2
f 585/167/2 603/114/2 606/215/2
f 585/167/2 606/215/2 569/218/2
f 563/217/2 600/156/2 549/173/2
f 598/219/2 563/217/2 549/173/2
f 549/173/2 585/167/2 569/218/2
f 549/173/2 569/218/2 602/220/2
f 565/175/2 598/219/2 549/173/2
f 549/173/2 602/220/2 567/174/2
s 49
g PataTraseraIzquierda_SpacialRoverExploreralumGray
usemtl SpacialRoverExploreralumGray
f 2/221/65 3/222/65 1/223/65
s 50
f 4/224/66 5/225/66 3/222/66
s 51
f 6/226/67 7/227/67 5/225/67
s 52
f 8/228/68 9/229/68 7/227/68
s 53
f 10/230/69 11/231/69 9/229/69
s 54
f 12/232/70 13/233/70 11/231/70
s 55
f 14/234/71 15/235/71 13/233/71
s 56
f 16/236/56 17/237/56 15/235/56
s 57
f 18/238/72 19/239/72 17/237/72
s 58
f 20/240/73 21/241/73 19/239/73
s 59
f 22/242/74 23/243/74 21/241/74
s 60
f 24/244/75 1/223/75 23/245/75
s 61
f 7/246/1 15/247/1 23/245/1
s 62
f 26/248/65 27/249/65 25/250/65
s 63
f 28/251/66 29/252/66 27/249/66
s 64
f 30/253/67 31/254/67 29/252/67
s 65
f 32/255/68 33/256/68 31/254/68
s 66
f 34/257/69 35/258/69 33/256/69
s 67
f 36/259/70 37/260/70 35/258/70
s 68
f 38/261/71 39/262/71 37/260/71
s 69
f 40/263/56 41/264/56 39/262/56
s 70
f 42/265/72 43/266/72 41/264/72
s 71
f 44/267/73 45/268/73 43/266/73
s 72
f 46/269/74 47/270/74 45/268/74
s 73
f 48/271/75 25/250/75 47/272/75
s 74
f 31/273/1 39/274/1 47/272/1
s 49
f 2/221/65 4/224/65 3/222/65
s 50
f 4/224/66 6/226/66 5/225/66
s 51
f 6/226/67 8/228/67 7/227/67
s 52
f 8/228/68 10/230/68 9/229/68
s 53
f 10/230/69 12/232/69 11/231/69
s 54
f 12/232/70 14/234/70 13/233/70
s 55
f 14/234/71 16/236/71 15/235/71
s 56
f 16/236/56 18/238/56 17/237/56
s 57
f 18/238/72 20/240/72 19/239/72
s 58
f 20/240/73 22/242/73 21/241/73
s 59
f 22/242/74 24/275/74 23/243/74
s 60
f 24/244/75 2/221/75 1/223/75
s 61
f 23/245/1 1/223/1 3/276/1
f 3/276/1 5/277/1 7/246/1
f 7/246/1 9/278/1 11/279/1
f 11/279/1 13/280/1 15/247/1
f 15/247/1 17/281/1 19/282/1
f 19/282/1 21/283/1 15/247/1
f 21/283/1 23/245/1 15/247/1
f 23/245/1 3/276/1 7/246/1
f 7/246/1 11/279/1 15/247/1
s 62
f 26/248/65 28/251/65 27/249/65
s 63
f 28/251/66 30/253/66 29/252/66
s 64
f 30/253/67 32/255/67 31/254/67
s 65
f 32/255/68 34/257/68 33/256/68
s 66
f 34/257/69 36/259/69 35/258/69
s 67
f 36/259/70 38/261/70 37/260/70
s 68
f 38/261/71 40/263/71 39/262/71
s 69
f 40/263/56 42/265/56 41/264/56
s 70
f 42/265/72 44/267/72 43/266/72
s 71
f 44/267/73 46/269/73 45/268/73
s 72
f 46/269/74 48/284/74 47/270/74
s 73
f 48/271/75 26/248/75 25/250/75
s 74
f 47/272/1 25/250/1 27/285/1
f 27/285/1 29/286/1 31/273/1
f 31/273/1 33/287/1 35/288/1
f 35/288/1 37/289/1 39/274/1
f 39/274/1 41/290/1 43/291/1
f 43/291/1 45/292/1 39/274/1
f 45/292/1 47/272/1 39/274/1
f 47/272/1 27/285/1 31/273/1
f 31/273/1 35/288/1 39/274/1
s 75
f 58/293/76 190/294/77 189/295/78
s 76
f 50/296/79 187/297/80 181/298/81
s 77
f 51/299/82 184/300/83 187/297/84
s 75
f 53/301/85 185/302/86 190/294/77
s 76
f 54/303/87 182/304/88 185/302/89
s 78
f 188/305/90 57/306/91 183/307/92
s 79
f 183/307/93 55/308/94 191/309/95
s 80
f 186/310/96 60/311/97 192/312/98
s 75
f 192/312/99 58/293/76 189/295/78
s 76
f 52/313/100 181/298/81 182/304/88
s 79
f 59/314/101 191/309/95 55/308/94
s 77
f 56/315/102 184/300/83 49/316/103
s 75
f 58/293/76 53/301/85 190/294/77
s 76
f 50/296/79 51/299/104 187/297/80
s 77
f 51/299/82 49/316/103 184/300/83
s 75
f 53/301/85 54/303/105 185/302/86
s 76
f 54/303/87 52/313/100 182/304/88
s 77
f 188/305/106 56/315/102 57/306/107
s 79
f 183/307/93 57/306/108 55/308/94
f 186/310/109 59/317/101 60/311/110
s 75
f 192/312/99 60/311/111 58/293/76
s 76
f 52/313/100 50/296/79 181/298/81
s 79
f 59/314/101 186/318/109 191/309/95
s 77
f 56/315/102 188/305/106 184/300/83
s 81
f 338/293/112 470/294/113 469/295/114
s 82
f 330/296/115 467/297/116 461/298/117
s 83
f 331/299/118 464/300/119 467/297/120
s 81
f 333/301/121 465/302/122 470/294/113
s 82
f 334/303/123 462/304/124 465/302/125
s 84
f 468/305/126 337/306/127 463/307/128
s 85
f 463/307/129 335/308/130 471/309/131
s 86
f 466/310/132 340/311/133 472/312/134
s 81
f 472/312/135 338/293/112 469/295/114
s 82
f 332/313/136 461/298/117 462/304/124
s 85
f 339/314/137 471/309/131 335/308/130
s 83
f 336/315/138 464/300/119 329/316/139
s 81
f 338/293/112 333/301/121 470/294/113
s 82
f 330/296/115 331/299/140 467/297/116
s 83
f 331/299/118 329/316/139 464/300/119
s 81
f 333/301/121 334/303/141 465/302/122
s 82
f 334/303/123 332/313/136 462/304/124
s 83
f 468/305/142 336/315/138 337/306/143
s 85
f 463/307/129 337/306/144 335/308/130
f 466/310/145 339/317/137 340/311/146
s 81
f 472/312/135 340/311/147 338/293/112
s 82
f 332/313/136 330/296/115 461/298/117
s 85
f 339/314/137 466/318/145 471/309/131
s 83
f 336/315/138 468/305/142 464/300/119
s 87
g PataTraseraIzquierda_SpacialRoverExploreralumBlack
usemtl SpacialRoverExploreralumBlack
f 188/319/148 224/320/149 184/321/150
f 192/322/151 232/323/152 186/324/153
f 185/325/154 235/326/155 222/327/156
f 191/328/157 232/329/152 228/330/158
s 88
f 225/331/159 239/332/160 221/333/159
f 227/334/161 240/335/162 226/336/163
s 89
f 228/337/164 238/338/165 227/334/165
s 90
f 234/339/166 221/333/167 220/340/168
s 91
f 223/341/169 243/342/170 237/343/171
s 90
f 222/344/172 229/345/173 241/346/172
s 92
f 232/347/174 236/348/175 228/337/176
s 93
f 237/343/177 231/349/178 233/350/178
s 91
f 223/341/169 241/346/179 242/351/180
s 90
f 235/352/181 220/340/168 229/345/173
s 88
f 226/336/163 239/332/160 224/353/182
s 92
f 233/350/183 230/354/184 232/355/174
s 87
f 183/356/185 226/357/186 188/319/148
f 183/356/185 228/330/158 227/358/187
f 187/359/188 234/360/189 181/361/190
f 185/325/154 223/362/191 190/363/192
f 189/364/193 223/362/191 237/365/194
f 192/322/151 237/365/194 233/366/195
f 181/361/190 235/326/155 182/367/196
f 187/359/188 224/320/149 225/368/197
f 188/319/148 226/357/186 224/320/149
f 192/322/151 233/366/195 232/323/152
f 185/325/154 182/367/196 235/326/155
f 191/328/157 186/369/153 232/329/152
s 88
f 225/331/159 224/353/182 239/332/160
f 227/334/161 238/338/161 240/335/162
s 92
f 228/337/176 236/348/175 238/338/165
s 90
f 234/339/166 225/331/167 221/333/167
s 91
f 223/341/169 242/351/180 243/342/170
s 90
f 222/344/172 235/352/181 229/345/173
s 92
f 232/347/174 230/370/184 236/348/175
s 91
f 237/343/171 243/342/170 231/349/178
f 223/341/169 222/344/179 241/346/179
s 90
f 235/352/181 234/339/166 220/340/168
s 88
f 226/336/163 240/335/162 239/332/160
s 92
f 233/350/183 231/349/183 230/354/184
s 87
f 183/356/185 227/358/187 226/357/186
f 183/356/185 191/328/157 228/330/158
f 187/359/188 225/368/197 234/360/189
f 185/325/154 222/327/156 223/362/191
f 189/364/193 190/363/192 223/362/191
f 192/322/151 189/364/193 237/365/194
f 181/361/190 234/360/189 235/326/155
f 187/359/188 184/321/150 224/320/149
s 94
f 468/319/198 504/320/199 464/321/200
f 472/322/201 512/323/202 466/324/203
f 465/325/204 515/326/205 502/327/206
f 471/328/207 512/329/202 508/330/208
s 95
f 505/331/209 519/332/210 501/333/211
f 507/334/212 520/335/213 506/336/214
s 96
f 508/337/215 518/338/216 507/334/216
s 97
f 514/339/217 501/333/218 500/340/219
s 98
f 503/341/220 523/342/221 517/343/222
s 97
f 502/344/223 509/345/224 521/346/223
s 99
f 512/347/225 516/348/226 508/337/227
s 100
f 517/343/228 511/349/229 513/350/229
s 98
f 503/341/220 521/346/230 522/351/231
s 97
f 515/352/232 500/340/219 509/345/224
s 95
f 506/336/214 519/332/210 504/353/233
s 99
f 513/350/234 510/354/235 512/355/225
s 94
f 463/356/236 506/357/237 468/319/198
f 463/356/236 508/330/208 507/358/238
f 467/359/239 514/360/240 461/361/241
f 465/325/204 503/362/242 470/363/243
f 469/364/244 503/362/242 517/365/245
f 472/322/201 517/365/245 513/366/246
f 461/361/241 515/326/205 462/367/247
f 467/359/239 504/320/199 505/368/248
f 468/319/198 506/357/237 504/320/199
f 472/322/201 513/366/246 512/323/202
f 465/325/204 462/367/247 515/326/205
f 471/328/207 466/369/203 512/329/202
s 95
f 505/331/209 504/353/233 519/332/210
f 507/334/212 518/338/212 520/335/213
s 99
f 508/337/227 516/348/226 518/338/216
s 97
f 514/339/217 505/331/218 501/333/218
s 98
f 503/341/220 522/351/231 523/342/221
s 97
f 502/344/223 515/352/232 509/345/224
s 99
f 512/347/225 510/370/235 516/348/226
s 98
f 517/343/222 523/342/221 511/349/229
f 503/341/220 502/344/249 521/346/230
s 97
f 515/352/232 514/339/217 500/340/219
s 95
f 506/336/214 520/335/213 519/332/210
s 99
f 513/350/234 511/349/234 510/354/235
s 94
f 463/356/236 507/358/238 506/357/237
f 463/356/236 471/328/207 508/330/208
f 467/359/239 505/368/248 514/360/240
f 465/325/204 502/327/206 503/362/242
f 469/364/244 470/363/243 503/362/242
f 472/322/201 469/364/244 517/365/245
f 461/361/241 514/360/240 515/326/205
f 467/359/239 464/321/200 504/320/199
s 101
g PataTraseraIzquierda_SpacialRoverExploreralumGrayDeep
usemtl SpacialRoverExploreralumGrayDeep
f 254/371/250 68/372/251 70/373/251
s 102
f 70/374/1 71/375/1 122/376/1
s 103
f 71/377/252 62/378/253 64/379/253
s 102
f 71/375/1 117/380/1 116/381/1
s 104
f 61/382/2 142/383/2 156/384/2
f 68/385/2 250/386/2 127/387/2
s 103
f 62/388/253 66/389/254 64/390/253
s 105
f 63/391/255 65/392/256 66/389/255
s 103
f 71/377/252 69/393/257 67/394/252
s 101
f 72/395/258 68/372/251 69/393/258
s 106
f 248/396/259 251/397/260 253/398/260
s 102
f 65/399/1 247/400/1 109/401/1
f 66/402/1 113/403/1 64/404/1
f 66/402/1 112/405/1 114/406/1
s 106
f 248/396/259 246/407/261 244/408/259
s 105
f 249/409/262 245/410/263 246/407/262
s 101
f 254/371/250 252/411/264 250/412/250
s 106
f 255/413/265 251/397/260 252/411/265
s 105
f 245/410/263 65/392/256 61/414/256
s 104
f 62/415/2 144/416/2 146/417/2
f 62/415/2 142/383/2 63/418/2
f 145/419/2 67/420/2 69/421/2
f 68/385/2 147/422/2 148/423/2
f 252/424/2 155/425/2 154/426/2
f 252/424/2 151/427/2 250/386/2
f 246/428/2 133/429/2 135/430/2
s 102
f 254/431/1 100/432/1 99/433/1
f 254/431/1 96/434/1 255/435/1
f 96/434/1 253/436/1 255/435/1
f 120/437/1 249/438/1 248/439/1
f 253/436/1 92/440/1 91/441/266
f 119/442/1 249/438/1 120/437/1
s 101
f 254/371/250 250/412/250 68/372/251
s 102
f 123/443/1 105/444/1 70/374/1
f 70/374/1 72/445/1 71/375/1
f 71/375/1 121/446/1 122/376/1
f 122/376/1 123/443/1 70/374/1
s 103
f 71/377/252 67/394/252 62/378/253
s 102
f 115/447/1 121/446/1 71/375/1
f 71/375/1 64/404/1 113/403/1
f 71/375/1 113/403/1 117/380/1
f 116/381/1 115/447/1 71/375/1
s 104
f 153/448/2 152/449/2 61/382/2
f 61/382/2 63/418/2 142/383/2
f 156/384/2 153/448/2 61/382/2
f 125/450/2 124/451/2 68/385/2
f 250/386/2 151/427/2 150/452/2
f 250/386/2 150/452/2 149/453/2
f 128/454/2 125/450/2 68/385/2
f 126/455/2 128/454/2 68/385/2
f 250/386/2 149/453/2 127/387/2
f 127/387/2 126/455/2 68/385/2
s 103
f 62/388/253 63/391/254 66/389/254
s 105
f 63/391/255 61/414/256 65/392/256
s 103
f 71/377/252 72/395/257 69/393/257
s 101
f 72/395/258 70/373/251 68/372/251
s 106
f 248/396/259 244/408/259 251/397/260
s 102
f 110/456/1 112/405/1 65/399/1
f 247/400/1 119/442/1 118/457/1
f 247/400/1 118/457/1 111/458/1
f 108/459/1 110/456/1 65/399/1
f 107/460/1 108/459/1 65/399/1
f 247/400/1 111/458/1 109/401/1
f 109/401/1 107/460/1 65/399/1
f 114/406/1 113/403/1 66/402/1
f 66/402/1 65/399/1 112/405/1
s 106
f 248/396/259 249/409/261 246/407/261
s 105
f 249/409/262 247/461/263 245/410/263
s 101
f 254/371/250 255/413/264 252/411/264
s 106
f 255/413/265 253/398/260 251/397/260
s 105
f 245/410/263 247/461/263 65/392/256
s 104
f 143/462/2 142/383/2 62/415/2
f 62/415/2 67/420/2 145/419/2
f 62/415/2 145/419/2 144/416/2
f 146/417/2 143/462/2 62/415/2
f 145/419/2 69/421/2 68/385/2
f 68/385/2 124/451/2 147/422/2
f 148/423/2 145/419/2 68/385/2
f 154/426/2 151/427/2 252/424/2
f 252/424/2 251/463/2 155/425/2
f 140/464/2 155/425/2 251/463/2
f 251/463/2 244/465/2 246/428/2
f 246/428/2 245/466/2 61/382/2
f 61/382/2 152/449/2 134/467/2
f 61/382/2 134/467/2 132/468/2
f 140/464/2 251/463/2 246/428/2
f 139/469/2 140/464/2 246/428/2
f 61/382/2 132/468/2 130/470/2
f 61/382/2 130/470/2 129/471/2
f 141/472/2 139/469/2 246/428/2
f 137/473/2 141/472/2 246/428/2
f 246/428/2 61/382/2 129/471/2
f 246/428/2 129/471/2 131/474/2
f 138/475/2 137/473/2 246/428/2
f 136/476/2 138/475/2 246/428/2
f 246/428/2 131/474/2 133/429/2
f 135/430/2 136/476/2 246/428/2
s 102
f 95/477/1 96/434/1 254/431/1
f 70/374/1 105/444/1 102/478/1
f 70/374/1 102/478/1 97/479/1
f 106/480/1 95/477/1 254/431/1
f 98/481/1 106/480/1 254/431/1
f 70/374/1 97/479/1 103/482/1
f 70/374/1 103/482/1 100/432/1
f 104/483/1 98/481/1 254/431/1
f 101/484/1 104/483/1 254/431/1
f 254/431/1 70/374/1 100/432/1
f 99/433/1 101/484/1 254/431/1
f 120/437/1 248/439/1 253/436/1
f 253/436/1 96/434/1 94/485/1
f 253/436/1 94/485/1 93/486/1
f 91/441/266 120/437/1 253/436/1
f 253/436/1 93/486/1 92/440/1
f 119/442/1 247/400/1 249/438/1
s 107
f 534/371/267 348/372/268 350/373/268
s 108
f 350/374/2 351/375/2 402/376/2
s 109
f 351/377/269 342/378/270 344/379/270
s 108
f 351/375/2 397/380/2 396/381/2
s 110
f 341/382/1 422/383/1 436/384/1
f 348/385/1 530/386/1 407/387/1
s 109
f 342/388/270 346/389/271 344/390/270
s 111
f 343/391/272 345/392/273 346/389/272
s 109
f 351/377/269 349/393/274 347/394/269
s 107
f 352/395/275 348/372/268 349/393/275
s 112
f 528/396/276 531/397/277 533/398/277
s 108
f 345/399/2 527/400/2 389/401/2
f 346/402/2 393/403/2 344/404/2
f 346/402/2 392/405/2 394/406/2
s 112
f 528/396/276 526/407/278 524/408/276
s 111
f 529/409/279 525/410/280 526/407/279
s 107
f 534/371/267 532/411/281 530/412/267
s 112
f 535/413/282 531/397/277 532/411/282
s 111
f 525/410/280 345/392/273 341/414/273
s 110
f 342/415/1 424/416/1 426/417/1
f 342/415/1 422/383/1 343/418/1
f 425/419/1 347/420/1 349/421/1
f 348/385/1 427/422/1 428/423/1
f 532/424/1 435/425/1 434/426/1
f 532/424/1 431/427/1 530/386/1
f 526/428/1 413/429/1 415/430/1
s 108
f 534/431/2 380/432/2 379/433/2
f 534/431/2 376/434/2 535/435/2
f 376/434/2 533/436/2 535/435/2
f 400/437/2 529/438/2 528/439/2
f 533/436/2 372/440/2 371/441/283
f 399/442/2 529/438/2 400/437/2
s 107
f 534/371/267 530/412/267 348/372/268
s 108
f 403/443/2 385/444/2 350/374/2
f 350/374/2 352/445/2 351/375/2
f 351/375/2 401/446/2 402/376/2
f 402/376/2 403/443/2 350/374/2
s 109
f 351/377/269 347/394/269 342/378/270
s 108
f 395/447/2 401/446/2 351/375/2
f 351/375/2 344/404/2 393/403/2
f 351/375/2 393/403/2 397/380/2
f 396/381/2 395/447/2 351/375/2
s 110
f 433/448/1 432/449/1 341/382/1
f 341/382/1 343/418/1 422/383/1
f 436/384/1 433/448/1 341/382/1
f 405/450/284 404/451/285 348/385/1
f 530/386/1 431/427/1 430/452/1
f 530/386/1 430/452/1 429/453/1
f 408/454/1 405/450/284 348/385/1
f 406/455/1 408/454/1 348/385/1
f 530/386/1 429/453/1 407/387/1
f 407/387/1 406/455/1 348/385/1
s 109
f 342/388/270 343/391/271 346/389/271
s 111
f 343/391/272 341/414/273 345/392/273
s 109
f 351/377/269 352/395/274 349/393/274
s 107
f 352/395/275 350/373/268 348/372/268
s 112
f 528/396/276 524/408/276 531/397/277
s 108
f 390/456/2 392/405/2 345/399/2
f 527/400/2 399/442/2 398/457/2
f 527/400/2 398/457/2 391/458/2
f 388/459/2 390/456/2 345/399/2
f 387/460/2 388/459/2 345/399/2
f 527/400/2 391/458/2 389/401/2
f 389/401/2 387/460/2 345/399/2
f 394/406/2 393/403/2 346/402/2
f 346/402/2 345/399/2 392/405/2
s 112
f 528/396/276 529/409/278 526/407/278
s 111
f 529/409/279 527/461/280 525/410/280
s 107
f 534/371/267 535/413/281 532/411/281
s 112
f 535/413/282 533/398/277 531/397/277
s 111
f 525/410/280 527/461/280 345/392/273
s 110
f 423/462/1 422/383/1 342/415/1
f 342/415/1 347/420/1 425/419/1
f 342/415/1 425/419/1 424/416/1
f 426/417/1 423/462/1 342/415/1
f 425/419/1 349/421/1 348/385/1
f 348/385/1 404/451/285 427/422/1
f 428/423/1 425/419/1 348/385/1
f 434/426/1 431/427/1 532/424/1
f 532/424/1 531/463/1 435/425/1
f 420/464/1 435/425/1 531/463/1
f 531/463/1 524/465/1 526/428/1
f 526/428/1 525/466/1 341/382/1
f 341/382/1 432/449/1 414/467/1
f 341/382/1 414/467/1 412/468/1
f 420/464/1 531/463/1 526/428/1
f 419/469/1 420/464/1 526/428/1
f 341/382/1 412/468/1 410/470/1
f 341/382/1 410/470/1 409/471/1
f 421/472/1 419/469/1 526/428/1
f 417/473/1 421/472/1 526/428/1
f 526/428/1 341/382/1 409/471/1
f 526/428/1 409/471/1 411/474/286
f 418/475/1 417/473/1 526/428/1
f 416/476/1 418/475/1 526/428/1
f 526/428/1 411/474/286 413/429/1
f 415/430/1 416/476/1 526/428/1
s 108
f 375/477/2 376/434/2 534/431/2
f 350/374/2 385/444/2 382/478/2
f 350/374/2 382/478/2 377/479/2
f 386/480/2 375/477/2 534/431/2
f 378/481/2 386/480/2 534/431/2
f 350/374/2 377/479/2 383/482/2
f 350/374/2 383/482/2 380/432/2
f 384/483/2 378/481/2 534/431/2
f 381/484/2 384/483/2 534/431/2
f 534/431/2 350/374/2 380/432/2
f 379/433/2 381/484/2 534/431/2
f 400/437/2 528/439/2 533/436/2
f 533/436/2 376/434/2 374/485/2
f 533/436/2 374/485/2 373/486/2
f 371/441/283 400/437/2 533/436/2
f 533/436/2 373/486/2 372/440/2
f 399/442/2 527/400/2 529/438/2
l 265 264
l 545 544
l 611 609
l 610 612
l 615 613
l 614 616
