# Blender 5.2.2 LTS
# www.blender.org
mtllib PataDelanteraDerecha.mtl
g PataDelanteraDerecha_RoverModificado.003
v 5.244676 3.418308 5.958194
v 5.268583 3.479830 5.986310
v 5.278485 3.505314 6.054193
v 5.268583 3.479830 6.122076
v 5.244676 3.418308 6.150194
v 5.220769 3.356786 6.122076
v 5.210867 3.331303 6.054193
v 5.220769 3.356786 5.986310
v 5.317595 3.366173 5.938993
v 5.317596 3.469854 5.972734
v 5.273291 3.492176 5.972734
v 5.317596 3.512799 6.054193
v 5.285174 3.522756 6.054193
v 5.317596 3.469854 6.135653
v 5.273291 3.492176 6.135653
v 5.317595 3.366173 6.169394
v 5.244603 3.418349 6.169394
v 5.317596 3.262493 6.135653
v 5.215915 3.344522 6.135653
v 5.317596 3.219548 6.054194
v 5.204032 3.313943 6.054193
v 5.317596 3.262493 5.972734
v 5.215915 3.344522 5.972734
v 5.244603 3.418349 5.938993
v 5.541370 3.080997 5.714840
v 5.541370 3.278435 5.815702
v 5.629058 3.080997 5.726385
v 5.602952 3.278435 5.823811
v 5.710769 3.080997 5.760231
v 5.660338 3.278435 5.847581
v 5.780937 3.080997 5.814072
v 5.709616 3.278435 5.885393
v 5.834779 3.080997 5.884240
v 5.747429 3.278435 5.934672
v 5.868625 3.080997 5.965953
v 5.771199 3.278435 5.992058
v 5.880170 3.080997 6.053641
v 5.779307 3.278435 6.053641
v 5.868625 3.080997 6.141328
v 5.771199 3.278435 6.115223
v 5.834779 3.080997 6.223040
v 5.747429 3.278435 6.172609
v 5.780937 3.080997 6.293208
v 5.709616 3.278435 6.221887
v 5.710769 3.080997 6.347050
v 5.660338 3.278435 6.259700
v 5.629058 3.080997 6.380896
v 5.602952 3.278435 6.283470
v 5.541370 3.080997 6.392440
v 5.541370 3.278435 6.291578
v 5.453682 3.080997 6.380896
v 5.479787 3.278435 6.283470
v 5.371970 3.080997 6.347050
v 5.422401 3.278435 6.259700
v 5.301802 3.080997 6.293208
v 5.373123 3.278435 6.221887
v 5.247960 3.080997 6.223040
v 5.315456 3.278435 6.196403
v 5.214114 3.080997 6.141328
v 5.315456 3.278435 6.127540
v 5.202570 3.080997 6.053640
v 5.315456 3.278435 6.053639
v 5.214114 3.080997 5.965953
v 5.315456 3.278435 5.979741
v 5.247960 3.080997 5.884240
v 5.315456 3.278435 5.910878
v 5.301802 3.080997 5.814073
v 5.373123 3.278435 5.885393
v 5.371969 3.080997 5.760231
v 5.422401 3.278435 5.847581
v 5.453682 3.080997 5.726384
v 5.479787 3.278435 5.823811
v 5.541370 2.990997 5.816480
v 5.602751 2.990997 5.824561
v 5.659950 2.990997 5.848253
v 5.709067 2.990997 5.885943
v 5.746756 2.990997 5.935060
v 5.770449 2.990997 5.992259
v 5.778530 2.990997 6.053640
v 5.770449 2.990997 6.115022
v 5.746756 2.990997 6.172220
v 5.709067 2.990997 6.221338
v 5.659950 2.990997 6.259027
v 5.602751 2.990997 6.282719
v 5.541370 2.990997 6.290800
v 5.479988 2.990997 6.282719
v 5.422790 2.990997 6.259027
v 5.373672 2.990997 6.221338
v 5.335983 2.990997 6.172220
v 5.312291 2.990997 6.115022
v 5.304210 2.990997 6.053640
v 5.312291 2.990997 5.992259
v 5.335983 2.990997 5.935060
v 5.373672 2.990997 5.885943
v 5.422790 2.990997 5.848253
v 5.479988 2.990997 5.824561
v 5.629058 3.278435 5.726385
v 5.541370 3.278435 5.714840
v 5.710769 3.278435 5.760231
v 5.780937 3.278435 5.814072
v 5.834779 3.278435 5.884240
v 5.868625 3.278435 5.965953
v 5.880170 3.278435 6.053641
v 5.868625 3.278435 6.141328
v 5.834779 3.278435 6.223040
v 5.780937 3.278435 6.293208
v 5.710769 3.278435 6.347050
v 5.629058 3.278435 6.380896
v 5.541370 3.278435 6.392440
v 5.453682 3.278435 6.380896
v 5.371970 3.278435 6.347050
v 5.301802 3.278435 6.293208
v 5.247960 3.278435 6.223040
v 5.214114 3.278435 6.141328
v 5.202570 3.278435 6.053639
v 5.214114 3.278435 5.965953
v 5.247960 3.278435 5.884240
v 5.301802 3.278435 5.814073
v 5.371969 3.278435 5.760231
v 5.453682 3.278435 5.726384
v 5.585709 3.608435 5.888163
v 5.541370 3.608435 5.882325
v 5.627027 3.608435 5.905277
v 5.662508 3.608435 5.932503
v 5.689733 3.608435 5.967983
v 5.706847 3.608435 6.009301
v 5.712684 3.608435 6.053639
v 5.706847 3.608435 6.097980
v 5.689733 3.608435 6.139297
v 5.662508 3.608435 6.174778
v 5.627027 3.608435 6.202003
v 5.585709 3.608435 6.219118
v 5.541370 3.608435 6.224955
v 5.497030 3.608435 6.219118
v 5.455712 3.608435 6.202003
v 5.420232 3.608435 6.174778
v 5.318711 3.608435 6.156429
v 5.318711 3.608435 6.106848
v 5.318711 3.608435 6.053639
v 5.318711 3.608435 6.000432
v 5.318711 3.608435 5.950851
v 5.420232 3.608435 5.932503
v 5.455712 3.608435 5.905277
v 5.497030 3.608435 5.888163
v 5.541370 3.478435 5.714839
v 5.541370 3.478435 6.392440
v 5.453682 3.478435 6.380896
v 5.371970 3.478435 6.347050
v 5.453682 3.478435 5.726384
v 5.371969 3.478435 5.760231
v 5.541370 3.478435 5.815702
v 5.541370 3.478435 6.291578
v 5.479787 3.478435 6.283470
v 5.422401 3.478435 6.259700
v 5.479787 3.478435 5.823811
v 5.422401 3.478435 5.847580
v 2.426167 4.178435 6.347050
v 2.426167 4.578435 6.347050
v 2.426167 4.178435 5.847580
v 2.426167 4.178435 5.760231
v 2.426167 4.578435 5.847580
v 2.426167 4.578435 5.760231
v 3.999982 3.758435 5.760231
v 3.999982 3.958435 5.760231
v 3.999982 3.758435 5.847580
v 3.999982 3.958435 5.847580
v 3.999982 3.761435 6.259700
v 3.999982 3.961435 6.259700
v 3.999982 3.961435 6.347050
v 3.999982 3.761435 6.347050
v 4.000141 3.668435 6.259700
v 4.000141 4.018435 6.347050
v 4.000141 4.018435 6.259700
v 4.000141 3.668435 6.347050
v 4.000141 3.668435 5.760231
v 4.000141 3.668435 5.847580
v 4.000141 4.018435 5.760231
v 4.000141 4.018435 5.847580
v 2.824813 4.309181 5.958194
v 2.844161 4.372971 5.986310
v 2.852175 4.399392 6.054193
v 2.844161 4.372971 6.122076
v 2.824813 4.309181 6.150194
v 2.805466 4.245393 6.122076
v 2.797452 4.218971 6.054193
v 2.805466 4.245393 5.986310
v 2.374447 4.611668 5.949655
v 2.344652 4.513433 5.906353
v 2.904841 4.275139 5.906353
v 2.386789 4.652358 6.054193
v 2.374447 4.611669 6.158731
v 2.344652 4.513433 6.202034
v 2.314857 4.415199 6.158731
v 2.302515 4.374509 6.054193
v 2.314857 4.415199 5.949655
v 2.934636 4.373373 5.949655
v 2.946978 4.414064 6.054193
v 2.934636 4.373374 6.158731
v 2.904841 4.275139 6.202034
v 2.875045 4.176906 6.158731
v 2.862704 4.136215 6.054193
v 2.875045 4.176905 5.949655
v 2.426167 4.578435 6.259700
v 2.426167 4.178435 6.259700
v 2.662263 4.101935 6.347050
v 2.662263 4.494435 6.259700
v 2.662263 4.494435 6.347050
v 2.662263 4.101935 6.259700
v 2.662263 4.101935 5.760231
v 2.662263 4.101935 5.847580
v 2.662263 4.494435 5.760231
v 2.662263 4.494435 5.847580
v 2.428527 4.175815 6.464414
v 2.428527 4.582375 6.464414
v 2.428527 4.582374 5.642868
v 2.428527 4.175813 5.642868
v 2.659902 4.098058 5.642868
v 2.659902 4.496996 6.464414
v 2.659902 4.098060 6.464414
v 2.659902 4.496996 5.642868
v 2.428527 4.550073 5.642868
v 2.426167 4.546211 5.760231
v 2.426167 4.210211 5.760231
v 2.428527 4.208562 5.642868
v 2.426167 4.546211 6.347050
v 2.428527 4.550074 6.464414
v 2.428527 4.208562 6.464414
v 2.426167 4.210211 6.347050
v 1.926187 4.546211 5.760231
v 1.826167 4.446157 5.760231
v 1.855462 4.516906 5.760231
v 1.826167 4.310222 5.760231
v 1.926187 4.210211 5.760231
v 1.855462 4.239504 5.760231
v 1.828528 4.450018 5.642868
v 1.928548 4.550073 5.642868
v 1.857823 4.520767 5.642868
v 1.928548 4.208562 5.642868
v 1.828528 4.308571 5.642868
v 1.857823 4.237854 5.642868
v 1.826167 4.446157 6.347050
v 1.926187 4.546211 6.347050
v 1.855462 4.516906 6.347050
v 1.926187 4.210211 6.347050
v 1.826167 4.310223 6.347050
v 1.855462 4.239504 6.347050
v 1.928548 4.550074 6.464414
v 1.828528 4.450018 6.464414
v 1.857823 4.520768 6.464414
v 1.828528 4.308571 6.464414
v 1.928548 4.208562 6.464414
v 1.857823 4.237854 6.464414
v 1.926187 4.378211 5.760231
v 1.928548 4.379317 5.642868
v 5.420232 3.608435 6.053639
v 2.391370 4.533703 6.259700
v 1.810899 4.533703 6.259700
v 2.388679 4.533703 5.847692
v 1.808208 4.533703 5.847692
v 1.810899 4.283167 6.259700
v 2.291371 4.283167 6.259700
v 1.808208 4.283167 5.847692
v 2.288679 4.283167 5.847692
v 2.083863 4.283167 6.164618
v 2.153863 4.283167 6.094619
v 1.934265 4.283167 6.094619
v 2.004265 4.283167 6.164618
v 2.153863 4.283167 6.024781
v 2.083863 4.283167 5.954781
v 2.004265 4.283167 5.954781
v 1.934265 4.283167 6.024781
v 2.004265 3.883167 6.164618
v 1.934265 3.883167 6.094619
v 2.153863 3.883167 6.094619
v 2.083863 3.883167 6.164618
v 1.934265 3.883167 6.024781
v 2.004265 3.883167 5.954781
v 2.083863 3.883167 5.954781
v 2.153863 3.883167 6.024781
v 2.426167 4.178435 6.347050
v 2.426167 4.578435 6.347050
v 2.426167 4.178435 5.847580
v 2.426167 4.178435 5.760231
v 2.426167 4.578435 5.847580
v 2.426167 4.578435 5.760231
v 2.426167 4.578435 6.259700
v 2.426167 4.178435 6.259700
v 1.726167 4.238435 6.347050
v 1.786167 4.178435 6.347050
v 1.743741 4.196010 6.347050
v 1.786167 4.578435 6.347050
v 1.726167 4.518435 6.347050
v 1.743741 4.560863 6.347050
v 1.726167 4.238435 5.847580
v 1.786167 4.178435 5.847580
v 1.743741 4.196009 5.847580
v 1.786167 4.178435 5.760231
v 1.726167 4.238435 5.760231
v 1.743741 4.196009 5.760231
v 1.786167 4.578435 5.847580
v 1.726167 4.518435 5.847580
v 1.743741 4.560863 5.847580
v 1.726167 4.518435 5.760231
v 1.786167 4.578435 5.760231
v 1.743741 4.560863 5.760231
v 1.726167 4.518435 6.259700
v 1.786167 4.578435 6.259700
v 1.743741 4.560863 6.259700
v 1.786167 4.178435 6.259700
v 1.726167 4.238435 6.259700
v 1.743741 4.196010 6.259700
v 1.786167 4.378436 6.259700
v 1.786167 4.378436 6.347050
v 1.786167 4.378435 5.847580
v 1.786167 4.378435 5.760231
v 2.391370 4.533703 6.259700
v 1.810899 4.533703 6.259700
v 2.388679 4.533703 5.847692
v 1.808208 4.533703 5.847692
v 1.810899 4.283167 6.259700
v 2.291371 4.283167 6.259700
v 1.808208 4.283167 5.847692
v 2.288679 4.283167 5.847692
v 2.083863 4.283167 6.164618
v 2.153863 4.283167 6.094619
v 1.934265 4.283167 6.094619
v 2.004265 4.283167 6.164618
v 2.153863 4.283167 6.024781
v 2.083863 4.283167 5.954781
v 2.004265 4.283167 5.954781
v 1.934265 4.283167 6.024781
v 2.004265 3.883167 6.164618
v 1.934265 3.883167 6.094619
v 2.153863 3.883167 6.094619
v 2.083863 3.883167 6.164618
v 1.934265 3.883167 6.024781
v 2.004265 3.883167 5.954781
v 2.083863 3.883167 5.954781
v 2.153863 3.883167 6.024781
v 2.426167 4.178435 6.347050
v 2.426167 4.578435 6.347050
v 2.426167 4.178435 5.847580
v 2.426167 4.178435 5.760231
v 2.426167 4.578435 5.847580
v 2.426167 4.578435 5.760231
v 2.426167 4.578435 6.259700
v 2.426167 4.178435 6.259700
v 1.726167 4.238435 6.347050
v 1.786167 4.178435 6.347050
v 1.743741 4.196010 6.347050
v 1.786167 4.578435 6.347050
v 1.726167 4.518435 6.347050
v 1.743741 4.560863 6.347050
v 1.726167 4.238435 5.847580
v 1.786167 4.178435 5.847580
v 1.743741 4.196009 5.847580
v 1.786167 4.178435 5.760231
v 1.726167 4.238435 5.760231
v 1.743741 4.196009 5.760231
v 1.786167 4.578435 5.847580
v 1.726167 4.518435 5.847580
v 1.743741 4.560863 5.847580
v 1.726167 4.518435 5.760231
v 1.786167 4.578435 5.760231
v 1.743741 4.560863 5.760231
v 1.726167 4.518435 6.259700
v 1.786167 4.578435 6.259700
v 1.743741 4.560863 6.259700
v 1.786167 4.178435 6.259700
v 1.726167 4.238435 6.259700
v 1.743741 4.196010 6.259700
v 1.786167 4.378436 6.259700
v 1.786167 4.378436 6.347050
v 1.786167 4.378435 5.847580
v 1.786167 4.378435 5.760231
v 5.644948 1.446609 5.389002
v 5.779732 1.446598 5.389002
v 5.694818 1.423142 5.389002
v 5.744152 1.423138 5.389002
v 5.432089 1.703036 5.389003
v 5.471127 1.574828 5.389003
v 5.419797 1.662398 5.389003
v 5.434085 1.615470 5.389003
v 5.779732 1.446598 5.197002
v 5.644948 1.446609 5.197002
v 5.744152 1.423138 5.197002
v 5.694818 1.423142 5.197002
v 5.471127 1.574828 5.197003
v 5.432089 1.703036 5.197003
v 5.434085 1.615470 5.197003
v 5.419797 1.662398 5.197003
v 5.655330 3.282832 5.113564
v 5.558421 3.342218 5.113564
v 5.447905 3.315685 5.113564
v 5.388519 3.218777 5.113564
v 5.415052 3.108260 5.113564
v 5.511960 3.048875 5.113564
v 5.622477 3.075407 5.113564
v 5.681862 3.172316 5.113564
v 6.046830 2.541891 5.389002
v 6.046830 2.541891 5.197002
v 6.394473 2.285454 5.197002
v 6.394473 2.285454 5.389002
v 6.324811 2.920868 5.389002
v 6.324811 2.920868 5.197001
v 5.648295 3.415406 5.389002
v 5.446694 3.414459 5.389003
v 5.310662 3.229005 5.389003
v 5.370314 3.036429 5.389003
v 5.292676 3.167788 5.389003
v 5.314510 3.097300 5.389003
v 5.446694 3.414459 5.197002
v 5.648295 3.415406 5.197001
v 5.370314 3.036429 5.197002
v 5.310662 3.229005 5.197002
v 5.314509 3.097300 5.197002
v 5.292676 3.167788 5.197002
v 6.455177 2.824704 5.197002
v 6.554163 2.503162 5.197002
v 6.547966 2.722962 5.197002
v 6.584198 2.605269 5.197002
v 6.554163 2.503162 5.389002
v 6.455177 2.824704 5.389002
v 6.584198 2.605269 5.389002
v 6.547966 2.722962 5.389002
v 5.655330 3.282832 5.554363
v 5.558422 3.342218 5.554363
v 5.447905 3.315685 5.554363
v 5.388519 3.218777 5.554363
v 5.415052 3.108260 5.554363
v 5.511961 3.048875 5.554363
v 5.622477 3.075408 5.554363
v 5.681862 3.172316 5.554363
v 5.541371 3.107512 6.489860
v 5.541371 3.281927 6.489860
v 5.431762 3.107512 6.475429
v 5.431762 3.281927 6.475429
v 5.329621 3.107512 6.433121
v 5.329621 3.281927 6.433121
v 5.241912 3.107512 6.365820
v 5.241912 3.281927 6.365820
v 5.174610 3.107512 6.278110
v 5.174610 3.281927 6.278110
v 5.132302 3.107512 6.175970
v 5.132302 3.281927 6.175970
v 5.117871 3.107512 6.066360
v 5.117871 3.281927 6.066360
v 5.132302 3.107512 5.956750
v 5.132302 3.281927 5.956750
v 5.174609 3.107512 5.854610
v 5.174609 3.281927 5.854609
v 5.241912 3.107512 5.766900
v 5.241912 3.281927 5.766900
v 5.329621 3.107512 5.699598
v 5.329621 3.281927 5.699598
v 5.431761 3.107512 5.657290
v 5.431761 3.281927 5.657290
v 5.541371 3.107512 5.642859
v 5.541371 3.281927 5.642859
v 5.650981 3.107512 5.657290
v 5.650981 3.281927 5.657290
v 5.753121 3.107512 5.699598
v 5.753121 3.281927 5.699598
v 5.840830 3.107512 5.766900
v 5.840830 3.281927 5.766900
v 5.908133 3.107512 5.854609
v 5.908133 3.281927 5.854609
v 5.950441 3.107512 5.956750
v 5.950441 3.281927 5.956750
v 5.964872 3.107512 6.066360
v 5.964872 3.281927 6.066360
v 5.950441 3.107512 6.175969
v 5.950441 3.281927 6.175969
v 5.908133 3.107512 6.278110
v 5.908133 3.281927 6.278110
v 5.840831 3.107512 6.365819
v 5.840831 3.281927 6.365819
v 5.753121 3.107512 6.433121
v 5.753121 3.281927 6.433121
v 5.650981 3.107512 6.475429
v 5.650981 3.281927 6.475429
v 5.868627 3.281927 6.154048
v 5.780939 3.281927 6.305928
v 5.834781 3.281927 6.235760
v 5.629059 3.281927 6.393616
v 5.710771 3.281927 6.359769
v 5.453683 3.281927 6.393616
v 5.541371 3.281927 6.405160
v 5.868627 3.281927 5.978672
v 5.780939 3.281927 5.826792
v 5.834780 3.281927 5.896960
v 5.629059 3.281927 5.739104
v 5.453683 3.281927 5.739104
v 5.541371 3.281927 5.727560
v 5.710771 3.281927 5.772951
v 5.301804 3.281927 6.305928
v 5.301803 3.281927 5.826792
v 5.202571 3.281927 6.066360
v 5.214115 3.281927 6.154048
v 5.247962 3.281927 5.896960
v 5.214115 3.281927 5.978672
v 5.247962 3.281927 6.235760
v 5.880171 3.281927 6.066360
v 5.371971 3.281927 5.772951
v 5.371971 3.281927 6.359770
v 5.541371 3.107512 6.405160
v 5.371971 3.107512 6.359770
v 5.453683 3.107512 6.393616
v 5.214115 3.107512 6.154048
v 5.247962 3.107512 6.235760
v 5.202571 3.107512 6.066360
v 5.301804 3.107512 6.305928
v 5.710771 3.107512 5.772951
v 5.541371 3.107512 5.727560
v 5.629059 3.107512 5.739104
v 5.371971 3.107512 5.772951
v 5.453683 3.107512 5.739104
v 5.247962 3.107512 5.896960
v 5.301803 3.107512 5.826792
v 5.880171 3.107512 6.066360
v 5.868627 3.107512 5.978672
v 5.868627 3.107512 6.154048
v 5.710771 3.107512 6.359769
v 5.780939 3.107512 6.305928
v 5.834780 3.107512 5.896960
v 5.834781 3.107512 6.235760
v 5.780939 3.107512 5.826792
v 5.214115 3.107512 5.978672
v 5.629059 3.107512 6.393616
v 5.431761 3.107512 5.552480
v 5.431761 3.281927 5.552480
v 5.541371 3.107512 5.552480
v 5.541371 3.281927 5.552480
v 5.650981 3.107512 5.552480
v 5.650981 3.281927 5.552480
v 5.809333 1.532449 5.197002
v 5.882538 1.605654 5.197002
v 5.909333 1.705654 5.197002
v 5.882538 1.805654 5.197002
v 5.509334 1.705654 5.197003
v 5.536129 1.805654 5.197003
v 5.609334 1.878859 5.197002
v 5.536129 1.605654 5.197003
v 5.609334 1.532449 5.197002
v 5.809333 1.878860 5.197002
v 5.753497 1.517488 5.197002
v 5.709334 1.905655 5.197002
v 5.709334 1.505654 5.197002
v 5.882538 1.605654 5.389002
v 5.536129 1.805654 5.389002
v 5.709334 1.905655 5.389002
v 5.609334 1.878859 5.389002
v 5.709334 1.505654 5.389002
v 5.809333 1.532449 5.389002
v 5.725169 1.509898 5.389002
v 5.909333 1.705654 5.389002
v 5.509334 1.705654 5.389002
v 5.809333 1.878860 5.389002
v 5.536129 1.605654 5.389002
v 5.609334 1.532449 5.389002
v 5.625169 1.528206 5.389002
v 5.882538 1.805654 5.389002
v 5.509304 3.225918 5.389002
v 5.509304 3.225918 5.197001
v 4.612820 2.159352 6.650001
v 4.723712 2.366816 6.650001
v 4.612820 2.159352 6.650001
v 4.723712 2.366816 6.650001
vn -0.4804 0.1605 0.8622
vn -0.2029 0.1582 0.9663
vn -0.4016 0.1140 0.9087
vn 0.1716 -0.7487 -0.6403
vn -0.0000 -0.7487 -0.6629
vn -0.0000 -1.0000 -0.0000
vn -0.0000 -0.7487 0.6629
vn -0.1716 -0.7487 0.6403
vn -0.6629 -0.7487 -0.0000
vn -0.6403 -0.7487 0.1716
vn -0.1716 -0.7487 -0.6403
vn -0.3315 -0.7487 -0.5741
vn 0.6403 -0.7487 -0.1716
vn 0.6629 -0.7487 -0.0000
vn 0.3315 -0.7487 0.5741
vn 0.1716 -0.7487 0.6403
vn -0.5741 -0.7487 0.3315
vn -0.4688 -0.7487 0.4688
vn -0.4688 -0.7487 -0.4688
vn -0.5741 -0.7487 -0.3315
vn 0.5741 -0.7487 -0.3315
vn 0.4688 -0.7487 -0.4688
vn 0.4688 -0.7487 0.4688
vn 0.5741 -0.7487 0.3315
vn -0.3315 -0.7487 0.5741
vn -0.6403 -0.7487 -0.1716
vn 0.3315 -0.7487 -0.5741
vn 0.6403 -0.7487 0.1716
vn -0.2588 -0.0000 -0.9659
vn -0.1305 -0.0000 -0.9914
vn -0.0438 -0.0000 -0.9990
vn -0.0000 1.0000 -0.0000
vn -0.2588 -0.0000 0.9659
vn -0.1761 -0.0000 0.9844
vn -0.3723 -0.0000 0.9281
vn 0.1305 -0.0000 0.9914
vn 0.2588 -0.0000 0.9659
vn 0.8489 0.1979 0.4901
vn 0.6931 0.1979 0.6931
vn -0.2537 0.1979 -0.9468
vn -0.0000 0.1979 -0.9802
vn 0.4901 0.1979 -0.8489
vn 0.2537 0.1979 -0.9468
vn -1.0000 0.0099 -0.0000
vn 0.4901 0.1979 0.8489
vn 0.6931 0.1979 -0.6931
vn 0.2537 0.1979 0.9468
vn 0.8489 0.1979 -0.4901
vn -0.0000 0.1979 0.9802
vn 0.9468 0.1979 -0.2537
vn -0.2537 0.1979 0.9468
vn 0.9802 0.1979 -0.0000
vn -0.4804 0.1605 -0.8622
vn -0.2029 0.1582 -0.9663
vn -0.4069 0.1858 -0.8944
vn -0.4901 0.1979 0.8489
vn 0.9468 0.1979 0.2537
vn -0.4901 0.1979 -0.8489
vn -0.4069 0.1858 0.8944
vn 0.1246 0.9896 0.0720
vn 0.1239 0.9897 -0.0715
vn 0.1886 0.9764 -0.1056
vn 0.2588 -0.0000 -0.9659
vn 0.1305 -0.0000 -0.9914
vn 0.2177 -0.0000 -0.9760
vn -0.0438 -0.0000 0.9990
vn 0.1767 -0.0000 0.9843
vn 0.2176 -0.0000 0.9760
vn -0.3722 -0.0000 -0.9282
vn 1.0000 -0.0000 -0.0000
vn 0.9998 -0.0000 0.0201
vn -0.0000 -0.0000 -1.0000
vn -0.3082 -0.9513 -0.0000
vn -0.3082 -0.9513 0.0075
vn -0.3107 -0.9505 0.0104
vn 0.3352 0.9421 -0.0000
vn 0.3391 0.9406 0.0157
vn 0.3391 0.9406 -0.0158
vn 0.3382 0.9409 -0.0206
vn 0.3352 0.9421 -0.0046
vn -0.3082 -0.9513 -0.0075
vn -0.0000 -0.0000 1.0000
vn 0.3298 0.9440 -0.0074
vn -0.3150 -0.9326 0.1763
vn -0.3298 -0.9440 0.0071
vn -0.3302 -0.9439 -0.0000
vn -0.1762 -0.0000 -0.9844
vn 0.1897 0.9761 0.1062
vn 0.3317 0.9434 0.0071
vn 0.3321 0.9433 -0.0000
vn -0.3167 -0.9318 -0.1773
vn -0.3317 -0.9434 -0.0075
vn -0.3161 -0.9310 -0.1825
vn 0.1767 -0.0000 -0.9843
vn -0.3107 -0.9505 -0.0104
vn 0.3382 0.9409 0.0206
vn 0.3459 0.9375 0.0384
vn -0.3111 -0.9502 0.0214
vn -0.3183 -0.9472 0.0377
vn 0.9998 -0.0000 -0.0201
vn -0.3111 -0.9502 -0.0214
vn -0.9998 -0.0000 0.0201
vn -0.9998 -0.0000 -0.0201
vn -0.0000 0.9995 -0.0329
vn -0.1919 0.9810 -0.0284
vn -0.0000 0.9995 0.0329
vn -0.1919 0.9810 0.0284
vn -0.1983 0.9797 0.0282
vn -0.0000 -0.9999 0.0140
vn -0.1923 -0.9813 0.0099
vn -0.0000 -0.9999 -0.0140
vn -0.1923 -0.9813 -0.0099
vn -0.1978 -0.9802 -0.0098
vn -0.9802 -0.1972 0.0169
vn -0.9816 0.1906 0.0135
vn -0.9811 -0.1929 0.0170
vn -0.9816 0.1906 -0.0135
vn -0.9802 -0.1972 -0.0169
vn -0.9811 -0.1929 -0.0170
vn -0.3827 0.9236 0.0227
vn -0.9239 0.3826 -0.0060
vn -0.9798 0.1994 -0.0132
vn -0.9238 -0.3827 -0.0132
vn -0.3826 -0.9239 0.0053
vn -0.1978 -0.9802 0.0098
vn -0.3827 -0.9239 0.0053
vn -0.9798 0.1994 0.0132
vn -0.9239 0.3826 0.0060
vn -0.3827 0.9236 -0.0227
vn -0.1983 0.9797 -0.0283
vn -0.3826 -0.9239 -0.0053
vn -0.3827 -0.9239 -0.0053
vn -0.9238 -0.3827 0.0132
vn -0.4016 0.1140 -0.9087
vn -0.1305 -0.0000 0.9914
vn 0.3352 0.9421 0.0046
vn 0.3459 0.9375 -0.0384
vn 0.3391 0.9406 -0.0157
vn 0.1762 -0.0000 0.9844
vn 0.1889 0.9763 -0.1054
vn 0.3302 0.9439 -0.0000
vn 0.3298 0.9440 -0.0071
vn -0.3144 -0.9318 0.1815
vn -0.3167 -0.9319 -0.1770
vn -0.3321 -0.9433 -0.0000
vn -0.3317 -0.9434 -0.0071
vn -0.1758 -0.0000 0.9844
vn -0.3183 -0.9472 -0.0377
vn -0.1345 -0.3653 -0.9211
vn -0.1353 -0.3678 -0.9200
vn -0.1353 -0.3679 -0.9200
vn -0.3199 -0.8696 -0.3762
vn -0.3202 -0.8706 -0.3736
vn -0.3202 -0.8706 -0.3735
vn -0.3202 -0.8706 0.3736
vn -0.3199 -0.8696 0.3762
vn -0.3202 -0.8706 0.3735
vn -0.1353 -0.3678 0.9200
vn -0.1345 -0.3653 0.9211
vn -0.1353 -0.3679 0.9200
vn 0.1354 0.3678 0.9200
vn 0.1346 0.3653 0.9211
vn 0.3207 0.8704 0.3736
vn 0.3204 0.8694 0.3762
vn 0.3207 0.8704 0.3735
vn 0.3204 0.8694 -0.3762
vn 0.3207 0.8704 -0.3736
vn 0.3207 0.8704 -0.3735
vn 0.1346 0.3653 -0.9211
vn 0.1354 0.3678 -0.9200
vn -1.0000 -0.0000 0.0065
vn 0.9287 -0.3707 -0.0061
vn -1.0000 -0.0000 -0.0000
vn -0.7071 -0.0000 -0.7071
vn -0.7071 -0.0000 0.7071
vn 0.7071 -0.0000 0.7071
vn 0.7071 -0.0000 -0.7071
vn -0.9239 -0.3827 -0.0000
vn -0.3827 -0.9239 -0.0000
vn -0.9239 0.3827 -0.0000
vn -0.3827 0.9239 -0.0000
vn -0.1345 -0.3652 -0.9211
vn -0.3199 -0.8695 -0.3762
vn -0.3199 -0.8695 0.3762
vn 0.1345 0.3652 0.9211
vn 0.1345 0.3652 -0.9211
vn -0.5000 -0.0000 0.8660
vn -0.8660 -0.0000 0.5000
vn -0.9659 -0.0000 0.2588
vn -0.9659 -0.0000 -0.2588
vn -0.8660 -0.0000 -0.5000
vn -0.5000 -0.0000 -0.8660
vn -0.3827 -0.0000 -0.9239
vn 0.3827 -0.0000 -0.9239
vn 0.5000 -0.0000 -0.8660
vn 0.8660 -0.0000 -0.5000
vn 0.9659 -0.0000 -0.2588
vn 0.9659 -0.0000 0.2588
vn 0.8660 -0.0000 0.5000
vn 0.5000 -0.0000 0.8660
vn 0.0005 1.0000 -0.0000
vn -0.0000 0.9999 -0.0148
vn -0.0000 0.9998 0.0221
vn -0.0000 -0.9999 0.0144
vn 0.0002 -0.9999 -0.0156
vn 0.5860 0.1714 0.7920
vn 0.3346 -0.4632 0.8207
vn 0.1436 -0.9279 0.3442
vn 0.1436 -0.9279 -0.3442
vn 0.3346 -0.4632 -0.8207
vn -0.9310 0.3651 0.0030
vn -0.9305 0.3663 -0.0000
vn -0.9321 0.3622 -0.0043
vn -0.9310 0.3651 -0.0030
vn -0.9332 0.3593 -0.0030
vn -0.9337 0.3581 -0.0000
vn -0.9321 0.3622 0.0043
vn -0.9332 0.3593 0.0031
vn -0.9332 0.3593 -0.0031
vn -0.9332 0.3593 0.0030
vn -0.2382 -0.3139 -0.9191
vn -0.2389 -0.3113 -0.9198
vn -0.2422 -0.3003 -0.9226
vn -0.5885 -0.7215 -0.3648
vn -0.5903 -0.7174 -0.3699
vn -0.5924 -0.7127 -0.3757
vn -0.5903 -0.7174 0.3700
vn -0.5885 -0.7215 0.3648
vn -0.5924 -0.7127 0.3757
vn -0.2389 -0.3113 0.9198
vn -0.2382 -0.3139 0.9191
vn -0.2422 -0.3002 0.9226
vn 0.1945 0.3296 0.9239
vn 0.2043 0.3172 0.9261
vn 0.2160 0.3022 0.9285
vn 0.3157 0.8647 0.3906
vn 0.3775 0.8279 0.4149
vn 0.4071 0.8080 0.4260
vn 0.3775 0.8279 -0.4149
vn 0.3154 0.8649 -0.3905
vn 0.4071 0.8080 -0.4260
vn 0.2043 0.3172 -0.9261
vn 0.1945 0.3296 -0.9239
vn 0.2160 0.3022 -0.9285
vn 0.1529 0.3594 -0.9206
vn 0.3629 0.8531 -0.3749
vn 0.3629 0.8531 0.3749
vn 0.1529 0.3594 0.9206
vn -0.1529 -0.3594 0.9206
vn -0.3629 -0.8531 0.3749
vn -0.3629 -0.8531 -0.3749
vn -0.1529 -0.3594 -0.9206
vn 0.7449 0.5873 0.3165
vn 0.7449 0.5873 -0.3165
vn 0.7449 0.5873 -0.3166
vn 0.5860 0.1714 -0.7920
vn -0.2341 -0.3274 -0.9154
vn -0.5862 -0.7266 -0.3583
vn -0.5903 -0.7174 0.3699
vn -0.5862 -0.7266 0.3583
vn -0.2341 -0.3274 0.9154
vn 0.1770 0.3514 0.9193
vn 0.3154 0.8649 0.3905
vn 0.2724 0.8870 0.3727
vn 0.3772 0.8280 0.4148
vn 0.2724 0.8870 -0.3727
vn 0.1770 0.3514 -0.9193
vn -0.8947 0.4467 -0.0000
vn -0.8066 0.5911 -0.0000
vn -0.5122 -0.8589 -0.0000
vn -0.6696 -0.7428 -0.0000
vn 0.6894 -0.7244 -0.0000
vn 0.5505 -0.8349 -0.0000
vn -0.0001 -1.0000 -0.0000
vn -0.2182 -0.9759 -0.0000
vn -0.9572 0.2895 -0.0000
vn -0.9566 -0.2913 -0.0000
vn -0.8691 -0.4946 -0.0000
vn -0.8692 -0.4945 -0.0000
vn 0.5225 0.8526 -0.0000
vn -0.2334 0.9724 -0.0000
vn -0.8526 0.5225 -0.0000
vn -0.9724 -0.2334 -0.0000
vn -0.5225 -0.8526 -0.0000
vn 0.2334 -0.9724 -0.0000
vn 0.8526 -0.5225 -0.0000
vn 0.9724 0.2334 -0.0000
vn -0.5901 -0.8073 -0.0000
vn -0.6669 -0.7452 -0.0000
vn 0.8065 -0.5913 -0.0000
vn 0.6694 0.7429 -0.0000
vn 0.5919 0.8060 -0.0000
vn 0.5901 0.8073 -0.0000
vn -0.8964 0.4433 -0.0000
vn -0.8063 0.5915 -0.0000
vn -0.8672 -0.4979 -0.0000
vn -0.9552 -0.2959 -0.0000
vn -0.9594 0.2819 -0.0000
vn 0.6695 0.7429 -0.0000
vn 0.8683 0.4960 -0.0000
vn 0.9557 0.2942 -0.0000
vn 0.9594 -0.2822 -0.0000
vn 0.8963 -0.4435 -0.0000
vn -0.0047 1.0000 -0.0000
vn 0.0001 -0.0002 -1.0000
vt 0.158491 0.932821
vt 0.236822 0.926542
vt 0.164577 0.949018
vt 0.141144 0.497956
vt 0.170140 0.518034
vt 0.139172 0.518034
vt 0.272475 0.481245
vt 0.260245 0.574143
vt 0.185908 0.517102
vt 0.314867 0.591543
vt 0.282148 0.578375
vt 0.293126 0.569490
vt 0.202555 0.613260
vt 0.228006 0.588844
vt 0.221839 0.619191
vt 0.141144 0.538112
vt 0.175607 0.545607
vt 0.146983 0.557424
vt 0.184794 0.432376
vt 0.214508 0.451376
vt 0.202075 0.458074
vt 0.281333 0.422434
vt 0.282148 0.457693
vt 0.269652 0.451114
vt 0.241907 0.621258
vt 0.256115 0.588977
vt 0.261994 0.619382
vt 0.156467 0.575230
vt 0.191182 0.569006
vt 0.169233 0.590852
vt 0.169233 0.445217
vt 0.182246 0.477997
vt 0.156467 0.460838
vt 0.261994 0.416686
vt 0.242054 0.445777
vt 0.241907 0.414810
vt 0.281333 0.613634
vt 0.299185 0.604235
vt 0.184794 0.603692
vt 0.214508 0.584692
vt 0.171520 0.532089
vt 0.175607 0.490462
vt 0.171520 0.503980
vt 0.202555 0.422808
vt 0.228006 0.447224
vt 0.299184 0.431833
vt 0.293126 0.466578
vt 0.242054 0.590291
vt 0.182246 0.558071
vt 0.191182 0.467062
vt 0.256115 0.447091
vt 0.269652 0.584954
vt 0.202075 0.577995
vt 0.146983 0.478645
vt 0.221839 0.416877
vt 0.355951 0.674789
vt 0.331741 0.729534
vt 0.331741 0.674789
vt 0.292802 0.853465
vt 0.265293 0.845822
vt 0.281298 0.833540
vt 0.272936 0.873331
vt 0.281561 0.862091
vt 0.267514 0.886421
vt 0.253011 0.861828
vt 0.265665 0.900469
vt 0.245291 0.880467
vt 0.245290 0.920471
vt 0.242657 0.900469
vt 0.272936 0.927606
vt 0.267514 0.914516
vt 0.265293 0.955115
vt 0.253011 0.939110
vt 0.281561 0.938847
vt 0.281298 0.967397
vt 0.356133 0.729666
vt 0.380343 0.674921
vt 0.380343 0.729666
vt 0.303026 0.871163
vt 0.283061 0.895406
vt 0.287456 0.870483
vt 0.322059 0.870992
vt 0.305232 0.896374
vt 0.346583 0.881324
vt 0.326898 0.891571
vt 0.331314 0.859962
vt 0.362945 0.866331
vt 0.351179 0.836287
vt 0.341247 0.848124
vt 0.360434 0.825257
vt 0.374868 0.847615
vt 0.382510 0.804279
vt 0.381542 0.826450
vt 0.353925 0.791268
vt 0.357298 0.806484
vt 0.304133 0.674789
vt 0.287130 0.729534
vt 0.287130 0.674789
vt 0.137404 0.836450
vt 0.214768 0.843977
vt 0.138260 0.850593
vt 0.162255 0.712532
vt 0.228028 0.753951
vt 0.156678 0.725557
vt 0.147576 0.752382
vt 0.224503 0.763524
vt 0.221476 0.773266
vt 0.169701 0.961063
vt 0.240512 0.935215
vt 0.215908 0.854115
vt 0.139844 0.864672
vt 0.144077 0.766112
vt 0.218956 0.783151
vt 0.175200 0.973990
vt 0.244471 0.944522
vt 0.217571 0.864180
vt 0.142154 0.878651
vt 0.141291 0.780004
vt 0.216950 0.793154
vt 0.248430 0.953829
vt 0.180699 0.986916
vt 0.219752 0.874145
vt 0.145183 0.892492
vt 0.139226 0.794021
vt 0.215464 0.803246
vt 0.252120 0.962501
vt 0.185823 0.998961
vt 0.148922 0.906158
vt 0.222444 0.883985
vt 0.214500 0.813402
vt 0.137888 0.808126
vt 0.175388 0.687433
vt 0.252120 0.704389
vt 0.241500 0.726502
vt 0.153362 0.919613
vt 0.225641 0.893672
vt 0.214062 0.823594
vt 0.137280 0.822282
vt 0.236539 0.735416
vt 0.168497 0.699813
vt 0.229334 0.903182
vt 0.214152 0.833795
vt 0.232044 0.744574
vt 0.151780 0.738852
vt 0.296054 0.819148
vt 0.237437 0.785305
vt 0.256976 0.751463
vt 0.352529 0.647548
vt 0.331923 0.674921
vt 0.335527 0.647548
vt 0.368952 0.643148
vt 0.356133 0.674921
vt 0.368770 0.761307
vt 0.355951 0.729534
vt 0.379336 0.735800
vt 0.335345 0.756907
vt 0.352347 0.756907
vt 0.287312 0.729666
vt 0.304315 0.674921
vt 0.304315 0.729666
vt 0.270310 0.729666
vt 0.287312 0.674921
vt 0.331923 0.729666
vt 0.270128 0.729534
vt 0.270128 0.674789
vt 0.380161 0.674789
vt 0.304133 0.729534
vt 0.956039 0.781802
vt 0.893884 0.852332
vt 0.932111 0.769751
vt 0.890865 0.898939
vt 0.857526 0.982512
vt 0.833885 0.894386
vt 0.319939 0.846194
vt 0.299937 0.825820
vt 0.319939 0.823187
vt 0.305892 0.848043
vt 0.292802 0.947472
vt 0.305892 0.952894
vt 0.319939 0.954743
vt 0.299937 0.975117
vt 0.319939 0.977751
vt 0.933060 0.769976
vt 0.879378 0.743141
vt 0.935547 0.750207
vt 0.895048 0.851037
vt 0.836230 0.865353
vt 0.838153 0.845521
vt 0.835472 0.874525
vt 0.892452 0.879077
vt 0.937430 0.723339
vt 0.878987 0.736985
vt 0.881155 0.717178
vt 0.876891 0.762910
vt 0.027237 0.272773
vt 0.355043 0.316332
vt 0.012606 0.315985
vt 0.038157 0.252523
vt 0.369674 0.273121
vt 0.023486 0.336257
vt 0.355043 0.336257
vt 0.038551 0.379319
vt 0.370109 0.379319
vt 0.039338 0.273096
vt 0.371101 0.252831
vt 0.371122 0.272756
vt 0.024232 0.316144
vt 0.356037 0.335729
vt 0.013381 0.336432
vt 0.356017 0.315804
vt 0.028138 0.379600
vt 0.370794 0.378897
vt 0.324265 0.104617
vt 0.404101 0.124543
vt 0.324265 0.124542
vt 0.404102 0.106439
vt 0.324265 0.126364
vt 0.324265 0.106439
vt 0.030359 0.208893
vt 0.000348 0.124541
vt 0.030359 0.020265
vt 0.351027 0.029399
vt 0.351594 0.009483
vt 0.030927 0.000348
vt 0.000348 0.104616
vt 0.030359 0.022088
vt 0.351026 0.031221
vt 0.000348 0.106440
vt 0.351594 0.221499
vt 0.030359 0.210717
vt 0.351027 0.201582
vt 0.000348 0.126365
vt 0.835720 0.899164
vt 0.889841 0.897450
vt 0.912984 0.985458
vt 0.589710 0.208842
vt 0.475662 0.169892
vt 0.475662 0.130942
vt 0.833846 0.892038
vt 0.883411 0.716663
vt 0.938656 0.723597
vt 0.938656 0.977793
vt 0.915886 0.891205
vt 0.935261 0.743146
vt 0.876765 0.763676
vt 0.830450 0.847439
vt 0.837807 0.847835
vt 0.826533 0.891137
vt 0.876003 0.715704
vt 0.869336 0.762890
vt 0.873627 0.770455
vt 0.588812 0.132482
vt 0.475302 0.105696
vt 0.589350 0.105696
vt 0.589171 0.104156
vt 0.475123 0.104156
vt 0.589171 0.027512
vt 0.475662 0.000739
vt 0.589710 0.000738
vt 0.588811 0.001021
vt 0.475302 0.027795
vt 0.474763 0.001022
vt 0.440380 0.027718
vt 0.408834 0.001132
vt 0.439841 0.000945
vt 0.458631 0.202443
vt 0.451948 0.155304
vt 0.474764 0.132481
vt 0.459169 0.099011
vt 0.452487 0.050608
vt 0.409194 0.027402
vt 0.440740 0.000816
vt 0.440201 0.027590
vt 0.374265 0.027129
vt 0.391010 0.000424
vt 0.391728 0.027205
vt 0.408476 0.000620
vt 0.457662 0.027580
vt 0.458200 0.000806
vt 0.475123 0.027512
vt 0.408116 0.027914
vt 0.391369 0.001329
vt 0.390650 0.028110
vt 0.373906 0.001405
vt 0.457840 0.027728
vt 0.457302 0.000954
vt 0.475123 0.065834
vt 0.458990 0.034194
vt 0.452308 0.081333
vt 0.458990 0.097471
vt 0.452308 0.050325
vt 0.459529 0.137626
vt 0.452846 0.153764
vt 0.459529 0.202160
vt 0.475662 0.208842
vt 0.452846 0.186029
vt 0.304147 0.812937
vt 0.327305 0.795419
vt 0.327305 0.804844
vt 0.327305 0.785305
vt 0.304147 0.785305
vt 0.327305 0.775191
vt 0.304147 0.757673
vt 0.327305 0.765766
vt 0.189563 0.503461
vt 0.196624 0.491231
vt 0.206610 0.481245
vt 0.218840 0.474184
vt 0.232481 0.470528
vt 0.246604 0.470528
vt 0.260245 0.474183
vt 0.282461 0.491230
vt 0.289522 0.503461
vt 0.293177 0.517102
vt 0.293177 0.531224
vt 0.289522 0.544865
vt 0.282461 0.557095
vt 0.272475 0.567081
vt 0.246604 0.577798
vt 0.232482 0.577798
vt 0.218841 0.574143
vt 0.206610 0.567081
vt 0.196624 0.557095
vt 0.189563 0.544865
vt 0.185908 0.531224
vt 0.314867 0.444525
vt 0.377707 0.782613
vt 0.183637 0.672223
vt 0.266401 0.747559
vt 0.276515 0.746227
vt 0.286629 0.747559
vt 0.296054 0.751463
vt 0.286629 0.823051
vt 0.276515 0.824383
vt 0.266401 0.823051
vt 0.256976 0.819147
vt 0.248883 0.812937
vt 0.242673 0.804844
vt 0.238769 0.795419
vt 0.238769 0.775191
vt 0.242673 0.765766
vt 0.248883 0.757673
vt 0.379518 0.668655
vt 0.270310 0.674921
vt 0.380161 0.729534
vt 0.918428 0.863051
vt 0.914063 0.985413
vt 0.893125 0.870869
vt 0.369714 0.253196
vt 0.028445 0.252831
vt 0.404101 0.104618
vt 0.404102 0.126364
vt 0.351026 0.199760
vt 0.030927 0.230633
vt 0.857431 0.981727
vt 0.855531 0.974503
vt 0.589710 0.130942
vt 0.828132 0.874130
vt 0.828935 0.864453
vt 0.872190 0.742210
vt 0.871778 0.736223
vt 0.840903 0.841148
vt 0.589350 0.027795
vt 0.588811 0.209125
vt 0.474764 0.209125
vt 0.451948 0.186312
vt 0.458631 0.139166
vt 0.452487 0.082873
vt 0.459169 0.034477
vt 0.373547 0.000348
vt 0.373188 0.028186
vt 0.071802 0.403474
vt 0.085879 0.981510
vt 0.072027 0.979730
vt 0.057838 0.403204
vt 0.058079 0.978995
vt 0.044131 0.979741
vt 0.030281 0.981533
vt 0.043874 0.403485
vt 0.016430 0.983325
vt 0.029923 0.404157
vt 0.113680 0.984027
vt 0.127630 0.404792
vt 0.127630 0.983289
vt 0.099703 0.404793
vt 0.099731 0.983290
vt 0.085753 0.404133
vt 0.984733 0.357220
vt 0.961131 0.475824
vt 0.961131 0.357220
vt 0.616959 0.323785
vt 0.553909 0.274002
vt 0.638455 0.290060
vt 0.735649 0.249787
vt 0.703948 0.185710
vt 0.755537 0.218417
vt 0.684060 0.217080
vt 0.668548 0.356492
vt 0.690044 0.322768
vt 0.828763 0.357220
vt 0.808055 0.475824
vt 0.808055 0.357220
vt 0.704386 0.019305
vt 0.725304 0.082156
vt 0.659530 0.105997
vt 0.931778 0.357220
vt 0.911070 0.475824
vt 0.911070 0.357220
vt 0.881717 0.357220
vt 0.881717 0.475824
vt 0.858115 0.475824
vt 0.828762 0.475824
vt 0.778702 0.357220
vt 0.778702 0.475824
vt 0.858116 0.357220
vt 0.997191 0.332046
vt 0.780315 0.302446
vt 0.997191 0.302446
vt 0.780315 0.234672
vt 0.997191 0.137298
vt 0.780315 0.137298
vt 0.780315 0.069524
vt 0.996757 0.332673
vt 0.779881 0.303073
vt 0.996758 0.303073
vt 0.996758 0.167525
vt 0.779881 0.137925
vt 0.996758 0.137925
vt 0.997191 0.166898
vt 0.654309 0.137298
vt 0.749192 0.166898
vt 0.654309 0.166898
vt 0.653875 0.167525
vt 0.748758 0.137925
vt 0.748758 0.167525
vt 0.764320 0.332673
vt 0.748758 0.303073
vt 0.764320 0.303073
vt 0.749192 0.302446
vt 0.764754 0.332046
vt 0.749192 0.332046
vt 0.764754 0.302446
vt 0.780315 0.332046
vt 0.764320 0.167525
vt 0.764320 0.137925
vt 0.779881 0.167525
vt 0.780315 0.166898
vt 0.764754 0.137298
vt 0.764754 0.166898
vt 0.749192 0.137298
vt 0.779881 0.070151
vt 0.779881 0.332673
vt 0.765504 0.173480
vt 0.779881 0.235299
vt 0.779881 0.002377
vt 0.765504 0.008333
vt 0.765504 0.297118
vt 0.759549 0.282741
vt 0.759549 0.187857
vt 0.759549 0.022710
vt 0.759549 0.117593
vt 0.765504 0.131970
vt 0.780315 0.001750
vt 0.765938 0.007705
vt 0.759983 0.022082
vt 0.765938 0.131343
vt 0.759983 0.116966
vt 0.765938 0.172853
vt 0.759983 0.187230
vt 0.765938 0.296490
vt 0.759983 0.282114
vt 0.740296 0.392630
vt 0.710143 0.414319
vt 0.630014 0.416402
vt 0.578425 0.383695
vt 0.610616 0.382179
vt 0.607502 0.367837
vt 0.613886 0.357912
vt 0.628228 0.354798
vt 0.636936 0.360398
vt 0.619324 0.387780
vt 0.640050 0.374741
vt 0.633666 0.384666
vt 0.997191 0.001750
vt 0.653875 0.137925
vt 0.748758 0.332673
vt 0.996758 0.002377
vt 0.015973 0.404828
vt 0.113666 0.405066
vt 0.984733 0.475824
vt 0.546978 0.310493
vt 0.638612 0.085079
vt 0.638612 0.043146
vt 0.662453 0.019305
vt 0.725304 0.040223
vt 0.701463 0.105997
vt 0.931778 0.475824
vt 0.504430 0.564988
vt 0.464329 0.590407
vt 0.464329 0.564988
vt 0.504430 0.590407
vt 0.464329 0.615825
vt 0.504430 0.615825
vt 0.464329 0.641244
vt 0.504430 0.641244
vt 0.464329 0.666662
vt 0.504430 0.666662
vt 0.464329 0.692080
vt 0.464185 0.841407
vt 0.504286 0.815989
vt 0.504286 0.841407
vt 0.464185 0.815989
vt 0.504286 0.790571
vt 0.464185 0.790571
vt 0.504286 0.765152
vt 0.464185 0.765152
vt 0.504286 0.739734
vt 0.464185 0.739734
vt 0.504286 0.714316
vt 0.464185 0.714316
vt 0.504286 0.688897
vt 0.795896 0.719174
vt 0.759757 0.722508
vt 0.779633 0.702785
vt 0.799510 0.683062
vt 0.818369 0.702067
vt 0.504430 0.285387
vt 0.464329 0.310805
vt 0.464329 0.285387
vt 0.504430 0.310805
vt 0.464329 0.336223
vt 0.504430 0.336223
vt 0.464329 0.361642
vt 0.504430 0.361642
vt 0.464329 0.387060
vt 0.504430 0.387060
vt 0.464329 0.412479
vt 0.504430 0.412479
vt 0.464329 0.437897
vt 0.504430 0.437897
vt 0.464329 0.463315
vt 0.504430 0.463315
vt 0.464329 0.488734
vt 0.504430 0.488734
vt 0.464329 0.514152
vt 0.955567 0.641979
vt 0.951869 0.621353
vt 0.955553 0.607604
vt 0.833918 0.609383
vt 0.860001 0.546413
vt 0.851117 0.579621
vt 0.504430 0.514152
vt 0.464329 0.539570
vt 0.504430 0.539570
vt 0.838231 0.627323
vt 0.847128 0.559748
vt 0.847141 0.594123
vt 0.964171 0.575157
vt 0.955275 0.642732
vt 0.955261 0.608357
vt 0.724516 0.790003
vt 0.688378 0.793337
vt 0.708254 0.773614
vt 0.831137 0.651678
vt 0.849996 0.670684
vt 0.746989 0.772897
vt 0.778617 0.741513
vt 0.728130 0.753891
vt 0.504430 0.692080
vt 0.464185 0.688897
vt 0.955553 0.593370
vt 0.969068 0.591590
vt 0.969068 0.609383
vt 0.964463 0.626570
vt 0.942986 0.654560
vt 0.934687 0.643746
vt 0.944752 0.633680
vt 0.922360 0.650863
vt 0.927576 0.663457
vt 0.910390 0.668062
vt 0.892597 0.668062
vt 0.875410 0.663457
vt 0.860001 0.654560
vt 0.847420 0.641979
vt 0.838524 0.626570
vt 0.833918 0.591590
vt 0.838523 0.574404
vt 0.847420 0.558995
vt 0.875410 0.537517
vt 0.892597 0.532912
vt 0.910390 0.532912
vt 0.927576 0.537517
vt 0.942985 0.546413
vt 0.955567 0.558995
vt 0.964463 0.574404
vt 0.951869 0.579620
vt 0.944752 0.567293
vt 0.908611 0.654547
vt 0.894376 0.654547
vt 0.934687 0.557228
vt 0.880627 0.650863
vt 0.922360 0.550111
vt 0.908611 0.546427
vt 0.868300 0.643746
vt 0.858235 0.633680
vt 0.894376 0.546427
vt 0.851117 0.621353
vt 0.880627 0.550111
vt 0.868300 0.557228
vt 0.847433 0.607604
vt 0.847433 0.593370
vt 0.858235 0.567293
vt 0.847141 0.608357
vt 0.850825 0.622106
vt 0.833626 0.610136
vt 0.833626 0.592343
vt 0.838231 0.575157
vt 0.857942 0.568046
vt 0.850825 0.580373
vt 0.868007 0.557981
vt 0.859709 0.547166
vt 0.875118 0.538270
vt 0.892305 0.533665
vt 0.910097 0.533665
vt 0.927284 0.538270
vt 0.942693 0.547166
vt 0.955275 0.559748
vt 0.968776 0.592343
vt 0.968776 0.610136
vt 0.964171 0.627323
vt 0.942693 0.655313
vt 0.927284 0.664210
vt 0.910098 0.668815
vt 0.892305 0.668815
vt 0.875118 0.664210
vt 0.859709 0.655313
vt 0.847128 0.642732
vt 0.857942 0.634433
vt 0.868008 0.644498
vt 0.880335 0.550864
vt 0.894084 0.547180
vt 0.880335 0.651616
vt 0.908318 0.547180
vt 0.894084 0.655300
vt 0.908318 0.655300
vt 0.922067 0.550864
vt 0.934395 0.557981
vt 0.922068 0.651616
vt 0.944460 0.568046
vt 0.934395 0.644498
vt 0.944460 0.634433
vt 0.951577 0.580373
vt 0.955261 0.594123
vt 0.951577 0.622106
vt 0.707237 0.812343
vt 0.568572 0.944563
vt 0.537280 0.956369
vt 0.553971 0.936334
vt 0.520480 0.936775
vt 0.543062 0.923611
vt 0.511467 0.912589
vt 0.537210 0.907906
vt 0.537156 0.891146
vt 0.511384 0.886778
vt 0.616123 0.936055
vt 0.649618 0.936193
vt 0.632994 0.955938
vt 0.153748 0.658318
vt 0.140500 0.649839
vt 0.143872 0.648442
vt 0.153748 0.624599
vt 0.140500 0.633079
vt 0.152351 0.621227
vt 0.167715 0.624599
vt 0.180963 0.633078
vt 0.177591 0.634475
vt 0.167715 0.658318
vt 0.180963 0.649839
vt 0.169112 0.661690
vt 0.152351 0.661690
vt 0.143872 0.634475
vt 0.169112 0.621227
vt 0.177591 0.648442
vt 0.294410 0.628061
vt 0.316404 0.638658
vt 0.303163 0.654603
vt 0.278832 0.634244
vt 0.288540 0.664224
vt 0.271053 0.665000
vt 0.250979 0.659843
vt 0.262587 0.638365
vt 0.359108 0.604284
vt 0.366040 0.585149
vt 0.379236 0.599341
vt 0.343253 0.611702
vt 0.352748 0.595358
vt 0.324403 0.613094
vt 0.329650 0.622718
vt 0.309410 0.620584
vt 0.348497 0.964209
vt 0.511384 0.938399
vt 0.511184 0.964209
vt 0.348697 0.938399
vt 0.348697 0.886778
vt 0.820237 0.989670
vt 0.657349 0.963860
vt 0.820037 0.963860
vt 0.657149 0.938050
vt 0.819836 0.938050
vt 0.657066 0.912240
vt 0.819753 0.912240
vt 0.819836 0.886429
vt 0.348296 0.990018
vt 0.510984 0.990018
vt 0.585097 0.947359
vt 0.559766 0.969040
vt 0.610623 0.968811
vt 0.585214 0.973346
vt 0.601597 0.944414
vt 0.626918 0.923233
vt 0.246051 0.641100
vt 0.339204 0.605230
vt 0.348780 0.912589
vt 0.657549 0.989670
vt 0.657149 0.886429
vt 0.994327 0.817174
vt 0.962802 0.831297
vt 0.962802 0.817174
vt 0.994327 0.831297
vt 0.962802 0.845419
vt 0.994327 0.845419
vt 0.962802 0.859541
vt 0.994327 0.859541
vt 0.962802 0.873664
vt 0.994327 0.873664
vt 0.962802 0.887786
vt 0.994327 0.887786
vt 0.962802 0.901908
vt 0.994327 0.901908
vt 0.962802 0.916030
vt 0.994327 0.916030
vt 0.962802 0.930153
vt 0.994327 0.930153
vt 0.962802 0.944275
vt 0.994327 0.944275
vt 0.962802 0.958397
vt 0.994327 0.958397
vt 0.962802 0.972519
vt 0.994327 0.972519
vt 0.962802 0.986642
vt 0.994327 0.647707
vt 0.962802 0.661830
vt 0.962802 0.647707
vt 0.994327 0.661830
vt 0.962802 0.675952
vt 0.994327 0.675952
vt 0.962802 0.690074
vt 0.994327 0.690074
vt 0.962802 0.704196
vt 0.994327 0.704196
vt 0.962802 0.718319
vt 0.994327 0.718319
vt 0.962802 0.732441
vt 0.994327 0.732441
vt 0.962802 0.746563
vt 0.994327 0.746563
vt 0.962802 0.760685
vt 0.994327 0.760685
vt 0.962802 0.774808
vt 0.994327 0.774808
vt 0.962802 0.788930
vt 0.994327 0.788930
vt 0.962802 0.803052
vt 0.994327 0.803052
vt 0.994327 0.986642
vt 0.412781 0.600293
vt 0.447115 0.786267
vt 0.412781 0.786267
vt 0.655773 0.769248
vt 0.646465 0.757291
vt 0.653842 0.756864
vt 0.731026 0.608897
vt 0.683109 0.715848
vt 0.673987 0.702396
vt 0.447115 0.535471
vt 0.412781 0.574095
vt 0.412781 0.535471
vt 0.643519 0.862347
vt 0.640886 0.850941
vt 0.652371 0.847264
vt 0.638652 0.850460
vt 0.636639 0.862785
vt 0.631443 0.859817
vt 0.447115 0.509172
vt 0.412781 0.516793
vt 0.412781 0.509172
vt 0.447115 0.516793
vt 0.412781 0.525615
vt 0.447115 0.525615
vt 0.447115 0.592701
vt 0.447115 0.600293
vt 0.412781 0.592701
vt 0.447115 0.583929
vt 0.412781 0.583929
vt 0.447115 0.574095
vt 0.604933 0.568400
vt 0.531964 0.587214
vt 0.531964 0.568400
vt 0.604933 0.606029
vt 0.531964 0.606029
vt 0.604933 0.455512
vt 0.531964 0.474327
vt 0.531964 0.455512
vt 0.604933 0.474327
vt 0.531964 0.493141
vt 0.604933 0.493142
vt 0.531964 0.511956
vt 0.604933 0.530771
vt 0.531964 0.530771
vt 0.511274 0.852424
vt 0.531804 0.802859
vt 0.581370 0.823389
vt 0.531964 0.549585
vt 0.604933 0.549585
vt 0.446973 0.265650
vt 0.412640 0.415503
vt 0.412640 0.265650
vt 0.412781 0.323198
vt 0.516590 0.709155
vt 0.588510 0.712864
vt 0.521473 0.722452
vt 0.446973 0.710876
vt 0.412639 0.681908
vt 0.446973 0.681908
vt 0.805523 0.631494
vt 0.813393 0.617237
vt 0.446973 0.532055
vt 0.640043 0.501669
vt 0.673401 0.488912
vt 0.646361 0.512610
vt 0.412640 0.454875
vt 0.446973 0.496004
vt 0.412640 0.496003
vt 0.446973 0.415503
vt 0.412640 0.430270
vt 0.446973 0.430270
vt 0.412640 0.443465
vt 0.446973 0.443465
vt 0.683182 0.623136
vt 0.680900 0.632689
vt 0.653904 0.617314
vt 0.412639 0.710876
vt 0.446973 0.735500
vt 0.412639 0.735500
vt 0.504567 0.258512
vt 0.465328 0.283679
vt 0.465328 0.258512
vt 0.447115 0.255884
vt 0.412781 0.274916
vt 0.412781 0.255884
vt 0.447115 0.323198
vt 0.560146 0.874505
vt 0.510580 0.853974
vt 0.531111 0.804409
vt 0.412640 0.532055
vt 0.649216 0.771736
vt 0.641330 0.769962
vt 0.627564 0.754032
vt 0.640055 0.747382
vt 0.634379 0.759821
vt 0.634272 0.764472
vt 0.622654 0.736008
vt 0.631608 0.749796
vt 0.520371 0.693207
vt 0.544588 0.749966
vt 0.811881 0.598457
vt 0.801392 0.580184
vt 0.531802 0.678883
vt 0.548273 0.664970
vt 0.774456 0.658721
vt 0.785106 0.561500
vt 0.609810 0.717537
vt 0.606566 0.723398
vt 0.607213 0.731110
vt 0.611576 0.738613
vt 0.624670 0.800397
vt 0.615122 0.810734
vt 0.664035 0.836051
vt 0.677533 0.822068
vt 0.679490 0.827514
vt 0.650242 0.858669
vt 0.654518 0.846571
vt 0.677874 0.834002
vt 0.673119 0.839797
vt 0.680257 0.615164
vt 0.660567 0.591726
vt 0.674022 0.641261
vt 0.633785 0.593367
vt 0.670297 0.458675
vt 0.700442 0.465214
vt 0.643833 0.481869
vt 0.639117 0.490417
vt 0.621807 0.719660
vt 0.663229 0.756133
vt 0.677342 0.746414
vt 0.629223 0.705049
vt 0.642943 0.696077
vt 0.684312 0.731957
vt 0.659321 0.695108
vt 0.604933 0.587214
vt 0.604933 0.511956
vt 0.581370 0.852424
vt 0.560839 0.872955
vt 0.531804 0.872955
vt 0.511274 0.823389
vt 0.560839 0.802859
vt 0.446973 0.454875
vt 0.504567 0.283679
vt 0.447115 0.274916
vt 0.560146 0.804409
vt 0.580676 0.824939
vt 0.580676 0.853974
vt 0.531111 0.874505
vt 0.510580 0.824939
vt 0.667001 0.822261
vt 0.662613 0.808774
vt 0.626831 0.847723
vt 0.616099 0.837617
vt 0.652068 0.799233
vt 0.612012 0.824374
vt 0.638180 0.796150
s 1
g off
g PataDelanteraDerecha_SpacialRoverExploreralumWhite
usemtl SpacialRoverExploreralumWhite
f 56/1/1 137/2/2 58/3/3
s 2
f 27/4/4 73/5/5 25/6/5
s 3
f 80/7/6 88/8/6 96/9/6
s 2
f 49/10/7 86/11/8 85/12/7
f 61/13/9 90/14/10 59/15/10
f 71/16/11 95/17/12 69/18/12
f 35/19/13 79/20/14 78/21/13
f 45/22/15 84/23/16 83/24/15
f 57/25/17 88/26/18 55/27/18
f 67/28/19 93/29/20 65/30/20
f 33/31/21 76/32/22 31/33/22
f 43/34/23 81/35/24 41/36/24
f 53/37/25 86/11/8 51/38/8
f 63/39/26 91/40/9 61/13/9
f 25/6/5 96/41/11 71/16/11
f 27/4/4 75/42/27 74/43/4
f 37/44/14 80/45/28 79/20/14
f 47/46/16 85/47/7 84/23/16
f 57/25/17 90/14/10 89/48/17
f 67/28/19 95/17/12 94/49/19
f 33/31/21 78/21/13 77/50/21
f 43/34/23 83/24/15 82/51/23
f 53/37/25 88/26/18 87/52/25
f 65/30/20 92/53/26 63/39/26
f 31/33/22 75/42/27 29/54/27
f 39/55/28 81/35/24 80/45/28
s 4
f 120/56/29 145/57/30 98/58/31
s 5
f 30/59/32 100/60/32 99/61/32
f 34/62/32 100/60/32 32/63/32
f 36/64/32 101/65/32 34/62/32
f 38/66/32 102/67/32 36/64/32
f 38/66/32 104/68/32 103/69/32
f 42/70/32 104/68/32 40/71/32
f 42/70/32 106/72/32 105/73/32
f 44/74/32 107/75/32 106/72/32
s 4
f 110/76/33 148/77/34 111/78/35
s 6
f 56/79/32 111/80/32 54/81/32
f 58/82/32 112/83/32 56/79/32
f 58/82/32 114/84/32 113/85/32
f 60/86/32 115/87/32 114/84/32
f 64/88/32 115/87/32 62/89/32
f 66/90/32 116/91/32 64/88/32
f 66/90/32 118/92/32 117/93/32
f 70/94/32 118/92/32 68/95/32
s 7
f 26/96/36 155/97/37 72/98/37
s 1
f 42/99/38 130/100/39 44/101/39
f 72/102/40 122/103/41 26/104/41
f 30/105/42 121/106/43 123/107/42
s 8
f 60/108/44 137/2/44 138/109/44
s 1
f 44/101/39 131/110/45 46/111/45
f 32/112/46 123/107/42 124/113/46
s 8
f 62/114/44 138/109/44 139/115/44
s 1
f 46/111/45 132/116/47 48/117/47
f 34/118/48 124/113/46 125/119/48
s 8
f 62/114/44 140/120/44 64/121/44
s 1
f 48/117/47 133/122/49 50/123/49
f 36/124/50 125/119/48 126/125/50
s 8
f 64/121/44 141/126/44 66/127/44
s 1
f 52/128/51 133/122/49 134/129/51
f 36/124/50 127/130/52 38/131/52
f 68/132/53 141/133/54 142/134/55
f 54/135/56 134/129/51 135/136/56
f 38/131/52 128/137/57 40/138/57
f 68/132/53 143/139/58 70/140/58
f 56/1/1 135/136/56 136/141/59
f 40/138/57 129/142/38 42/99/38
f 70/140/58 144/143/40 72/102/40
f 28/144/43 122/103/41 121/106/43
s 9
f 135/145/32 127/146/32 123/147/32
s 10
f 153/148/32 146/149/32 152/150/32
f 154/151/60 147/152/32 153/148/32
s 11
f 156/153/61 149/154/32 150/155/62
f 151/156/32 149/154/32 155/157/32
s 12
f 52/158/63 152/159/64 50/160/64
f 54/161/65 153/162/63 52/158/63
s 4
f 109/163/66 147/152/33 110/76/33
s 7
f 72/98/37 156/164/67 70/165/68
s 4
f 119/166/69 149/154/29 120/56/29
s 13
f 98/58/70 151/167/70 26/96/70
s 14
f 205/168/71 218/169/71 219/170/71
s 15
f 206/171/72 204/172/72 203/173/72
s 16
f 109/163/70 152/159/70 146/149/70
s 5
f 26/174/32 97/175/32 98/176/32
f 26/174/32 28/177/32 97/175/32
f 107/75/32 46/178/32 48/179/32
f 28/177/32 30/59/32 99/61/32
f 28/177/32 99/61/32 97/175/32
f 50/180/32 108/181/32 48/179/32
f 109/182/32 108/181/32 50/180/32
f 108/181/32 107/75/32 48/179/32
s 17
f 210/183/73 160/184/74 209/185/75
s 18
f 212/186/76 162/187/77 161/188/76
s 19
f 158/189/78 218/169/79 207/190/80
s 20
f 208/191/73 157/192/81 204/193/73
s 21
f 212/186/82 159/194/82 210/183/82
s 19
f 206/171/76 158/189/78 207/190/80
s 7
f 156/195/67 165/196/82 70/197/68
s 11
f 150/198/62 166/199/83 156/195/61
s 22
f 119/200/84 165/196/85 163/201/86
s 4
f 150/202/87 163/201/72 164/203/72
s 10
f 148/204/88 168/205/89 169/206/90
s 23
f 111/207/91 167/208/92 54/209/93
s 4
f 148/204/34 170/210/82 111/207/35
s 12
f 154/211/94 167/208/72 168/212/72
s 24
f 172/213/70 171/214/70 173/215/70
s 25
f 176/216/70 177/217/70 178/218/70
s 15
f 173/215/72 208/219/72 206/220/72
s 26
f 172/213/82 205/221/82 174/222/82
s 20
f 171/223/73 205/221/95 208/224/73
s 19
f 172/213/76 206/220/76 207/225/80
s 21
f 178/218/82 210/226/82 176/227/82
s 18
f 177/217/76 212/228/76 178/218/76
s 17
f 176/229/73 209/230/75 175/231/73
s 27
f 177/217/72 209/230/72 211/232/72
s 28
f 221/233/72 220/234/72 217/235/72
f 224/236/72 254/237/72 236/238/72
s 18
f 162/187/77 220/234/96 215/239/97
s 17
f 209/185/75 216/240/98 217/241/99
s 29
f 209/242/100 220/234/100 211/243/100
s 20
f 205/244/95 213/245/101 157/192/81
s 30
f 158/189/102 226/246/102 214/247/102
s 31
f 221/248/103 162/187/103 215/239/103
s 32
f 160/184/103 224/249/103 216/240/103
s 33
f 227/250/102 157/192/102 213/245/102
s 34
f 227/251/82 219/170/82 218/169/82
s 35
f 225/252/104 247/253/105 226/254/104
s 36
f 222/255/106 236/238/107 229/256/108
s 37
f 223/257/109 238/258/110 224/259/109
s 38
f 228/260/111 251/261/112 244/262/113
s 39
f 250/263/114 241/264/115 245/265/116
s 40
f 246/266/72 241/267/72 242/268/72
s 34
f 249/269/82 250/270/82 251/261/82
s 41
f 230/271/117 239/272/118 232/273/119
s 36
f 229/274/108 237/275/120 231/276/120
s 41
f 231/276/121 235/277/122 230/271/117
f 239/272/118 234/278/123 232/273/119
s 37
f 240/279/124 233/280/125 234/278/126
s 39
f 248/281/127 243/282/128 241/264/115
s 35
f 249/283/129 242/284/130 243/282/129
s 38
f 244/262/113 252/285/131 246/286/132
s 39
f 246/286/133 250/263/114 245/265/116
s 42
f 222/255/82 253/287/82 233/280/82
f 233/280/82 253/287/82 234/288/82
f 230/289/82 253/287/82 231/290/82
f 231/290/82 253/287/82 229/256/82
f 234/288/82 253/287/82 232/291/82
f 232/291/82 253/287/82 230/289/82
s 28
f 236/238/72 254/237/72 237/292/72
f 237/292/72 254/237/72 235/293/72
f 240/294/72 254/237/72 238/295/72
f 235/293/72 254/237/72 239/296/72
f 239/296/72 254/237/72 240/294/72
s 9
f 136/297/32 138/298/32 137/299/32
f 139/300/32 255/301/32 140/302/32
f 140/302/32 142/303/32 141/304/32
f 138/298/32 255/301/32 139/300/32
s 1
f 56/1/1 136/141/59 137/2/2
s 2
f 27/4/4 74/43/4 73/5/5
s 3
f 96/9/6 73/305/6 74/306/6
f 74/306/6 75/307/6 76/308/6
f 76/308/6 77/309/6 78/310/6
f 78/310/6 79/311/6 80/7/6
f 80/7/6 81/312/6 82/313/6
f 82/313/6 83/314/6 84/315/6
f 84/315/6 85/316/6 86/317/6
f 86/317/6 87/318/6 88/8/6
f 88/8/6 89/319/6 90/320/6
f 90/320/6 91/321/6 92/322/6
f 92/322/6 93/323/6 94/324/6
f 94/324/6 95/325/6 96/9/6
f 96/9/6 74/306/6 76/308/6
f 76/308/6 78/310/6 80/7/6
f 80/7/6 82/313/6 84/315/6
f 84/315/6 86/317/6 88/8/6
f 88/8/6 90/320/6 92/322/6
f 92/322/6 94/324/6 96/9/6
f 96/9/6 76/308/6 80/7/6
f 80/7/6 84/315/6 88/8/6
f 88/8/6 92/322/6 96/9/6
s 2
f 49/10/7 51/38/8 86/11/8
f 61/13/9 91/40/9 90/14/10
f 71/16/11 96/41/11 95/17/12
f 35/19/13 37/44/14 79/20/14
f 45/22/15 47/46/16 84/23/16
f 57/25/17 89/48/17 88/26/18
f 67/28/19 94/49/19 93/29/20
f 33/31/21 77/50/21 76/32/22
f 43/34/23 82/51/23 81/35/24
f 53/37/25 87/52/25 86/11/8
f 63/39/26 92/53/26 91/40/9
f 25/6/5 73/5/5 96/41/11
f 27/4/4 29/54/27 75/42/27
f 37/44/14 39/55/28 80/45/28
f 47/46/16 49/326/7 85/47/7
f 57/25/17 59/15/10 90/14/10
f 67/28/19 69/18/12 95/17/12
f 33/31/21 35/19/13 78/21/13
f 43/34/23 45/22/15 83/24/15
f 53/37/25 55/27/18 88/26/18
f 65/30/20 93/29/20 92/53/26
f 31/33/22 76/32/22 75/42/27
f 39/55/28 41/36/24 81/35/24
s 4
f 120/56/29 149/154/29 145/57/30
s 5
f 30/59/32 32/63/32 100/60/32
f 34/62/32 101/65/32 100/60/32
f 36/64/32 102/67/32 101/65/32
f 38/66/32 103/69/32 102/67/32
f 38/66/32 40/71/32 104/68/32
f 42/70/32 105/73/32 104/68/32
f 42/70/32 44/74/32 106/72/32
f 44/74/32 46/178/32 107/75/32
s 4
f 110/76/33 147/152/33 148/77/34
s 6
f 56/79/32 112/83/32 111/80/32
f 58/82/32 113/85/32 112/83/32
f 58/82/32 60/86/32 114/84/32
f 60/86/32 62/89/32 115/87/32
f 64/88/32 116/91/32 115/87/32
f 66/90/32 117/93/32 116/91/32
f 66/90/32 68/95/32 118/92/32
f 70/94/32 119/327/32 118/92/32
s 7
f 26/96/36 151/167/36 155/97/37
s 1
f 42/99/38 129/142/38 130/100/39
f 72/102/40 144/143/40 122/103/41
f 30/105/42 28/144/43 121/106/43
s 8
f 60/108/44 58/3/44 137/2/44
s 1
f 44/101/39 130/100/39 131/110/45
f 32/112/46 30/105/42 123/107/42
s 8
f 62/114/44 60/108/44 138/109/44
s 1
f 46/111/45 131/110/45 132/116/47
f 34/118/48 32/112/46 124/113/46
s 8
f 62/114/44 139/115/44 140/120/44
s 1
f 48/117/47 132/116/47 133/122/49
f 36/124/50 34/118/48 125/119/48
s 8
f 64/121/44 140/120/44 141/126/44
s 1
f 52/128/51 50/123/49 133/122/49
f 36/124/50 126/125/50 127/130/52
f 68/132/53 66/328/134 141/133/54
f 54/135/56 52/128/51 134/129/51
f 38/131/52 127/130/52 128/137/57
f 68/132/53 142/134/55 143/139/58
f 56/1/1 54/135/56 135/136/56
f 40/138/57 128/137/57 129/142/38
f 70/140/58 143/139/58 144/143/40
f 28/144/43 26/104/41 122/103/41
s 9
f 123/147/32 121/329/32 122/330/32
f 122/330/32 144/331/32 143/332/32
f 143/332/32 142/303/32 255/301/32
f 255/301/32 136/297/32 135/145/32
f 135/145/32 134/333/32 133/334/32
f 133/334/32 132/335/32 131/336/32
f 131/336/32 130/337/32 129/338/32
f 129/338/32 128/339/32 127/146/32
f 127/146/32 126/340/32 125/341/32
f 125/341/32 124/342/32 123/147/32
f 123/147/32 122/330/32 143/332/32
f 143/332/32 255/301/32 135/145/32
f 135/145/32 133/334/32 131/336/32
f 131/336/32 129/338/32 127/146/32
f 127/146/32 125/341/32 123/147/32
f 123/147/32 143/332/32 135/145/32
f 135/145/32 131/336/32 127/146/32
s 10
f 153/148/32 147/152/32 146/149/32
f 154/151/60 148/343/88 147/152/32
s 11
f 156/153/61 155/157/32 149/154/32
f 151/156/32 145/57/32 149/154/32
s 12
f 52/158/63 153/162/63 152/159/64
f 54/161/65 154/344/94 153/162/63
s 4
f 109/163/66 146/149/135 147/152/33
s 7
f 72/98/37 155/97/37 156/164/67
s 4
f 119/166/69 150/345/87 149/154/29
s 13
f 98/58/70 145/57/70 151/167/70
s 14
f 205/168/71 207/346/71 218/169/71
s 15
f 206/171/72 208/347/72 204/172/72
s 16
f 109/163/70 50/160/70 152/159/70
s 43
f 210/183/73 159/194/73 160/184/74
s 18
f 212/186/76 211/348/136 162/187/77
s 19
f 158/189/78 214/247/137 218/169/79
s 20
f 208/191/73 205/244/95 157/192/81
s 44
f 212/186/82 161/188/82 159/194/82
s 45
f 206/171/76 203/173/76 158/189/138
s 46
f 156/195/139 166/199/82 165/196/82
s 47
f 150/198/140 164/349/141 166/199/142
s 22
f 119/200/84 70/197/143 165/196/85
s 4
f 150/202/87 119/200/69 163/201/72
s 10
f 148/204/88 154/350/60 168/205/89
s 48
f 111/207/144 170/210/145 167/208/146
s 49
f 148/204/147 169/206/82 170/210/82
s 12
f 154/211/94 54/209/65 167/208/72
s 24
f 172/213/70 174/351/70 171/214/70
s 25
f 176/216/70 175/352/70 177/217/70
s 15
f 173/215/72 171/353/72 208/219/72
s 26
f 172/213/82 207/225/82 205/221/82
s 20
f 171/223/73 174/222/73 205/221/95
s 19
f 172/213/76 173/215/76 206/220/76
s 21
f 178/218/82 212/228/82 210/226/82
s 18
f 177/217/76 211/232/136 212/228/76
s 17
f 176/229/73 210/354/73 209/230/75
s 27
f 177/217/72 175/231/72 209/230/72
s 28
f 217/235/72 216/355/72 224/356/72
f 221/233/72 215/239/72 220/234/72
f 217/235/72 224/356/72 221/233/72
f 236/238/72 221/357/72 224/236/72
f 224/236/72 238/295/72 254/237/72
s 18
f 162/187/77 211/348/136 220/234/96
s 17
f 209/185/75 160/184/74 216/240/98
s 29
f 209/242/100 217/235/100 220/234/100
s 20
f 205/244/95 219/170/148 213/245/101
s 30
f 158/189/102 225/358/102 226/246/102
s 50
f 221/248/103 222/359/103 162/187/103
s 32
f 160/184/103 223/360/103 224/249/103
s 51
f 227/250/102 228/361/102 157/192/102
s 34
f 218/169/82 214/247/82 226/362/82
f 227/251/82 213/245/82 219/170/82
f 218/169/82 226/362/82 227/251/82
s 35
f 225/252/104 242/268/130 247/253/105
s 36
f 222/255/106 221/357/106 236/238/107
s 37
f 223/257/109 233/280/125 238/258/110
s 38
f 228/260/111 227/363/111 251/261/112
s 39
f 250/263/114 248/281/127 241/264/115
s 52
f 242/268/72 225/252/72 228/364/72
s 40
f 228/364/72 244/365/72 246/266/72
f 246/266/72 245/366/72 241/267/72
f 241/267/72 243/367/72 242/268/72
f 242/268/72 228/364/72 246/266/72
s 34
f 251/261/82 227/363/82 226/254/82
f 226/254/82 247/253/82 249/269/82
f 249/269/82 248/368/82 250/270/82
f 250/270/82 252/369/82 251/261/82
f 251/261/82 226/254/82 249/269/82
s 41
f 230/271/117 235/277/122 239/272/118
s 36
f 229/274/108 236/370/107 237/275/120
s 41
f 231/276/121 237/275/121 235/277/122
f 239/272/118 240/279/123 234/278/123
s 37
f 240/279/124 238/258/110 233/280/125
s 39
f 248/281/127 249/283/128 243/282/128
s 35
f 249/283/129 247/371/105 242/284/130
s 38
f 244/262/113 251/261/112 252/285/131
s 39
f 246/286/133 252/285/133 250/263/114
s 53
f 233/280/82 223/257/82 222/255/82
s 42
f 222/255/82 229/256/82 253/287/82
s 9
f 136/297/32 255/301/32 138/298/32
f 140/302/32 255/301/32 142/303/32
s 54
g PataDelanteraDerecha_SpacialRoverExploreralumGray
usemtl SpacialRoverExploreralumGray
f 186/372/149 1/373/150 8/374/151
s 55
f 185/375/152 8/374/153 7/376/154
s 56
f 6/377/155 185/375/156 7/376/157
s 57
f 5/378/158 184/379/159 6/377/160
s 58
f 4/380/161 183/381/162 5/378/161
s 59
f 3/382/163 182/383/164 4/384/165
s 60
f 180/385/166 3/382/167 2/386/168
s 61
f 179/387/169 2/386/170 1/373/170
s 62
f 269/388/72 277/389/72 270/390/72
s 63
f 263/391/72 259/392/72 258/393/72
s 64
f 257/394/171 262/395/171 260/396/171
s 65
f 257/394/32 258/393/32 259/397/32
s 66
f 261/398/172 258/393/172 256/399/172
s 67
f 265/400/70 279/401/70 268/402/70
s 68
f 273/403/6 277/404/6 279/405/6
s 69
f 271/406/173 273/407/173 266/408/173
s 70
f 277/389/174 271/406/174 270/390/174
s 71
f 267/409/175 273/407/175 272/410/175
s 72
f 265/400/176 275/411/176 274/412/176
s 73
f 269/413/177 279/401/177 278/414/177
s 74
f 267/409/82 275/411/82 264/415/82
s 75
f 282/416/6 297/417/6 283/418/6
s 76
f 283/418/72 297/417/72 315/419/72
s 77
f 284/420/82 300/421/82 314/422/82
s 78
f 280/423/6 309/424/6 287/425/6
s 79
f 286/426/32 291/427/32 281/428/32
s 80
f 285/429/32 300/421/32 284/420/32
s 81
f 294/430/173 303/431/173 298/432/173
s 82
f 310/433/173 292/434/173 306/435/173
s 83
f 290/436/178 310/437/178 311/438/178
s 84
f 298/439/178 296/440/178 294/441/178
s 85
f 299/442/179 295/443/179 296/440/179
s 86
f 292/434/180 308/444/180 306/435/180
s 87
f 293/445/181 307/446/181 308/444/181
s 88
f 304/447/181 302/448/181 300/421/181
s 89
f 305/449/180 301/450/180 302/448/180
s 90
f 281/428/82 291/427/82 313/451/82
s 91
f 289/452/179 311/438/179 309/424/179
s 92
f 308/453/72 307/446/72 312/454/72
s 90
f 289/455/82 313/451/82 290/456/82
s 92
f 312/454/72 286/426/72 287/425/72
f 312/454/72 309/424/72 311/457/72
f 310/458/72 306/459/72 312/454/72
f 311/457/72 310/458/72 312/454/72
f 312/454/72 306/459/72 308/453/72
s 90
f 290/456/82 313/451/82 288/460/82
f 292/461/82 313/451/82 293/462/82
f 288/460/82 313/451/82 292/461/82
f 293/462/82 313/451/82 291/427/82
s 77
f 295/463/82 314/422/82 296/464/82
f 296/464/82 314/422/82 294/465/82
f 302/466/82 314/422/82 300/421/82
f 294/465/82 314/422/82 301/467/82
f 301/467/82 314/422/82 302/466/82
s 76
f 304/447/72 315/419/72 305/468/72
f 305/468/72 315/419/72 303/469/72
f 299/470/72 315/419/72 297/417/72
f 303/469/72 315/419/72 298/471/72
f 298/471/72 315/419/72 299/470/72
s 93
f 261/398/82 257/472/82 260/473/82
s 94
f 260/474/6 262/475/6 271/476/6
f 271/476/6 262/475/6 270/477/6
f 263/391/6 269/478/6 262/475/6
f 269/478/6 263/391/6 268/479/6
f 268/479/6 263/391/6 261/398/6
f 265/480/6 268/479/6 261/398/6
f 260/474/6 271/476/6 266/481/6
f 264/482/6 265/480/6 261/398/6
f 260/474/6 266/481/6 267/483/6
f 260/474/6 267/483/6 264/482/6
f 260/474/6 264/482/6 261/398/6
f 269/478/6 270/477/6 262/475/6
s 95
f 282/416/6 295/443/6 297/417/6
s 76
f 304/447/72 285/429/72 315/419/72
f 285/429/72 283/418/72 315/419/72
s 77
f 295/463/82 282/484/82 314/422/82
f 282/484/82 284/420/82 314/422/82
s 96
f 280/423/6 289/452/6 309/424/6
s 97
f 286/426/32 307/446/32 291/427/32
s 98
f 285/429/32 304/447/32 300/421/32
s 81
f 294/430/173 301/450/173 303/431/173
s 82
f 310/433/173 288/485/173 292/434/173
s 83
f 290/436/178 288/486/178 310/437/178
s 84
f 298/439/178 299/442/178 296/440/178
s 85
f 299/442/179 297/417/179 295/443/179
s 86
f 292/434/180 293/445/180 308/444/180
s 87
f 293/445/181 291/427/181 307/446/181
s 88
f 304/447/181 305/449/181 302/448/181
s 89
f 305/449/180 303/431/180 301/450/180
s 90
f 289/455/82 280/487/82 313/451/82
f 280/487/82 281/428/82 313/451/82
s 91
f 289/452/179 290/436/179 311/438/179
s 92
f 287/425/72 309/424/72 312/454/72
f 312/454/72 307/446/72 286/426/72
s 99
f 329/388/72 337/389/72 330/390/72
s 100
f 323/391/72 319/392/72 318/393/72
s 101
f 317/394/171 322/395/171 320/396/171
s 102
f 317/394/32 318/393/32 319/397/32
s 103
f 321/398/172 318/393/172 316/399/172
s 104
f 325/400/70 339/401/70 328/402/70
s 105
f 333/403/6 337/404/6 339/405/6
s 106
f 331/406/173 333/407/173 326/408/173
s 107
f 337/389/174 331/406/174 330/390/174
s 108
f 327/409/175 333/407/175 332/410/175
s 109
f 325/400/176 335/411/176 334/412/176
s 110
f 329/413/177 339/401/177 338/414/177
s 111
f 327/409/82 335/411/82 324/415/82
s 112
f 342/416/6 357/417/6 343/418/6
s 113
f 343/418/72 357/417/72 375/419/72
s 114
f 344/420/82 360/421/82 374/422/82
s 115
f 340/423/6 369/424/6 347/425/6
s 116
f 346/426/32 351/427/32 341/428/32
s 117
f 345/429/32 360/421/32 344/420/32
s 118
f 354/430/173 363/431/173 358/432/173
s 119
f 370/433/173 352/434/173 366/435/173
s 120
f 350/436/178 370/437/178 371/438/178
s 121
f 358/439/178 356/440/178 354/441/178
s 122
f 359/442/179 355/443/179 356/440/179
s 123
f 352/434/180 368/444/180 366/435/180
s 124
f 353/445/181 367/446/181 368/444/181
s 125
f 364/447/181 362/448/181 360/421/181
s 126
f 365/449/180 361/450/180 362/448/180
s 127
f 341/428/82 351/427/82 373/451/82
s 128
f 349/452/179 371/438/179 369/424/179
s 129
f 368/453/72 367/446/72 372/454/72
s 127
f 349/455/82 373/451/82 350/456/82
s 129
f 372/454/72 346/426/72 347/425/72
f 372/454/72 369/424/72 371/457/72
f 370/458/72 366/459/72 372/454/72
f 371/457/72 370/458/72 372/454/72
f 372/454/72 366/459/72 368/453/72
s 127
f 350/456/82 373/451/82 348/460/82
f 352/461/82 373/451/82 353/462/82
f 348/460/82 373/451/82 352/461/82
f 353/462/82 373/451/82 351/427/82
s 114
f 355/463/82 374/422/82 356/464/82
f 356/464/82 374/422/82 354/465/82
f 362/466/82 374/422/82 360/421/82
f 354/465/82 374/422/82 361/467/82
f 361/467/82 374/422/82 362/466/82
s 113
f 364/447/72 375/419/72 365/468/72
f 365/468/72 375/419/72 363/469/72
f 359/470/72 375/419/72 357/417/72
f 363/469/72 375/419/72 358/471/72
f 358/471/72 375/419/72 359/470/72
s 130
f 321/398/82 317/472/82 320/473/82
s 131
f 320/474/6 322/475/6 331/476/6
f 331/476/6 322/475/6 330/477/6
f 323/391/6 329/478/6 322/475/6
f 329/478/6 323/391/6 328/479/6
f 328/479/6 323/391/6 321/398/6
f 325/480/6 328/479/6 321/398/6
f 320/474/6 331/476/6 326/481/6
f 324/482/6 325/480/6 321/398/6
f 320/474/6 326/481/6 327/483/6
f 320/474/6 327/483/6 324/482/6
f 320/474/6 324/482/6 321/398/6
f 329/478/6 330/477/6 322/475/6
s 132
f 342/416/6 355/443/6 357/417/6
s 113
f 364/447/72 345/429/72 375/419/72
f 345/429/72 343/418/72 375/419/72
s 114
f 355/463/82 342/484/82 374/422/82
f 342/484/82 344/420/82 374/422/82
s 133
f 340/423/6 349/452/6 369/424/6
s 134
f 346/426/32 367/446/32 351/427/32
s 135
f 345/429/32 364/447/32 360/421/32
s 118
f 354/430/173 361/450/173 363/431/173
s 119
f 370/433/173 348/485/173 352/434/173
s 120
f 350/436/178 348/486/178 370/437/178
s 121
f 358/439/178 359/442/178 356/440/178
s 122
f 359/442/179 357/417/179 355/443/179
s 123
f 352/434/180 353/445/180 368/444/180
s 124
f 353/445/181 351/427/181 367/446/181
s 125
f 364/447/181 365/449/181 362/448/181
s 126
f 365/449/180 363/431/180 361/450/180
s 127
f 349/455/82 340/487/82 373/451/82
f 340/487/82 341/428/82 373/451/82
s 128
f 349/452/179 350/436/179 371/438/179
s 129
f 347/425/72 369/424/72 372/454/72
f 372/454/72 367/446/72 346/426/72
s 54
f 186/372/149 179/387/182 1/373/150
s 55
f 185/375/152 186/372/183 8/374/153
s 56
f 6/377/155 184/379/184 185/375/156
s 57
f 5/378/158 183/381/159 184/379/159
s 58
f 4/380/161 182/488/185 183/381/162
s 59
f 3/382/163 181/489/164 182/383/164
s 60
f 180/385/166 181/489/166 3/382/167
s 61
f 179/387/169 180/385/186 2/386/170
s 62
f 269/388/72 278/490/72 277/389/72
s 63
f 263/391/72 262/491/72 259/392/72
s 64
f 257/394/171 259/397/171 262/395/171
s 65
f 257/394/32 256/399/32 258/393/32
s 66
f 261/398/172 263/391/172 258/393/172
s 67
f 265/400/70 274/412/70 279/401/70
s 68
f 279/405/6 274/492/6 275/493/6
f 275/493/6 272/494/6 273/403/6
f 273/403/6 276/495/6 277/404/6
f 277/404/6 278/496/6 279/405/6
f 279/405/6 275/493/6 273/403/6
s 69
f 271/406/173 276/497/173 273/407/173
s 70
f 277/389/174 276/497/174 271/406/174
s 71
f 267/409/175 266/408/175 273/407/175
s 72
f 265/400/176 264/415/176 275/411/176
s 73
f 269/413/177 268/402/177 279/401/177
s 74
f 267/409/82 272/410/82 275/411/82
s 93
f 261/398/82 256/399/82 257/472/82
s 99
f 329/388/72 338/490/72 337/389/72
s 100
f 323/391/72 322/491/72 319/392/72
s 101
f 317/394/171 319/397/171 322/395/171
s 102
f 317/394/32 316/399/32 318/393/32
s 103
f 321/398/172 323/391/172 318/393/172
s 104
f 325/400/70 334/412/70 339/401/70
s 105
f 339/405/6 334/492/6 335/493/6
f 335/493/6 332/494/6 333/403/6
f 333/403/6 336/495/6 337/404/6
f 337/404/6 338/496/6 339/405/6
f 339/405/6 335/493/6 333/403/6
s 106
f 331/406/173 336/497/173 333/407/173
s 107
f 337/389/174 336/497/174 331/406/174
s 108
f 327/409/175 326/408/175 333/407/175
s 109
f 325/400/176 324/415/176 335/411/176
s 110
f 329/413/177 328/402/177 339/401/177
s 111
f 327/409/82 332/410/82 335/411/82
s 130
f 321/398/82 316/399/82 317/472/82
s 136
f 435/498/82 436/499/33 434/500/82
f 437/501/33 438/502/187 436/499/33
f 439/503/187 440/504/175 438/502/187
f 441/505/175 442/506/188 440/504/175
f 443/507/188 444/508/189 442/506/188
f 445/509/189 446/510/173 444/511/189
f 447/512/173 448/513/190 446/510/173
f 449/514/190 450/515/191 448/513/190
f 451/516/191 452/517/174 450/515/191
f 453/518/174 454/519/192 452/517/174
f 455/520/192 456/521/193 454/519/192
s 137
f 458/522/6 530/523/6 532/524/6
f 458/522/6 534/525/6 460/526/6
s 136
f 461/527/194 462/528/195 460/529/194
f 463/530/195 464/531/177 462/528/195
f 465/532/177 466/533/196 464/531/177
f 467/534/196 468/535/197 466/533/196
f 469/536/197 470/537/70 468/535/197
f 471/538/70 472/539/198 470/537/70
f 473/540/198 474/541/199 472/539/198
f 475/542/199 476/543/176 474/541/199
f 477/544/176 478/545/200 476/543/176
s 138
f 441/546/32 502/547/32 499/548/201
f 471/549/32 463/550/32 491/551/32
s 136
f 479/552/200 480/553/37 478/545/200
f 481/554/37 434/500/82 480/553/37
s 137
f 440/555/6 448/556/6 509/557/6
f 464/558/6 472/559/6 521/560/6
s 138
f 459/561/32 535/562/32 533/563/32
s 139
f 460/526/70 535/564/70 461/565/70
s 140
f 457/566/173 530/523/173 456/567/173
s 138
f 459/561/32 531/568/32 457/566/32
s 136
f 435/498/82 437/501/33 436/499/33
f 437/501/33 439/503/187 438/502/187
f 439/503/187 441/505/175 440/504/175
f 441/505/175 443/507/188 442/506/188
f 443/507/188 445/569/189 444/508/189
f 445/509/189 447/512/173 446/510/173
f 447/512/173 449/514/190 448/513/190
f 449/514/190 451/516/191 450/515/191
f 451/516/191 453/518/174 452/517/174
f 453/518/174 455/520/192 454/519/192
f 455/520/192 457/570/193 456/521/193
s 137
f 458/522/6 456/567/6 530/523/6
f 458/522/6 532/524/6 534/525/6
s 136
f 461/527/194 463/530/195 462/528/195
f 463/530/195 465/532/177 464/531/177
f 465/532/177 467/534/196 466/533/196
f 467/534/196 469/536/197 468/535/197
f 469/536/197 471/538/70 470/537/70
f 471/538/70 473/540/198 472/539/198
f 473/540/198 475/542/199 474/541/199
f 475/542/199 477/544/176 476/543/176
f 477/544/176 479/552/200 478/545/200
s 138
f 498/571/32 447/572/32 445/573/32
f 445/573/32 443/574/32 441/546/32
f 441/546/32 439/575/32 505/576/32
f 441/546/32 505/576/32 496/577/32
f 498/571/32 445/573/32 441/546/32
f 499/548/201 498/571/32 441/546/32
f 441/546/32 496/577/32 502/547/32
f 487/578/32 505/576/32 439/575/32
f 439/575/32 437/579/32 435/580/32
f 435/580/32 481/581/32 479/582/32
f 479/582/32 477/583/32 475/584/32
f 475/584/32 473/585/32 471/549/32
f 471/549/32 469/586/32 467/587/32
f 467/587/32 465/588/32 463/550/32
f 463/550/32 461/589/32 459/590/32
f 459/590/32 457/591/32 455/592/32
f 455/592/32 453/593/32 451/594/32
f 451/594/32 449/595/32 447/572/32
f 447/572/32 498/571/32 501/596/32
f 447/572/32 501/596/32 500/597/32
f 455/592/32 451/594/32 447/572/32
f 463/550/32 459/590/32 455/592/32
f 471/549/32 467/587/32 463/550/32
f 479/582/32 475/584/32 471/549/32
f 439/575/32 435/580/32 479/582/32
f 488/598/202 487/578/32 439/575/32
f 485/599/32 488/598/202 439/575/32
f 455/592/32 447/572/32 500/597/32
f 455/592/32 500/597/32 497/600/32
f 485/599/32 439/575/32 479/582/32
f 486/601/32 485/599/32 479/582/32
f 455/592/32 497/600/32 504/602/32
f 455/592/32 504/602/32 493/603/32
f 483/604/32 486/601/32 479/582/32
f 484/605/32 483/604/32 479/582/32
f 463/550/32 455/592/32 493/603/32
f 463/550/32 493/603/32 494/606/203
f 484/605/32 479/582/32 471/549/32
f 482/607/32 484/605/32 471/549/32
f 463/550/32 494/606/203 492/608/32
f 463/550/32 492/608/32 495/609/32
f 503/610/32 482/607/32 471/549/32
f 489/611/32 503/610/32 471/549/32
f 463/550/32 495/609/32 490/612/32
f 491/551/32 489/611/32 471/549/32
f 463/550/32 490/612/32 491/551/32
s 136
f 479/552/200 481/554/37 480/553/37
f 481/554/37 435/498/82 434/500/82
s 137
f 510/613/6 512/614/6 440/555/6
f 440/555/6 442/615/6 444/616/6
f 444/616/6 446/617/6 448/556/6
f 448/556/6 528/618/6 511/619/6
f 509/557/6 510/613/6 440/555/6
f 448/556/6 511/619/6 509/557/6
f 440/555/6 444/616/6 448/556/6
f 518/620/6 528/618/6 448/556/6
f 448/556/6 450/621/6 452/622/6
f 452/622/6 454/623/6 456/624/6
f 456/624/6 458/625/6 460/626/6
f 460/626/6 462/627/6 464/558/6
f 464/558/6 466/628/6 468/629/6
f 468/629/6 470/630/6 472/559/6
f 472/559/6 474/631/6 476/632/6
f 476/632/6 478/633/6 480/634/6
f 480/634/6 434/635/6 436/636/6
f 436/636/6 438/637/6 440/555/6
f 440/555/6 512/614/6 507/638/6
f 440/555/6 507/638/6 508/639/6
f 480/634/6 436/636/6 440/555/6
f 472/559/6 476/632/6 480/634/6
f 464/558/6 468/629/6 472/559/6
f 456/624/6 460/626/6 464/558/6
f 448/556/6 452/622/6 456/624/6
f 519/640/204 518/620/6 448/556/6
f 516/641/6 519/640/204 448/556/6
f 480/634/6 440/555/6 508/639/6
f 480/634/6 508/639/6 506/642/6
f 516/641/6 448/556/6 456/624/6
f 517/643/6 516/641/6 456/624/6
f 480/634/6 506/642/6 529/644/6
f 480/634/6 529/644/6 523/645/6
f 514/646/6 517/643/6 456/624/6
f 515/647/6 514/646/6 456/624/6
f 472/559/6 480/634/6 523/645/6
f 472/559/6 523/645/6 524/648/205
f 515/647/6 456/624/6 464/558/6
f 513/649/6 515/647/6 464/558/6
f 472/559/6 524/648/205 526/650/6
f 472/559/6 526/650/6 522/651/6
f 527/652/6 513/649/6 464/558/6
f 525/653/6 527/652/6 464/558/6
f 472/559/6 522/651/6 520/654/6
f 521/560/6 525/653/6 464/558/6
f 472/559/6 520/654/6 521/560/6
s 138
f 459/561/32 461/655/32 535/562/32
s 141
f 460/526/70 534/525/70 535/564/70
s 142
f 457/566/173 531/568/173 530/523/173
s 138
f 459/561/32 533/563/32 531/568/32
s 143
g PataDelanteraDerecha_SpacialRoverExploreralumBlack
usemtl SpacialRoverExploreralumBlack
f 186/656/206 189/657/206 179/658/206
s 144
f 179/658/207 196/659/207 180/660/207
s 145
f 180/660/208 197/661/208 181/662/208
s 146
f 182/663/209 197/661/209 198/664/209
s 147
f 183/665/210 198/666/210 199/667/210
s 148
f 8/668/211 21/669/212 7/670/212
f 5/671/213 19/672/214 17/673/213
f 4/674/215 13/675/216 3/676/216
f 1/677/217 11/678/218 24/679/217
f 1/677/217 23/680/211 8/668/211
f 6/681/214 21/669/212 19/672/214
f 5/671/213 15/682/219 4/674/215
f 2/683/220 13/675/216 11/678/218
s 149
f 23/684/221 9/685/222 22/686/223
s 150
f 21/687/224 22/686/225 20/688/226
s 151
f 18/689/227 21/687/228 20/688/229
s 152
f 16/690/230 19/691/231 18/689/232
s 153
f 14/692/233 17/693/234 16/694/235
s 154
f 12/695/236 15/696/237 14/692/238
s 155
f 11/697/239 12/695/240 10/698/241
s 156
f 24/699/242 10/698/243 9/685/244
s 157
f 188/700/245 196/701/245 189/702/245
s 158
f 187/703/246 197/661/246 196/701/246
s 159
f 197/661/247 191/704/247 198/664/247
s 160
f 198/705/248 192/706/248 199/707/248
s 161
f 199/707/249 193/708/249 200/709/249
s 162
f 200/709/250 194/710/250 201/711/250
s 163
f 194/710/251 202/712/251 201/711/251
s 164
f 195/713/252 189/702/252 202/714/252
s 165
f 185/715/253 202/716/253 186/656/253
s 166
f 185/715/254 200/717/254 201/718/255
s 167
f 184/719/256 199/667/256 200/717/256
s 143
f 186/656/206 202/716/206 189/657/206
s 144
f 179/658/207 189/657/207 196/659/207
s 145
f 180/660/208 196/659/208 197/661/208
s 146
f 182/663/209 181/662/209 197/661/209
s 147
f 183/665/210 182/720/210 198/666/210
s 148
f 8/668/211 23/680/211 21/669/212
f 5/671/213 6/681/214 19/672/214
f 4/674/215 15/682/219 13/675/216
f 1/677/217 2/683/220 11/678/218
f 1/677/217 24/679/217 23/680/211
f 6/681/214 7/670/212 21/669/212
f 5/671/213 17/673/213 15/682/219
f 2/683/220 3/676/216 13/675/216
s 149
f 23/684/221 24/699/257 9/685/222
s 150
f 21/687/224 23/684/258 22/686/225
s 168
f 18/689/259 19/691/260 21/687/228
s 169
f 16/690/230 17/721/261 19/691/231
s 170
f 14/692/233 15/696/262 17/693/234
s 171
f 12/695/263 13/722/264 15/696/265
s 155
f 11/697/239 13/722/266 12/695/240
s 156
f 24/699/242 11/697/267 10/698/243
s 157
f 188/700/245 187/703/245 196/701/245
s 158
f 187/703/246 190/723/246 197/661/246
s 172
f 197/661/247 190/723/247 191/704/247
s 173
f 198/705/248 191/724/248 192/706/248
s 174
f 199/707/249 192/706/249 193/708/249
s 175
f 200/709/250 193/708/250 194/710/250
s 163
f 194/710/251 195/725/251 202/712/251
s 164
f 195/713/252 188/700/252 189/702/252
s 165
f 185/715/253 201/718/253 202/716/253
s 166
f 185/715/254 184/719/254 200/717/254
s 167
f 184/719/256 183/665/256 199/667/256
s 4
g PataDelanteraDerecha_SpacialRoverExploreralumOrange
usemtl SpacialRoverExploreralumOrange
f 98/726/31 27/727/63 25/728/72
f 97/729/63 29/730/195 27/727/63
f 99/731/195 31/732/177 29/730/195
f 100/733/177 33/734/196 31/732/177
f 101/735/196 35/736/197 33/734/196
f 102/737/197 37/738/70 35/736/197
f 103/739/70 39/740/198 37/738/70
f 104/741/198 41/742/199 39/740/198
f 105/743/199 43/744/176 41/742/199
f 106/745/176 45/746/200 43/744/176
f 107/747/200 47/748/37 45/746/200
f 108/749/37 49/750/82 47/748/37
f 109/751/66 51/752/33 49/753/82
f 110/754/33 53/755/187 51/752/33
f 111/756/35 55/757/175 53/755/187
f 112/758/175 57/759/188 55/757/175
f 113/760/188 59/761/189 57/759/188
f 114/762/189 61/763/173 59/761/189
f 115/764/173 63/765/190 61/763/173
f 116/766/190 65/767/191 63/765/190
f 117/768/191 67/769/174 65/767/191
f 118/770/174 69/771/192 67/769/174
f 119/772/69 71/773/29 69/771/192
f 120/774/29 25/728/72 71/773/29
f 98/726/31 97/729/63 27/727/63
f 97/729/63 99/731/195 29/730/195
f 99/731/195 100/733/177 31/732/177
f 100/733/177 101/735/196 33/734/196
f 101/735/196 102/737/197 35/736/197
f 102/737/197 103/739/70 37/738/70
f 103/739/70 104/741/198 39/740/198
f 104/741/198 105/743/199 41/742/199
f 105/743/199 106/745/176 43/744/176
f 106/745/176 107/747/200 45/746/200
f 107/747/200 108/749/37 47/748/37
f 108/749/37 109/775/66 49/750/82
f 109/751/66 110/754/33 51/752/33
f 110/754/33 111/756/35 53/755/187
f 111/756/35 112/758/175 55/757/175
f 112/758/175 113/760/188 57/759/188
f 113/760/188 114/762/189 59/761/189
f 114/762/189 115/764/173 61/763/173
f 115/764/173 116/766/190 63/765/190
f 116/766/190 117/768/191 65/767/191
f 117/768/191 118/770/174 67/769/174
f 118/770/174 119/772/69 69/771/192
f 119/772/69 120/774/29 71/773/29
f 120/774/29 98/726/31 25/728/72
s 176
g PataDelanteraDerecha_SpacialRoverExploreralumGrayDeep
usemtl SpacialRoverExploreralumGrayDeep
f 389/776/268 400/777/269 401/778/269
s 177
f 384/779/72 548/780/72 546/781/72
f 401/782/72 539/783/72 545/784/72
s 178
f 376/785/270 388/786/271 385/787/270
s 179
f 378/788/82 553/789/82 561/790/82
f 555/791/82 379/792/82 377/793/82
s 180
f 377/794/272 386/795/273 384/796/272
s 178
f 379/797/274 387/798/275 386/795/274
f 378/799/275 385/787/270 387/798/275
s 176
f 389/776/268 382/800/276 380/801/268
s 178
f 391/802/277 383/803/278 382/800/277
f 390/804/279 381/805/271 383/803/278
s 181
f 392/806/280 427/807/280 426/808/280
s 182
f 427/807/281 394/809/281 428/810/281
s 183
f 394/811/282 429/812/282 428/813/282
s 184
f 395/814/283 430/815/283 429/812/283
s 185
f 396/816/284 431/817/284 430/815/284
s 186
f 431/817/285 398/818/285 432/819/285
s 187
f 393/820/72 399/821/72 397/822/72
s 188
f 398/818/286 433/823/286 432/819/286
s 189
f 399/824/287 426/808/287 433/823/287
s 190
f 400/825/288 414/826/289 401/827/288
s 180
f 402/828/290 377/794/272 384/796/272
s 179
f 424/829/82 400/830/82 422/831/82
s 191
f 423/832/291 405/833/292 404/834/292
s 177
f 419/835/72 401/782/72 421/836/72
s 191
f 405/833/292 406/837/293 404/834/292
s 177
f 416/838/72 564/839/72 414/840/72
s 192
f 415/841/294 407/842/295 412/843/295
s 190
f 409/844/289 416/845/296 414/826/289
f 411/846/296 417/847/297 416/845/296
s 192
f 410/848/298 415/841/294 417/847/298
s 179
f 410/849/82 411/850/82 563/851/82
s 191
f 418/852/299 425/853/300 420/854/300
f 425/855/300 421/856/301 420/857/300
s 180
f 424/858/302 419/859/303 421/860/302
f 419/859/303 403/861/290 402/828/290
s 193
f 428/862/82 430/863/82 432/864/82
s 194
f 412/843/304 406/837/304 413/865/304
s 177
f 548/780/72 386/866/72 387/867/72
f 385/868/72 548/869/72 387/870/72
f 385/871/72 543/872/72 544/873/72
s 179
f 400/830/82 424/829/82 425/874/82
f 422/831/82 400/830/82 403/875/82
s 177
f 420/876/72 401/782/72 418/877/72
s 179
f 423/878/82 404/879/82 400/830/82
f 400/830/82 425/874/82 423/878/82
s 177
f 401/782/72 419/835/72 402/880/72
f 421/836/72 401/782/72 420/876/72
f 418/877/72 401/782/72 405/881/72
f 389/882/72 543/872/72 391/883/72
f 390/884/72 543/872/72 388/885/72
f 391/883/72 543/872/72 390/884/72
s 179
f 555/791/82 378/788/82 379/792/82
f 403/875/82 558/886/82 562/887/82
f 559/888/82 380/889/82 382/890/82
f 376/891/82 560/892/82 559/888/82
f 382/890/82 383/893/82 559/888/82
f 383/893/82 381/894/82 559/888/82
f 563/851/82 400/830/82 404/879/82
f 408/895/82 563/851/82 407/896/82
f 563/851/82 411/850/82 409/897/82
f 563/851/82 408/895/82 410/849/82
f 407/896/82 563/851/82 406/898/82
s 177
f 564/839/72 405/881/72 401/782/72
f 564/839/72 412/899/72 413/900/72
f 412/899/72 564/839/72 415/901/72
f 564/839/72 417/902/72 415/901/72
f 417/902/72 564/839/72 416/838/72
s 176
f 389/776/268 380/801/268 400/777/269
s 177
f 384/779/72 386/866/72 548/780/72
f 540/903/72 543/872/72 389/882/72
f 384/779/72 546/781/72 536/904/72
f 384/779/72 536/904/72 537/905/72
f 541/906/305 540/903/72 389/882/72
f 542/907/72 541/906/305 389/882/72
f 402/880/72 384/779/72 537/905/72
f 402/880/72 537/905/72 538/908/72
f 542/907/72 389/882/72 401/782/72
f 547/909/72 542/907/72 401/782/72
f 401/782/72 402/880/72 538/908/72
f 401/782/72 538/908/72 539/783/72
f 545/784/72 547/909/72 401/782/72
s 178
f 376/785/270 381/805/271 388/786/271
s 179
f 561/790/82 376/891/82 378/788/82
f 378/788/82 555/791/82 553/789/82
s 180
f 377/794/272 379/797/273 386/795/273
s 178
f 379/797/274 378/799/275 387/798/275
f 378/799/275 376/785/270 385/787/270
s 176
f 389/776/268 391/802/276 382/800/276
s 178
f 391/802/277 390/804/279 383/803/278
f 390/804/279 388/786/271 381/805/271
s 181
f 392/806/280 393/910/280 427/807/280
s 182
f 427/807/281 393/910/281 394/809/281
s 183
f 394/811/282 395/814/282 429/812/282
s 184
f 395/814/283 396/816/283 430/815/283
s 185
f 396/816/284 397/911/284 431/817/284
s 186
f 431/817/285 397/911/285 398/818/285
s 187
f 397/822/72 396/912/72 395/913/72
f 395/913/72 394/914/72 393/820/72
f 393/820/72 392/915/72 399/821/72
f 399/821/72 398/916/72 397/822/72
f 397/822/72 395/913/72 393/820/72
s 188
f 398/818/286 399/824/286 433/823/286
s 189
f 399/824/287 392/806/287 426/808/287
s 190
f 400/825/288 409/844/289 414/826/289
s 180
f 402/828/290 403/861/290 377/794/272
s 191
f 423/832/291 418/852/299 405/833/292
f 405/833/292 413/865/293 406/837/293
s 192
f 415/841/294 408/917/294 407/842/295
s 190
f 409/844/289 411/846/296 416/845/296
f 411/846/296 410/848/297 417/847/297
s 192
f 410/848/298 408/917/294 415/841/294
s 191
f 418/852/299 423/832/291 425/853/300
f 425/855/300 424/918/301 421/856/301
s 180
f 424/858/302 422/919/303 419/859/303
f 419/859/303 422/919/303 403/861/290
s 193
f 432/864/82 433/920/82 426/921/82
f 426/921/82 427/922/82 428/862/82
f 428/862/82 429/923/82 430/863/82
f 430/863/82 431/924/82 432/864/82
f 432/864/82 426/921/82 428/862/82
s 194
f 412/843/304 407/842/304 406/837/304
s 177
f 544/873/72 548/780/72 385/871/72
f 385/871/72 388/885/72 543/872/72
s 179
f 380/889/82 559/888/82 557/925/82
f 380/889/82 557/925/82 550/926/82
f 554/927/82 555/791/82 377/793/82
f 549/928/82 554/927/82 377/793/82
f 400/830/82 380/889/82 550/926/82
f 400/830/82 550/926/82 552/929/82
f 549/928/82 377/793/82 403/875/82
f 556/930/82 549/928/82 403/875/82
f 403/875/82 400/830/82 552/929/82
f 403/875/82 552/929/82 551/931/82
f 562/887/82 556/930/82 403/875/82
f 403/875/82 551/931/82 558/886/82
f 559/888/82 381/894/82 376/891/82
f 376/891/82 561/790/82 560/892/82
f 404/879/82 406/898/82 563/851/82
f 563/851/82 409/897/82 400/830/82
s 177
f 401/782/72 414/840/72 564/839/72
f 564/839/72 413/900/72 405/881/72
l 565 567
l 568 566
