# Blender 5.2.2 LTS
# www.blender.org
mtllib PataDelanteraIzquierda.mtl
g PataDelanteraIzquierda_RoverModificado.005
v 5.244678 3.418308 -6.161206
v 5.268585 3.479830 -6.133089
v 5.278487 3.505314 -6.065206
v 5.268585 3.479830 -5.997324
v 5.244678 3.418308 -5.969206
v 5.220771 3.356786 -5.997324
v 5.210868 3.331303 -6.065206
v 5.220771 3.356786 -6.133089
v 5.317597 3.366173 -6.180407
v 5.317598 3.469854 -6.146665
v 5.273293 3.492176 -6.146665
v 5.317598 3.512799 -6.065206
v 5.285176 3.522756 -6.065206
v 5.317598 3.469854 -5.983747
v 5.273293 3.492176 -5.983747
v 5.317597 3.366173 -5.950006
v 5.244605 3.418349 -5.950006
v 5.317598 3.262493 -5.983747
v 5.215917 3.344522 -5.983747
v 5.317598 3.219548 -6.065206
v 5.204033 3.313943 -6.065206
v 5.317598 3.262493 -6.146665
v 5.215917 3.344522 -6.146665
v 5.244605 3.418349 -6.180407
v 5.541371 3.080997 -6.404560
v 5.541371 3.278435 -6.303697
v 5.629059 3.080997 -6.393015
v 5.602954 3.278435 -6.295589
v 5.710771 3.080997 -6.359169
v 5.660340 3.278435 -6.271819
v 5.780939 3.080997 -6.305328
v 5.709618 3.278435 -6.234007
v 5.834781 3.080997 -6.235160
v 5.747431 3.278435 -6.184728
v 5.868627 3.080997 -6.153447
v 5.771201 3.278435 -6.127342
v 5.880171 3.080997 -6.065759
v 5.779308 3.278435 -6.065759
v 5.868627 3.080997 -5.978072
v 5.771201 3.278435 -6.004177
v 5.834781 3.080997 -5.896360
v 5.747431 3.278435 -5.946791
v 5.780939 3.080997 -5.826192
v 5.709618 3.278435 -5.897513
v 5.710771 3.080997 -5.772350
v 5.660340 3.278435 -5.859700
v 5.629059 3.080997 -5.738504
v 5.602954 3.278435 -5.835930
v 5.541371 3.080997 -5.726960
v 5.541371 3.278435 -5.827822
v 5.453683 3.080997 -5.738504
v 5.479789 3.278435 -5.835930
v 5.371972 3.080997 -5.772350
v 5.422403 3.278435 -5.859700
v 5.301804 3.080997 -5.826192
v 5.373125 3.278435 -5.897513
v 5.247962 3.080997 -5.896360
v 5.315457 3.278435 -5.922997
v 5.214116 3.080997 -5.978072
v 5.315457 3.278435 -5.991860
v 5.202572 3.080997 -6.065760
v 5.315457 3.278435 -6.065760
v 5.214116 3.080997 -6.153447
v 5.315457 3.278435 -6.139659
v 5.247962 3.080997 -6.235160
v 5.315457 3.278435 -6.208522
v 5.301804 3.080997 -6.305327
v 5.373125 3.278435 -6.234007
v 5.371971 3.080997 -6.359169
v 5.422403 3.278435 -6.271819
v 5.453683 3.080997 -6.393016
v 5.479789 3.278435 -6.295589
v 5.541372 2.990997 -6.302920
v 5.602753 2.990997 -6.294839
v 5.659952 2.990997 -6.271147
v 5.709069 2.990997 -6.233457
v 5.746758 2.990997 -6.184340
v 5.770451 2.990997 -6.127141
v 5.778532 2.990997 -6.065760
v 5.770451 2.990997 -6.004378
v 5.746758 2.990997 -5.947180
v 5.709069 2.990997 -5.898062
v 5.659952 2.990997 -5.860373
v 5.602753 2.990997 -5.836681
v 5.541372 2.990997 -5.828600
v 5.479990 2.990997 -5.836681
v 5.422792 2.990997 -5.860373
v 5.373674 2.990997 -5.898062
v 5.335985 2.990997 -5.947180
v 5.312293 2.990997 -6.004378
v 5.304212 2.990997 -6.065760
v 5.312293 2.990997 -6.127141
v 5.335985 2.990997 -6.184340
v 5.373674 2.990997 -6.233457
v 5.422792 2.990997 -6.271147
v 5.479990 2.990997 -6.294839
v 5.629059 3.278435 -6.393015
v 5.541371 3.278435 -6.404560
v 5.710771 3.278435 -6.359169
v 5.780939 3.278435 -6.305328
v 5.834781 3.278435 -6.235160
v 5.868627 3.278435 -6.153447
v 5.880171 3.278435 -6.065759
v 5.868627 3.278435 -5.978072
v 5.834781 3.278435 -5.896360
v 5.780939 3.278435 -5.826192
v 5.710771 3.278435 -5.772350
v 5.629059 3.278435 -5.738504
v 5.541371 3.278435 -5.726960
v 5.453683 3.278435 -5.738504
v 5.371972 3.278435 -5.772350
v 5.301804 3.278435 -5.826192
v 5.247962 3.278435 -5.896360
v 5.214116 3.278435 -5.978072
v 5.202572 3.278435 -6.065760
v 5.214116 3.278435 -6.153447
v 5.247962 3.278435 -6.235160
v 5.301804 3.278435 -6.305327
v 5.371971 3.278435 -6.359169
v 5.453683 3.278435 -6.393016
v 5.585711 3.608434 -6.231237
v 5.541371 3.608434 -6.237075
v 5.627029 3.608434 -6.214123
v 5.662510 3.608434 -6.186898
v 5.689735 3.608434 -6.151417
v 5.706849 3.608434 -6.110099
v 5.712686 3.608434 -6.065760
v 5.706849 3.608434 -6.021420
v 5.689735 3.608434 -5.980102
v 5.662510 3.608434 -5.944622
v 5.627029 3.608434 -5.917397
v 5.585711 3.608434 -5.900282
v 5.541371 3.608434 -5.894445
v 5.497032 3.608434 -5.900282
v 5.455714 3.608434 -5.917397
v 5.420234 3.608434 -5.944622
v 5.318713 3.608434 -5.962971
v 5.318713 3.608434 -6.012552
v 5.318713 3.608434 -6.065760
v 5.318713 3.608434 -6.118967
v 5.318713 3.608434 -6.168548
v 5.420234 3.608434 -6.186898
v 5.455714 3.608434 -6.214123
v 5.497032 3.608434 -6.231237
v 5.541371 3.478435 -6.404560
v 5.541371 3.478435 -5.726960
v 5.453683 3.478435 -5.738504
v 5.371972 3.478435 -5.772350
v 5.453683 3.478435 -6.393016
v 5.371971 3.478435 -6.359169
v 5.541371 3.478435 -6.303697
v 5.541371 3.478435 -5.827822
v 5.479789 3.478435 -5.835930
v 5.422403 3.478435 -5.859700
v 5.479789 3.478435 -6.295589
v 5.422403 3.478435 -6.271819
v 2.426169 4.178434 -5.772350
v 2.426169 4.578435 -5.772350
v 2.426169 4.178432 -6.271819
v 2.426169 4.178432 -6.359169
v 2.426169 4.578434 -6.271819
v 2.426169 4.578434 -6.359169
v 3.999983 3.758435 -6.359169
v 3.999983 3.958435 -6.359169
v 3.999983 3.758435 -6.271819
v 3.999983 3.958435 -6.271819
v 3.999983 3.761435 -5.859700
v 3.999983 3.961435 -5.859700
v 3.999983 3.961435 -5.772350
v 3.999983 3.761435 -5.772350
v 4.000143 3.668435 -5.859700
v 4.000143 4.018435 -5.772350
v 4.000143 4.018435 -5.859700
v 4.000143 3.668435 -5.772350
v 4.000143 3.668435 -6.359169
v 4.000143 3.668435 -6.271819
v 4.000143 4.018435 -6.359169
v 4.000143 4.018435 -6.271819
v 2.824815 4.309181 -6.161206
v 2.844163 4.372970 -6.133089
v 2.852177 4.399392 -6.065206
v 2.844163 4.372970 -5.997324
v 2.824815 4.309181 -5.969206
v 2.805468 4.245393 -5.997324
v 2.797454 4.218970 -6.065206
v 2.805468 4.245393 -6.133089
v 2.374449 4.611667 -6.169745
v 2.344654 4.513433 -6.213046
v 2.904842 4.275137 -6.213046
v 2.386791 4.652358 -6.065206
v 2.374449 4.611667 -5.960668
v 2.344654 4.513433 -5.917366
v 2.314859 4.415198 -5.960668
v 2.302517 4.374509 -6.065206
v 2.314859 4.415197 -6.169745
v 2.934638 4.373373 -6.169745
v 2.946980 4.414063 -6.065206
v 2.934638 4.373373 -5.960668
v 2.904842 4.275139 -5.917366
v 2.875047 4.176905 -5.960668
v 2.862706 4.136215 -6.065206
v 2.875047 4.176905 -6.169745
v 2.426169 4.578435 -5.859700
v 2.426169 4.178434 -5.859700
v 2.662265 4.101934 -5.772350
v 2.662265 4.494434 -5.859700
v 2.662264 4.494434 -5.772350
v 2.662264 4.101934 -5.859700
v 2.662264 4.101933 -6.359169
v 2.662264 4.101933 -6.271819
v 2.662265 4.494432 -6.359169
v 2.662265 4.494432 -6.271819
v 2.428529 4.175813 -5.654986
v 2.428529 4.582373 -5.654986
v 2.428529 4.582372 -6.476532
v 2.428529 4.175810 -6.476532
v 2.659904 4.098055 -6.476532
v 2.659904 4.496996 -5.654986
v 2.659904 4.098058 -5.654986
v 2.659904 4.496994 -6.476532
v 2.428529 4.550070 -6.476532
v 2.426169 4.546208 -6.359169
v 2.426169 4.210209 -6.359169
v 2.428529 4.208560 -6.476532
v 2.426169 4.546210 -5.772350
v 2.428529 4.550072 -5.654986
v 2.428529 4.208562 -5.654986
v 2.426169 4.210211 -5.772350
v 1.926189 4.546208 -6.359169
v 1.826169 4.446157 -6.359169
v 1.855464 4.516904 -6.359169
v 1.826169 4.310219 -6.359169
v 1.926189 4.210209 -6.359169
v 1.855464 4.239502 -6.359169
v 1.828529 4.450016 -6.476532
v 1.928550 4.550070 -6.476532
v 1.857825 4.520764 -6.476532
v 1.928550 4.208560 -6.476532
v 1.828529 4.308569 -6.476532
v 1.857825 4.237853 -6.476532
v 1.826169 4.446157 -5.772350
v 1.926189 4.546210 -5.772350
v 1.855464 4.516906 -5.772350
v 1.926189 4.210211 -5.772350
v 1.826169 4.310221 -5.772350
v 1.855464 4.239504 -5.772350
v 1.928550 4.550072 -5.654986
v 1.828529 4.450018 -5.654986
v 1.857825 4.520767 -5.654986
v 1.828529 4.308571 -5.654986
v 1.928550 4.208562 -5.654986
v 1.857825 4.237854 -5.654986
v 1.926189 4.378210 -6.359169
v 1.928550 4.379314 -6.476532
v 5.420234 3.608434 -6.065760
v 2.391372 4.533703 -5.859700
v 1.810901 4.533703 -5.859700
v 2.388681 4.533701 -6.271708
v 1.808210 4.533701 -6.271708
v 1.810901 4.283167 -5.859700
v 2.291372 4.283167 -5.859700
v 1.808210 4.283165 -6.271708
v 2.288681 4.283165 -6.271708
v 2.083865 4.283167 -5.954781
v 2.153865 4.283167 -6.024781
v 1.934267 4.283167 -6.024781
v 2.004267 4.283167 -5.954781
v 2.153865 4.283167 -6.094619
v 2.083865 4.283166 -6.164619
v 2.004267 4.283166 -6.164619
v 1.934267 4.283167 -6.094619
v 2.004267 3.883167 -5.954781
v 1.934267 3.883167 -6.024781
v 2.153865 3.883167 -6.024781
v 2.083865 3.883167 -5.954781
v 1.934267 3.883167 -6.094619
v 2.004267 3.883167 -6.164619
v 2.083865 3.883167 -6.164619
v 2.153865 3.883167 -6.094619
v 2.426169 4.178434 -5.772350
v 2.426169 4.578435 -5.772350
v 2.426169 4.178432 -6.271819
v 2.426169 4.178432 -6.359169
v 2.426169 4.578434 -6.271819
v 2.426169 4.578434 -6.359169
v 2.426169 4.578435 -5.859700
v 2.426169 4.178434 -5.859700
v 1.726169 4.238435 -5.772350
v 1.786169 4.178434 -5.772350
v 1.743743 4.196009 -5.772350
v 1.786169 4.578435 -5.772350
v 1.726169 4.518435 -5.772350
v 1.743743 4.560863 -5.772350
v 1.726169 4.238433 -6.271819
v 1.786169 4.178432 -6.271819
v 1.743743 4.196008 -6.271819
v 1.786169 4.178432 -6.359169
v 1.726169 4.238433 -6.359169
v 1.743743 4.196008 -6.359169
v 1.786169 4.578434 -6.271819
v 1.726169 4.518435 -6.271819
v 1.743743 4.560862 -6.271819
v 1.726169 4.518435 -6.359169
v 1.786169 4.578434 -6.359169
v 1.743743 4.560862 -6.359169
v 1.726169 4.518435 -5.859700
v 1.786169 4.578435 -5.859700
v 1.743743 4.560863 -5.859700
v 1.786169 4.178434 -5.859700
v 1.726169 4.238435 -5.859700
v 1.743743 4.196009 -5.859700
v 1.786169 4.378435 -5.859700
v 1.786169 4.378435 -5.772350
v 1.786169 4.378434 -6.271819
v 1.786169 4.378434 -6.359169
v 2.391372 4.533703 -5.859700
v 1.810901 4.533703 -5.859700
v 2.388681 4.533701 -6.271708
v 1.808210 4.533701 -6.271708
v 1.810901 4.283167 -5.859700
v 2.291372 4.283167 -5.859700
v 1.808210 4.283165 -6.271708
v 2.288681 4.283165 -6.271708
v 2.083865 4.283167 -5.954781
v 2.153865 4.283167 -6.024781
v 1.934267 4.283167 -6.024781
v 2.004267 4.283167 -5.954781
v 2.153865 4.283167 -6.094619
v 2.083865 4.283166 -6.164619
v 2.004267 4.283166 -6.164619
v 1.934267 4.283167 -6.094619
v 2.004267 3.883167 -5.954781
v 1.934267 3.883167 -6.024781
v 2.153865 3.883167 -6.024781
v 2.083865 3.883167 -5.954781
v 1.934267 3.883167 -6.094619
v 2.004267 3.883167 -6.164619
v 2.083865 3.883167 -6.164619
v 2.153865 3.883167 -6.094619
v 2.426169 4.178434 -5.772350
v 2.426169 4.578435 -5.772350
v 2.426169 4.178432 -6.271819
v 2.426169 4.178432 -6.359169
v 2.426169 4.578434 -6.271819
v 2.426169 4.578434 -6.359169
v 2.426169 4.578435 -5.859700
v 2.426169 4.178434 -5.859700
v 1.726169 4.238435 -5.772350
v 1.786169 4.178434 -5.772350
v 1.743743 4.196009 -5.772350
v 1.786169 4.578435 -5.772350
v 1.726169 4.518435 -5.772350
v 1.743743 4.560863 -5.772350
v 1.726169 4.238433 -6.271819
v 1.786169 4.178432 -6.271819
v 1.743743 4.196008 -6.271819
v 1.786169 4.178432 -6.359169
v 1.726169 4.238433 -6.359169
v 1.743743 4.196008 -6.359169
v 1.786169 4.578434 -6.271819
v 1.726169 4.518435 -6.271819
v 1.743743 4.560862 -6.271819
v 1.726169 4.518435 -6.359169
v 1.786169 4.578434 -6.359169
v 1.743743 4.560862 -6.359169
v 1.726169 4.518435 -5.859700
v 1.786169 4.578435 -5.859700
v 1.743743 4.560863 -5.859700
v 1.786169 4.178434 -5.859700
v 1.726169 4.238435 -5.859700
v 1.743743 4.196009 -5.859700
v 1.786169 4.378435 -5.859700
v 1.786169 4.378435 -5.772350
v 1.786169 4.378434 -6.271819
v 1.786169 4.378434 -6.359169
v 5.646769 1.446609 -5.197938
v 5.781553 1.446599 -5.197938
v 5.696638 1.423142 -5.197938
v 5.745972 1.423138 -5.197938
v 5.433910 1.703036 -5.197938
v 5.472948 1.574828 -5.197938
v 5.421618 1.662398 -5.197938
v 5.435906 1.615471 -5.197938
v 5.781553 1.446599 -5.389938
v 5.646769 1.446609 -5.389938
v 5.745972 1.423138 -5.389938
v 5.696638 1.423142 -5.389938
v 5.472948 1.574828 -5.389938
v 5.433910 1.703036 -5.389938
v 5.435906 1.615471 -5.389938
v 5.421618 1.662398 -5.389938
v 5.427414 3.282833 -5.113564
v 5.524323 3.342218 -5.113564
v 5.634839 3.315685 -5.113564
v 5.694225 3.218777 -5.113564
v 5.667692 3.108261 -5.113564
v 5.570784 3.048875 -5.113564
v 5.460267 3.075408 -5.113564
v 5.400881 3.172316 -5.113564
v 6.048651 2.541892 -5.197938
v 6.048651 2.541892 -5.389938
v 6.396293 2.285454 -5.389938
v 6.396293 2.285454 -5.197938
v 6.326632 2.920869 -5.197938
v 6.326632 2.920869 -5.389938
v 5.650115 3.415406 -5.197938
v 5.448515 3.414459 -5.197938
v 5.312483 3.229005 -5.197938
v 5.372134 3.036430 -5.197938
v 5.294496 3.167788 -5.197938
v 5.316330 3.097301 -5.197938
v 5.448515 3.414459 -5.389938
v 5.650115 3.415406 -5.389938
v 5.372134 3.036430 -5.389938
v 5.312483 3.229005 -5.389938
v 5.316330 3.097301 -5.389938
v 5.294496 3.167788 -5.389938
v 6.456998 2.824704 -5.389938
v 6.555983 2.503162 -5.389938
v 6.549788 2.722962 -5.389938
v 6.586020 2.605269 -5.389938
v 6.555983 2.503162 -5.197938
v 6.456998 2.824704 -5.197938
v 6.586020 2.605269 -5.197938
v 6.549788 2.722962 -5.197938
v 5.427414 3.282833 -5.554363
v 5.524323 3.342218 -5.554363
v 5.634839 3.315685 -5.554363
v 5.694225 3.218777 -5.554363
v 5.667692 3.108261 -5.554363
v 5.570784 3.048875 -5.554363
v 5.460267 3.075408 -5.554363
v 5.400881 3.172316 -5.554363
v 5.541373 3.107512 -6.489860
v 5.541373 3.281927 -6.489860
v 5.650983 3.107512 -6.475429
v 5.650983 3.281927 -6.475429
v 5.753123 3.107512 -6.433121
v 5.753123 3.281927 -6.433121
v 5.840833 3.107512 -6.365820
v 5.840833 3.281927 -6.365820
v 5.908135 3.107512 -6.278110
v 5.908135 3.281927 -6.278110
v 5.950442 3.107512 -6.175970
v 5.950442 3.281927 -6.175970
v 5.964873 3.107512 -6.066360
v 5.964873 3.281927 -6.066360
v 5.950442 3.107512 -5.956750
v 5.950442 3.281927 -5.956750
v 5.908135 3.107512 -5.854610
v 5.908135 3.281927 -5.854610
v 5.840833 3.107512 -5.766900
v 5.840833 3.281927 -5.766900
v 5.753123 3.107512 -5.699598
v 5.753123 3.281927 -5.699598
v 5.650983 3.107512 -5.657290
v 5.650983 3.281927 -5.657290
v 5.541373 3.107512 -5.642860
v 5.541373 3.281927 -5.642860
v 5.431763 3.107512 -5.657290
v 5.431763 3.281927 -5.657290
v 5.329623 3.107512 -5.699598
v 5.329623 3.281927 -5.699598
v 5.241913 3.107512 -5.766900
v 5.241913 3.281927 -5.766900
v 5.174611 3.107512 -5.854610
v 5.174611 3.281927 -5.854610
v 5.132304 3.107512 -5.956750
v 5.132304 3.281927 -5.956750
v 5.117873 3.107512 -6.066360
v 5.117873 3.281927 -6.066360
v 5.132304 3.107512 -6.175970
v 5.132304 3.281927 -6.175970
v 5.174611 3.107512 -6.278110
v 5.174611 3.281927 -6.278110
v 5.241913 3.107512 -6.365819
v 5.241913 3.281927 -6.365819
v 5.329623 3.107512 -6.433121
v 5.329623 3.281927 -6.433121
v 5.431763 3.107512 -6.475429
v 5.431763 3.281927 -6.475429
v 5.214118 3.281927 -6.154048
v 5.301806 3.281927 -6.305928
v 5.247964 3.281927 -6.235760
v 5.453685 3.281927 -6.393616
v 5.371973 3.281927 -6.359769
v 5.629061 3.281927 -6.393616
v 5.541373 3.281927 -6.405160
v 5.214118 3.281927 -5.978672
v 5.301806 3.281927 -5.826792
v 5.247964 3.281927 -5.896960
v 5.453685 3.281927 -5.739104
v 5.629061 3.281927 -5.739104
v 5.541373 3.281927 -5.727560
v 5.371973 3.281927 -5.772951
v 5.780941 3.281927 -6.305928
v 5.780941 3.281927 -5.826792
v 5.880173 3.281927 -6.066360
v 5.868629 3.281927 -6.154048
v 5.834783 3.281927 -5.896960
v 5.868629 3.281927 -5.978672
v 5.834783 3.281927 -6.235760
v 5.202573 3.281927 -6.066360
v 5.710774 3.281927 -5.772951
v 5.710774 3.281927 -6.359770
v 5.541373 3.107512 -6.405160
v 5.710774 3.107512 -6.359770
v 5.629061 3.107512 -6.393616
v 5.868629 3.107512 -6.154048
v 5.834783 3.107512 -6.235760
v 5.880173 3.107512 -6.066360
v 5.780941 3.107512 -6.305928
v 5.371973 3.107512 -5.772951
v 5.541373 3.107512 -5.727560
v 5.453685 3.107512 -5.739104
v 5.710774 3.107512 -5.772951
v 5.629061 3.107512 -5.739104
v 5.834783 3.107512 -5.896960
v 5.780941 3.107512 -5.826792
v 5.202573 3.107512 -6.066360
v 5.214118 3.107512 -5.978672
v 5.214118 3.107512 -6.154048
v 5.371973 3.107512 -6.359769
v 5.301806 3.107512 -6.305928
v 5.247964 3.107512 -5.896960
v 5.247964 3.107512 -6.235760
v 5.301806 3.107512 -5.826792
v 5.868629 3.107512 -5.978672
v 5.453685 3.107512 -6.393616
v 5.650983 3.107512 -5.552480
v 5.650983 3.281927 -5.552480
v 5.541373 3.107512 -5.552480
v 5.541373 3.281927 -5.552480
v 5.431763 3.107512 -5.552480
v 5.431763 3.281927 -5.552480
v 5.811154 1.532450 -5.389938
v 5.884359 1.605655 -5.389938
v 5.911154 1.705655 -5.389938
v 5.884359 1.805655 -5.389938
v 5.511154 1.705655 -5.389938
v 5.537949 1.805655 -5.389938
v 5.611154 1.878860 -5.389938
v 5.537949 1.605655 -5.389938
v 5.611154 1.532450 -5.389938
v 5.811154 1.878860 -5.389938
v 5.755318 1.517488 -5.389938
v 5.711154 1.905655 -5.389938
v 5.711154 1.505654 -5.389938
v 5.884359 1.605655 -5.197938
v 5.537949 1.805655 -5.197938
v 5.711154 1.905655 -5.197938
v 5.611154 1.878860 -5.197938
v 5.711154 1.505654 -5.197938
v 5.811154 1.532450 -5.197938
v 5.726990 1.509898 -5.197938
v 5.911154 1.705655 -5.197938
v 5.511154 1.705655 -5.197938
v 5.811154 1.878860 -5.197938
v 5.537949 1.605655 -5.197938
v 5.611154 1.532450 -5.197938
v 5.626990 1.528206 -5.197938
v 5.884359 1.805655 -5.197938
v 5.511125 3.225918 -5.197938
v 5.511125 3.225918 -5.389938
v 6.809486 2.159352 -5.450003
v 6.698594 2.366816 -5.450003
v 6.809486 2.159352 -5.450003
v 6.698594 2.366816 -5.450003
vn -0.4804 0.1605 0.8622
vn -0.2029 0.1582 0.9663
vn -0.4016 0.1140 0.9087
vn 0.1716 -0.7487 -0.6403
vn -0.0000 -0.7487 -0.6629
vn -0.0000 -1.0000 -0.0000
vn -0.0000 -0.7487 0.6629
vn -0.1716 -0.7487 0.6403
vn -0.6629 -0.7487 -0.0000
vn -0.6403 -0.7487 0.1716
vn -0.1716 -0.7487 -0.6403
vn -0.3315 -0.7487 -0.5741
vn 0.6404 -0.7487 -0.1716
vn 0.6629 -0.7487 -0.0000
vn 0.6403 -0.7487 -0.1716
vn 0.3315 -0.7487 0.5741
vn 0.1716 -0.7487 0.6403
vn -0.5741 -0.7487 0.3315
vn -0.4688 -0.7487 0.4688
vn -0.4688 -0.7487 -0.4688
vn -0.5741 -0.7487 -0.3315
vn 0.5741 -0.7487 -0.3315
vn 0.4688 -0.7487 -0.4688
vn 0.4688 -0.7487 0.4688
vn 0.5741 -0.7487 0.3315
vn -0.3315 -0.7487 0.5741
vn -0.6403 -0.7487 -0.1716
vn 0.3315 -0.7487 -0.5741
vn 0.1716 -0.7487 -0.6404
vn 0.6403 -0.7487 0.1716
vn -0.2588 -0.0000 -0.9659
vn -0.1305 -0.0000 -0.9914
vn -0.0438 -0.0000 -0.9990
vn -0.0000 1.0000 -0.0000
vn -0.2588 -0.0000 0.9659
vn -0.1761 -0.0000 0.9844
vn -0.3723 -0.0000 0.9281
vn 0.1305 -0.0000 0.9914
vn 0.2588 -0.0000 0.9659
vn 0.8489 0.1979 0.4901
vn 0.6931 0.1979 0.6931
vn -0.2537 0.1979 -0.9468
vn -0.0000 0.1979 -0.9802
vn 0.4901 0.1979 -0.8489
vn 0.2537 0.1979 -0.9468
vn -1.0000 0.0099 -0.0000
vn 0.4901 0.1979 0.8489
vn 0.6931 0.1979 -0.6931
vn 0.2537 0.1979 0.9468
vn 0.8489 0.1979 -0.4901
vn -0.0000 0.1979 0.9802
vn 0.9468 0.1979 -0.2537
vn -0.2537 0.1979 0.9468
vn 0.9802 0.1979 -0.0000
vn -0.4804 0.1605 -0.8622
vn -0.2030 0.1582 -0.9663
vn -0.4069 0.1858 -0.8944
vn -0.4901 0.1979 0.8489
vn 0.9468 0.1979 0.2537
vn -0.4901 0.1979 -0.8489
vn -0.4069 0.1858 0.8944
vn 0.1246 0.9896 0.0720
vn 0.1239 0.9897 -0.0715
vn 0.1886 0.9764 -0.1056
vn 0.2588 -0.0000 -0.9659
vn 0.1305 -0.0000 -0.9914
vn 0.2177 -0.0000 -0.9760
vn -0.0438 -0.0000 0.9990
vn 0.1767 -0.0000 0.9843
vn 0.2176 -0.0000 0.9760
vn -0.3722 -0.0000 -0.9282
vn 1.0000 -0.0000 -0.0000
vn 0.9998 -0.0000 0.0201
vn -0.0000 -0.0000 -1.0000
vn -0.3082 -0.9513 -0.0000
vn -0.3082 -0.9513 0.0075
vn -0.3107 -0.9505 0.0104
vn 0.3352 0.9421 -0.0000
vn 0.3391 0.9406 0.0157
vn 0.3391 0.9406 -0.0157
vn 0.3382 0.9409 -0.0206
vn 0.3352 0.9421 -0.0046
vn -0.3082 -0.9513 -0.0075
vn -0.0000 -0.0000 1.0000
vn 0.3298 0.9440 -0.0075
vn -0.3150 -0.9326 0.1763
vn -0.3298 -0.9440 0.0071
vn -0.3302 -0.9439 -0.0000
vn -0.1762 -0.0000 -0.9844
vn 0.1897 0.9761 0.1062
vn 0.3317 0.9434 0.0071
vn 0.3321 0.9433 -0.0000
vn -0.3167 -0.9318 -0.1772
vn -0.3317 -0.9434 -0.0075
vn -0.3161 -0.9310 -0.1825
vn 0.1767 -0.0000 -0.9843
vn -0.3107 -0.9505 -0.0104
vn 0.3382 0.9409 0.0206
vn 0.3459 0.9375 0.0384
vn -0.3111 -0.9502 0.0214
vn -0.3183 -0.9472 0.0377
vn 0.9998 -0.0000 -0.0201
vn -0.3111 -0.9502 -0.0214
vn -0.9998 -0.0000 0.0201
vn -0.9998 -0.0000 -0.0201
vn -0.0000 0.9995 -0.0329
vn -0.1919 0.9810 -0.0284
vn -0.0000 0.9995 0.0329
vn -0.1919 0.9810 0.0284
vn -0.1983 0.9797 0.0282
vn -0.0000 -0.9999 0.0140
vn -0.1923 -0.9813 0.0099
vn -0.0000 -0.9999 -0.0140
vn -0.1923 -0.9813 -0.0099
vn -0.1978 -0.9802 -0.0098
vn -0.9802 -0.1972 0.0169
vn -0.9816 0.1906 0.0135
vn -0.9811 -0.1929 0.0170
vn -0.9816 0.1906 -0.0135
vn -0.9802 -0.1972 -0.0169
vn -0.9811 -0.1929 -0.0170
vn -0.3827 0.9236 0.0227
vn -0.9239 0.3826 -0.0060
vn -0.9798 0.1994 -0.0131
vn -0.9238 -0.3827 -0.0132
vn -0.3827 -0.9239 0.0053
vn -0.1978 -0.9802 0.0098
vn -0.9798 0.1994 0.0131
vn -0.9239 0.3826 0.0060
vn -0.3827 0.9236 -0.0227
vn -0.1983 0.9797 -0.0282
vn -0.3826 -0.9239 -0.0053
vn -0.3827 -0.9239 -0.0053
vn -0.9238 -0.3827 0.0132
vn -0.4016 0.1140 -0.9087
vn -0.1305 -0.0000 0.9914
vn 0.3352 0.9421 0.0046
vn 0.3459 0.9375 -0.0384
vn 0.1761 -0.0000 0.9844
vn 0.1890 0.9763 -0.1053
vn 0.3302 0.9439 -0.0000
vn 0.3298 0.9440 -0.0071
vn -0.3144 -0.9318 0.1815
vn -0.3168 -0.9319 -0.1769
vn -0.3321 -0.9433 -0.0000
vn -0.3317 -0.9434 -0.0071
vn -0.1757 -0.0000 0.9844
vn -0.3183 -0.9472 -0.0377
vn -0.1345 -0.3653 -0.9211
vn -0.1353 -0.3678 -0.9200
vn -0.1353 -0.3679 -0.9200
vn -0.3199 -0.8696 -0.3762
vn -0.3202 -0.8706 -0.3736
vn -0.3202 -0.8706 -0.3735
vn -0.3202 -0.8706 0.3736
vn -0.3199 -0.8696 0.3762
vn -0.3202 -0.8706 0.3735
vn -0.1353 -0.3678 0.9200
vn -0.1345 -0.3653 0.9211
vn -0.1353 -0.3679 0.9200
vn 0.1354 0.3678 0.9200
vn 0.1346 0.3653 0.9211
vn 0.3207 0.8704 0.3736
vn 0.3204 0.8694 0.3762
vn 0.3207 0.8704 0.3735
vn 0.3204 0.8694 -0.3762
vn 0.3207 0.8704 -0.3736
vn 0.3207 0.8704 -0.3735
vn 0.1346 0.3653 -0.9211
vn 0.1354 0.3678 -0.9200
vn -1.0000 -0.0000 0.0065
vn 0.9287 -0.3707 -0.0061
vn -1.0000 -0.0000 -0.0000
vn -0.7071 -0.0000 -0.7071
vn -0.7071 -0.0000 0.7071
vn 0.7071 -0.0000 0.7071
vn 0.7071 -0.0000 -0.7071
vn -0.9239 -0.3827 -0.0000
vn -0.3827 -0.9239 -0.0000
vn -0.9239 0.3827 -0.0000
vn -0.3827 0.9239 -0.0000
vn -0.1345 -0.3652 -0.9211
vn -0.3199 -0.8695 -0.3762
vn -0.3199 -0.8695 0.3762
vn 0.1345 0.3652 0.9211
vn 0.1345 0.3652 -0.9211
vn 0.5000 -0.0000 -0.8660
vn 0.8660 -0.0000 -0.5000
vn 0.9659 -0.0000 -0.2588
vn 0.9659 -0.0000 0.2588
vn 0.8660 -0.0000 0.5000
vn 0.5000 -0.0000 0.8660
vn 0.3827 -0.0000 0.9239
vn -0.3827 -0.0000 0.9239
vn -0.5000 -0.0000 0.8660
vn -0.8660 -0.0000 0.5000
vn -0.9659 -0.0000 0.2588
vn -0.9659 -0.0000 -0.2588
vn -0.8660 -0.0000 -0.5000
vn -0.5000 -0.0000 -0.8660
vn -0.0000 1.0000 0.0039
vn 0.0001 0.9999 0.0149
vn -0.0000 0.9998 -0.0220
vn 0.0005 -1.0000 -0.0000
vn -0.0005 -1.0000 -0.0036
vn 0.5860 0.1714 0.7920
vn 0.3346 -0.4632 0.8207
vn 0.1436 -0.9279 0.3442
vn 0.1436 -0.9278 -0.3442
vn 0.3346 -0.4632 -0.8207
vn -0.9310 0.3651 0.0030
vn -0.9305 0.3663 -0.0000
vn -0.9321 0.3622 -0.0043
vn -0.9310 0.3651 -0.0030
vn -0.9332 0.3592 -0.0031
vn -0.9337 0.3580 -0.0000
vn -0.9337 0.3581 -0.0000
vn -0.9321 0.3622 0.0043
vn -0.9332 0.3593 0.0031
vn -0.9332 0.3593 -0.0031
vn -0.9332 0.3592 0.0031
vn -0.2382 -0.3139 -0.9191
vn -0.2389 -0.3113 -0.9198
vn -0.2422 -0.3003 -0.9226
vn -0.5885 -0.7215 -0.3648
vn -0.5903 -0.7174 -0.3699
vn -0.5924 -0.7127 -0.3757
vn -0.5903 -0.7174 0.3700
vn -0.5885 -0.7215 0.3648
vn -0.5924 -0.7127 0.3757
vn -0.2389 -0.3113 0.9198
vn -0.2382 -0.3139 0.9191
vn -0.2422 -0.3002 0.9226
vn 0.1945 0.3296 0.9239
vn 0.2043 0.3172 0.9261
vn 0.2160 0.3022 0.9285
vn 0.3158 0.8647 0.3906
vn 0.3775 0.8279 0.4149
vn 0.4071 0.8080 0.4260
vn 0.3775 0.8279 -0.4149
vn 0.3154 0.8649 -0.3905
vn 0.4071 0.8080 -0.4260
vn 0.2043 0.3172 -0.9261
vn 0.1945 0.3296 -0.9239
vn 0.2160 0.3022 -0.9285
vn 0.1529 0.3594 -0.9206
vn 0.3629 0.8531 -0.3749
vn 0.3629 0.8531 0.3749
vn 0.1529 0.3594 0.9206
vn -0.1529 -0.3594 0.9206
vn -0.3629 -0.8531 0.3749
vn -0.3629 -0.8531 -0.3749
vn -0.1529 -0.3594 -0.9206
vn 0.7449 0.5873 0.3165
vn 0.7449 0.5873 -0.3165
vn 0.5860 0.1714 -0.7920
vn 0.1436 -0.9278 0.3442
vn 0.1436 -0.9279 -0.3442
vn -0.2341 -0.3274 -0.9154
vn -0.5862 -0.7266 -0.3583
vn -0.5903 -0.7174 0.3699
vn -0.5862 -0.7266 0.3583
vn -0.2341 -0.3274 0.9154
vn 0.1770 0.3514 0.9193
vn 0.3154 0.8649 0.3905
vn 0.2724 0.8870 0.3727
vn 0.3772 0.8281 0.4147
vn 0.2724 0.8870 -0.3727
vn 0.1770 0.3514 -0.9193
vn -0.8947 0.4467 -0.0000
vn -0.8066 0.5911 -0.0000
vn -0.6696 -0.7428 -0.0000
vn -0.5122 -0.8589 -0.0000
vn 0.6894 -0.7244 -0.0000
vn 0.5505 -0.8349 -0.0000
vn -0.0001 -1.0000 -0.0000
vn -0.2182 -0.9759 -0.0000
vn -0.9572 0.2895 -0.0000
vn -0.9566 -0.2913 -0.0000
vn -0.8691 -0.4946 -0.0000
vn -0.8692 -0.4945 -0.0000
vn -0.5225 0.8526 -0.0000
vn 0.2334 0.9724 -0.0000
vn 0.8526 0.5225 -0.0000
vn 0.9724 -0.2334 -0.0000
vn 0.5225 -0.8526 -0.0000
vn -0.2334 -0.9724 -0.0000
vn -0.8526 -0.5225 -0.0000
vn -0.9724 0.2334 -0.0000
vn -0.5901 -0.8073 -0.0000
vn -0.6669 -0.7452 -0.0000
vn 0.8065 -0.5913 -0.0000
vn 0.6694 0.7429 -0.0000
vn 0.5919 0.8060 -0.0000
vn 0.5901 0.8073 -0.0000
vn -0.8964 0.4433 -0.0000
vn -0.8063 0.5915 -0.0000
vn -0.8672 -0.4979 -0.0000
vn -0.9552 -0.2959 -0.0000
vn -0.9594 0.2819 -0.0000
vn 0.8683 0.4960 -0.0000
vn 0.6695 0.7429 -0.0000
vn 0.9557 0.2942 -0.0000
vn 0.9594 -0.2822 -0.0000
vn 0.8963 -0.4435 -0.0000
vn -0.0047 1.0000 -0.0000
vn -0.6696 -0.7427 -0.0000
vt 0.158491 0.932821
vt 0.236822 0.926542
vt 0.164577 0.949018
vt 0.141144 0.497956
vt 0.170140 0.518034
vt 0.139172 0.518034
vt 0.272475 0.481245
vt 0.260245 0.574143
vt 0.185908 0.517102
vt 0.314867 0.591543
vt 0.282148 0.578375
vt 0.293126 0.569490
vt 0.202555 0.613260
vt 0.228006 0.588844
vt 0.221839 0.619191
vt 0.141144 0.538112
vt 0.175607 0.545607
vt 0.146983 0.557424
vt 0.184794 0.432376
vt 0.214508 0.451376
vt 0.202075 0.458074
vt 0.281333 0.422434
vt 0.282148 0.457693
vt 0.269652 0.451114
vt 0.241907 0.621258
vt 0.256115 0.588977
vt 0.261994 0.619382
vt 0.156467 0.575230
vt 0.191182 0.569006
vt 0.169233 0.590852
vt 0.169233 0.445217
vt 0.182246 0.477997
vt 0.156467 0.460838
vt 0.261994 0.416686
vt 0.242054 0.445777
vt 0.241907 0.414810
vt 0.281333 0.613634
vt 0.299185 0.604235
vt 0.184794 0.603692
vt 0.214508 0.584692
vt 0.171520 0.532089
vt 0.175607 0.490462
vt 0.171520 0.503980
vt 0.202555 0.422808
vt 0.228006 0.447224
vt 0.299184 0.431833
vt 0.293126 0.466578
vt 0.242054 0.590291
vt 0.182246 0.558071
vt 0.191182 0.467062
vt 0.256115 0.447091
vt 0.269652 0.584954
vt 0.202075 0.577995
vt 0.146983 0.478645
vt 0.221839 0.416877
vt 0.355951 0.674789
vt 0.331741 0.729534
vt 0.331741 0.674789
vt 0.292802 0.853465
vt 0.265293 0.845822
vt 0.281298 0.833540
vt 0.272936 0.873331
vt 0.281561 0.862091
vt 0.267514 0.886421
vt 0.253011 0.861828
vt 0.265665 0.900469
vt 0.245291 0.880467
vt 0.245290 0.920471
vt 0.242657 0.900469
vt 0.272936 0.927606
vt 0.267514 0.914516
vt 0.265293 0.955115
vt 0.253011 0.939110
vt 0.281561 0.938847
vt 0.281298 0.967397
vt 0.356133 0.729666
vt 0.380343 0.674921
vt 0.380343 0.729666
vt 0.303026 0.871163
vt 0.283061 0.895406
vt 0.287456 0.870483
vt 0.322059 0.870992
vt 0.305232 0.896374
vt 0.346583 0.881324
vt 0.326898 0.891571
vt 0.331314 0.859962
vt 0.362945 0.866331
vt 0.351179 0.836287
vt 0.341247 0.848124
vt 0.360434 0.825257
vt 0.374868 0.847615
vt 0.382510 0.804279
vt 0.381542 0.826450
vt 0.353925 0.791268
vt 0.357298 0.806484
vt 0.304133 0.674789
vt 0.287130 0.729534
vt 0.287130 0.674789
vt 0.137404 0.836450
vt 0.214768 0.843977
vt 0.138260 0.850593
vt 0.162255 0.712532
vt 0.228028 0.753951
vt 0.156678 0.725557
vt 0.147576 0.752382
vt 0.224503 0.763524
vt 0.221476 0.773266
vt 0.169701 0.961063
vt 0.240512 0.935215
vt 0.215908 0.854115
vt 0.139844 0.864672
vt 0.144077 0.766112
vt 0.218956 0.783151
vt 0.175200 0.973990
vt 0.244471 0.944522
vt 0.217571 0.864180
vt 0.142154 0.878651
vt 0.141291 0.780004
vt 0.216950 0.793154
vt 0.248430 0.953829
vt 0.180699 0.986916
vt 0.219752 0.874145
vt 0.145183 0.892492
vt 0.139226 0.794021
vt 0.215464 0.803246
vt 0.252120 0.962501
vt 0.185823 0.998961
vt 0.148922 0.906158
vt 0.222444 0.883985
vt 0.214500 0.813402
vt 0.137888 0.808126
vt 0.175388 0.687433
vt 0.252120 0.704389
vt 0.241500 0.726502
vt 0.153362 0.919613
vt 0.225641 0.893672
vt 0.214062 0.823594
vt 0.137280 0.822282
vt 0.236539 0.735416
vt 0.168497 0.699813
vt 0.229334 0.903182
vt 0.214152 0.833795
vt 0.232044 0.744574
vt 0.151780 0.738852
vt 0.296054 0.819148
vt 0.237437 0.785305
vt 0.256976 0.751463
vt 0.352529 0.647548
vt 0.331923 0.674921
vt 0.335527 0.647548
vt 0.368952 0.643148
vt 0.356133 0.674921
vt 0.368770 0.761307
vt 0.355951 0.729534
vt 0.379336 0.735800
vt 0.335345 0.756907
vt 0.352347 0.756907
vt 0.287312 0.729666
vt 0.304315 0.674921
vt 0.304315 0.729666
vt 0.270310 0.729666
vt 0.287312 0.674921
vt 0.331923 0.729666
vt 0.270128 0.729534
vt 0.270128 0.674789
vt 0.380161 0.674789
vt 0.304133 0.729534
vt 0.956039 0.781802
vt 0.893884 0.852332
vt 0.932111 0.769751
vt 0.890865 0.898939
vt 0.857526 0.982512
vt 0.833885 0.894386
vt 0.319939 0.846194
vt 0.299937 0.825820
vt 0.319939 0.823187
vt 0.305892 0.848043
vt 0.292802 0.947472
vt 0.305892 0.952894
vt 0.319939 0.954743
vt 0.299937 0.975117
vt 0.319939 0.977751
vt 0.933060 0.769976
vt 0.879378 0.743141
vt 0.935547 0.750207
vt 0.895048 0.851037
vt 0.836230 0.865353
vt 0.838153 0.845521
vt 0.835472 0.874525
vt 0.892452 0.879077
vt 0.937430 0.723339
vt 0.878987 0.736985
vt 0.881155 0.717178
vt 0.876891 0.762910
vt 0.027237 0.272773
vt 0.355043 0.316332
vt 0.012606 0.315985
vt 0.038157 0.252523
vt 0.369674 0.273121
vt 0.023486 0.336257
vt 0.355043 0.336257
vt 0.038551 0.379319
vt 0.370109 0.379319
vt 0.039338 0.273096
vt 0.371101 0.252831
vt 0.371122 0.272756
vt 0.024232 0.316144
vt 0.356037 0.335729
vt 0.013381 0.336432
vt 0.356017 0.315804
vt 0.028138 0.379600
vt 0.370794 0.378897
vt 0.324265 0.104617
vt 0.404101 0.124543
vt 0.324265 0.124542
vt 0.404102 0.106439
vt 0.324265 0.126364
vt 0.324265 0.106439
vt 0.030359 0.208893
vt 0.000348 0.124541
vt 0.030359 0.020265
vt 0.351027 0.029399
vt 0.351594 0.009483
vt 0.030927 0.000348
vt 0.000348 0.104616
vt 0.030359 0.022088
vt 0.351026 0.031221
vt 0.000348 0.106440
vt 0.351594 0.221499
vt 0.030359 0.210717
vt 0.351027 0.201582
vt 0.000348 0.126365
vt 0.835720 0.899164
vt 0.889841 0.897450
vt 0.912984 0.985458
vt 0.589710 0.208842
vt 0.475662 0.169892
vt 0.475662 0.130942
vt 0.833846 0.892038
vt 0.883411 0.716663
vt 0.938656 0.723597
vt 0.938656 0.977793
vt 0.915886 0.891205
vt 0.935261 0.743146
vt 0.876765 0.763676
vt 0.830450 0.847439
vt 0.837807 0.847835
vt 0.826533 0.891137
vt 0.876003 0.715704
vt 0.869336 0.762890
vt 0.873627 0.770455
vt 0.588812 0.132482
vt 0.475302 0.105696
vt 0.589350 0.105696
vt 0.589171 0.104156
vt 0.475123 0.104156
vt 0.589171 0.027512
vt 0.475662 0.000739
vt 0.589710 0.000738
vt 0.588811 0.001021
vt 0.475302 0.027795
vt 0.474763 0.001022
vt 0.440380 0.027718
vt 0.408834 0.001132
vt 0.439841 0.000945
vt 0.458631 0.202443
vt 0.451948 0.155304
vt 0.474764 0.132481
vt 0.459169 0.099011
vt 0.452487 0.050608
vt 0.409194 0.027402
vt 0.440740 0.000816
vt 0.440201 0.027590
vt 0.374265 0.027129
vt 0.391010 0.000424
vt 0.391728 0.027205
vt 0.408476 0.000620
vt 0.457662 0.027580
vt 0.458200 0.000806
vt 0.475123 0.027512
vt 0.408116 0.027914
vt 0.391369 0.001329
vt 0.390650 0.028110
vt 0.373906 0.001405
vt 0.457840 0.027728
vt 0.457302 0.000954
vt 0.475123 0.065834
vt 0.458990 0.034194
vt 0.452308 0.081333
vt 0.458990 0.097471
vt 0.452308 0.050325
vt 0.459529 0.137626
vt 0.452846 0.153764
vt 0.459529 0.202160
vt 0.475662 0.208842
vt 0.452846 0.186029
vt 0.304147 0.812937
vt 0.327305 0.795419
vt 0.327305 0.804844
vt 0.327305 0.785305
vt 0.304147 0.785305
vt 0.327305 0.775191
vt 0.304147 0.757673
vt 0.327305 0.765766
vt 0.189563 0.503461
vt 0.196624 0.491231
vt 0.206610 0.481245
vt 0.218840 0.474184
vt 0.232481 0.470528
vt 0.246604 0.470528
vt 0.260245 0.474183
vt 0.282461 0.491230
vt 0.289522 0.503461
vt 0.293177 0.517102
vt 0.293177 0.531224
vt 0.289522 0.544865
vt 0.282461 0.557095
vt 0.272475 0.567081
vt 0.246604 0.577798
vt 0.232482 0.577798
vt 0.218841 0.574143
vt 0.206610 0.567081
vt 0.196624 0.557095
vt 0.189563 0.544865
vt 0.185908 0.531224
vt 0.314867 0.444525
vt 0.377707 0.782613
vt 0.183637 0.672223
vt 0.266401 0.747559
vt 0.276515 0.746227
vt 0.286629 0.747559
vt 0.296054 0.751463
vt 0.286629 0.823051
vt 0.276515 0.824383
vt 0.266401 0.823051
vt 0.256976 0.819147
vt 0.248883 0.812937
vt 0.242673 0.804844
vt 0.238769 0.795419
vt 0.238769 0.775191
vt 0.242673 0.765766
vt 0.248883 0.757673
vt 0.379518 0.668655
vt 0.270310 0.674921
vt 0.380161 0.729534
vt 0.918428 0.863051
vt 0.914063 0.985413
vt 0.893125 0.870869
vt 0.369714 0.253196
vt 0.028445 0.252831
vt 0.404101 0.104618
vt 0.404102 0.126364
vt 0.351026 0.199760
vt 0.030927 0.230633
vt 0.857431 0.981727
vt 0.855531 0.974503
vt 0.589710 0.130942
vt 0.828132 0.874130
vt 0.828935 0.864453
vt 0.872190 0.742210
vt 0.871778 0.736223
vt 0.840903 0.841148
vt 0.589350 0.027795
vt 0.588811 0.209125
vt 0.474764 0.209125
vt 0.451948 0.186312
vt 0.458631 0.139166
vt 0.452487 0.082873
vt 0.459169 0.034477
vt 0.373547 0.000348
vt 0.373188 0.028186
vt 0.071802 0.403474
vt 0.085879 0.981510
vt 0.072027 0.979730
vt 0.057838 0.403204
vt 0.058079 0.978995
vt 0.044131 0.979741
vt 0.030281 0.981533
vt 0.043874 0.403485
vt 0.016430 0.983325
vt 0.029923 0.404157
vt 0.113680 0.984027
vt 0.127630 0.404792
vt 0.127630 0.983289
vt 0.099703 0.404793
vt 0.099731 0.983290
vt 0.085753 0.404133
vt 0.984733 0.357220
vt 0.961131 0.475824
vt 0.961131 0.357220
vt 0.616959 0.323785
vt 0.553909 0.274002
vt 0.638455 0.290060
vt 0.735649 0.249787
vt 0.703948 0.185710
vt 0.755537 0.218417
vt 0.684060 0.217080
vt 0.668548 0.356492
vt 0.690044 0.322768
vt 0.828763 0.357220
vt 0.808055 0.475824
vt 0.808055 0.357220
vt 0.704386 0.019305
vt 0.725304 0.082156
vt 0.659530 0.105997
vt 0.931778 0.357220
vt 0.911070 0.475824
vt 0.911070 0.357220
vt 0.881717 0.357220
vt 0.881717 0.475824
vt 0.858115 0.475824
vt 0.828762 0.475824
vt 0.778702 0.357220
vt 0.778702 0.475824
vt 0.858116 0.357220
vt 0.997191 0.332046
vt 0.780315 0.302446
vt 0.997191 0.302446
vt 0.780315 0.234672
vt 0.997191 0.137298
vt 0.780315 0.137298
vt 0.780315 0.069524
vt 0.996757 0.332673
vt 0.779881 0.303073
vt 0.996758 0.303073
vt 0.996758 0.167525
vt 0.779881 0.137925
vt 0.996758 0.137925
vt 0.997191 0.166898
vt 0.654309 0.137298
vt 0.749192 0.166898
vt 0.654309 0.166898
vt 0.653875 0.167525
vt 0.748758 0.137925
vt 0.748758 0.167525
vt 0.764320 0.332673
vt 0.748758 0.303073
vt 0.764320 0.303073
vt 0.749192 0.302446
vt 0.764754 0.332046
vt 0.749192 0.332046
vt 0.764754 0.302446
vt 0.780315 0.332046
vt 0.764320 0.167525
vt 0.764320 0.137925
vt 0.779881 0.167525
vt 0.780315 0.166898
vt 0.764754 0.137298
vt 0.764754 0.166898
vt 0.749192 0.137298
vt 0.779881 0.070151
vt 0.779881 0.332673
vt 0.765504 0.173480
vt 0.779881 0.235299
vt 0.779881 0.002377
vt 0.765504 0.008333
vt 0.765504 0.297118
vt 0.759549 0.282741
vt 0.759549 0.187857
vt 0.759549 0.022710
vt 0.759549 0.117593
vt 0.765504 0.131970
vt 0.780315 0.001750
vt 0.765938 0.007705
vt 0.759983 0.022082
vt 0.765938 0.131343
vt 0.759983 0.116966
vt 0.765938 0.172853
vt 0.759983 0.187230
vt 0.765938 0.296490
vt 0.759983 0.282114
vt 0.740296 0.392630
vt 0.710143 0.414319
vt 0.630014 0.416402
vt 0.578425 0.383695
vt 0.610616 0.382179
vt 0.607502 0.367837
vt 0.613886 0.357912
vt 0.628228 0.354798
vt 0.636936 0.360398
vt 0.619324 0.387780
vt 0.640050 0.374741
vt 0.633666 0.384666
vt 0.997191 0.001750
vt 0.653875 0.137925
vt 0.748758 0.332673
vt 0.996758 0.002377
vt 0.015973 0.404828
vt 0.113666 0.405066
vt 0.984733 0.475824
vt 0.546978 0.310493
vt 0.638612 0.085079
vt 0.638612 0.043146
vt 0.662453 0.019305
vt 0.725304 0.040223
vt 0.701463 0.105997
vt 0.931778 0.475824
vt 0.462786 0.548643
vt 0.504803 0.522010
vt 0.504802 0.548643
vt 0.462786 0.522010
vt 0.504802 0.495378
vt 0.462786 0.495378
vt 0.504803 0.468745
vt 0.462786 0.468745
vt 0.504803 0.442112
vt 0.462786 0.442112
vt 0.504803 0.415480
vt 0.462786 0.415480
vt 0.504803 0.388847
vt 0.462786 0.388847
vt 0.504803 0.362214
vt 0.462786 0.362214
vt 0.504803 0.335581
vt 0.462786 0.335581
vt 0.504803 0.308949
vt 0.462786 0.308949
vt 0.504803 0.282316
vt 0.462786 0.282316
vt 0.504803 0.255684
vt 0.752572 0.761246
vt 0.714721 0.764886
vt 0.735466 0.744140
vt 0.756212 0.723395
vt 0.776049 0.743232
vt 0.462786 0.841603
vt 0.504803 0.814970
vt 0.504803 0.841603
vt 0.462786 0.814970
vt 0.504803 0.788337
vt 0.462786 0.788337
vt 0.504803 0.761704
vt 0.462786 0.761705
vt 0.504803 0.735072
vt 0.462786 0.735072
vt 0.504803 0.708439
vt 0.462786 0.708439
vt 0.504803 0.681806
vt 0.462786 0.681806
vt 0.504803 0.655174
vt 0.462786 0.655174
vt 0.504803 0.628541
vt 0.462786 0.628541
vt 0.504803 0.601908
vt 0.874472 0.666967
vt 0.894344 0.657632
vt 0.909258 0.657632
vt 0.874472 0.535011
vt 0.945275 0.544332
vt 0.909258 0.544346
vt 0.462786 0.601908
vt 0.504803 0.575276
vt 0.462786 0.575276
vt 0.929130 0.666439
vt 0.858327 0.657118
vt 0.894344 0.657104
vt 0.874472 0.534483
vt 0.945275 0.543804
vt 0.909258 0.543818
vt 0.827074 0.686744
vt 0.789223 0.690384
vt 0.809968 0.669638
vt 0.809060 0.710221
vt 0.701547 0.817734
vt 0.734558 0.784723
vt 0.830714 0.648893
vt 0.850551 0.668730
vt 0.462786 0.255683
vt 0.923664 0.653771
vt 0.929130 0.666967
vt 0.911122 0.671792
vt 0.892480 0.671792
vt 0.858327 0.657646
vt 0.867022 0.646314
vt 0.879938 0.653771
vt 0.856476 0.635768
vt 0.845144 0.644463
vt 0.835823 0.628318
vt 0.830998 0.610310
vt 0.830998 0.591667
vt 0.835823 0.573660
vt 0.845144 0.557514
vt 0.858327 0.544332
vt 0.892480 0.530185
vt 0.911122 0.530185
vt 0.929130 0.535011
vt 0.958458 0.557514
vt 0.967779 0.573660
vt 0.972604 0.591667
vt 0.972604 0.610310
vt 0.967779 0.628318
vt 0.958458 0.644463
vt 0.945275 0.657646
vt 0.936580 0.646314
vt 0.947126 0.635768
vt 0.849018 0.622852
vt 0.845158 0.608446
vt 0.954584 0.622852
vt 0.845158 0.593532
vt 0.958444 0.608446
vt 0.958444 0.593532
vt 0.849018 0.579126
vt 0.856476 0.566209
vt 0.954584 0.579126
vt 0.867022 0.555663
vt 0.947126 0.566209
vt 0.936580 0.555663
vt 0.879938 0.548206
vt 0.894344 0.544346
vt 0.923664 0.548206
vt 0.909258 0.657104
vt 0.923664 0.653244
vt 0.911122 0.671264
vt 0.892480 0.671264
vt 0.874472 0.666439
vt 0.867022 0.645787
vt 0.879938 0.653244
vt 0.856476 0.635241
vt 0.845144 0.643935
vt 0.835823 0.627790
vt 0.830998 0.609783
vt 0.830998 0.591140
vt 0.835823 0.573132
vt 0.845144 0.556987
vt 0.858327 0.543804
vt 0.892480 0.529658
vt 0.911122 0.529658
vt 0.929130 0.534483
vt 0.958458 0.556987
vt 0.967779 0.573132
vt 0.972604 0.591140
vt 0.972604 0.609783
vt 0.967779 0.627790
vt 0.958458 0.643935
vt 0.945275 0.657118
vt 0.936580 0.645787
vt 0.947127 0.635241
vt 0.849018 0.622324
vt 0.845158 0.607918
vt 0.954584 0.622324
vt 0.845158 0.593004
vt 0.958444 0.607918
vt 0.958444 0.593004
vt 0.849018 0.578598
vt 0.856476 0.565682
vt 0.954584 0.578598
vt 0.867022 0.555136
vt 0.947126 0.565682
vt 0.936580 0.555136
vt 0.879938 0.547679
vt 0.894344 0.543818
vt 0.923664 0.547679
vt 0.681710 0.797897
vt 0.568572 0.944563
vt 0.537280 0.956369
vt 0.553971 0.936334
vt 0.520480 0.936775
vt 0.543062 0.923611
vt 0.511467 0.912589
vt 0.537210 0.907906
vt 0.537156 0.891146
vt 0.511384 0.886778
vt 0.616123 0.936055
vt 0.649618 0.936193
vt 0.632994 0.955938
vt 0.153748 0.658318
vt 0.140500 0.649839
vt 0.143872 0.648442
vt 0.153748 0.624599
vt 0.140500 0.633079
vt 0.152351 0.621227
vt 0.167715 0.624599
vt 0.180963 0.633078
vt 0.177591 0.634475
vt 0.167715 0.658318
vt 0.180963 0.649839
vt 0.169112 0.661690
vt 0.152351 0.661690
vt 0.143872 0.634475
vt 0.169112 0.621227
vt 0.177591 0.648442
vt 0.294410 0.628061
vt 0.316404 0.638658
vt 0.303163 0.654603
vt 0.278832 0.634244
vt 0.288540 0.664224
vt 0.271053 0.665000
vt 0.250979 0.659843
vt 0.262587 0.638365
vt 0.359108 0.604284
vt 0.366040 0.585149
vt 0.379236 0.599341
vt 0.343253 0.611702
vt 0.352748 0.595358
vt 0.324403 0.613094
vt 0.329650 0.622718
vt 0.309410 0.620584
vt 0.348497 0.964209
vt 0.511384 0.938399
vt 0.511184 0.964209
vt 0.348697 0.938399
vt 0.348697 0.886778
vt 0.820237 0.989670
vt 0.657349 0.963860
vt 0.820037 0.963860
vt 0.657149 0.938050
vt 0.819836 0.938050
vt 0.657066 0.912240
vt 0.819753 0.912240
vt 0.819836 0.886429
vt 0.348296 0.990018
vt 0.510984 0.990018
vt 0.585097 0.947359
vt 0.559766 0.969040
vt 0.610623 0.968811
vt 0.585214 0.973346
vt 0.601597 0.944414
vt 0.626918 0.923233
vt 0.246051 0.641100
vt 0.339204 0.605230
vt 0.348780 0.912589
vt 0.657549 0.989670
vt 0.657149 0.886429
vt 0.994327 0.817174
vt 0.962802 0.831297
vt 0.962802 0.817174
vt 0.994327 0.831297
vt 0.962802 0.845419
vt 0.994327 0.845419
vt 0.962802 0.859541
vt 0.994327 0.859541
vt 0.962802 0.873664
vt 0.994327 0.873664
vt 0.962802 0.887786
vt 0.994327 0.887786
vt 0.962802 0.901908
vt 0.994327 0.901908
vt 0.962802 0.916030
vt 0.994327 0.916030
vt 0.962802 0.930153
vt 0.994327 0.930153
vt 0.962802 0.944275
vt 0.994327 0.944275
vt 0.962802 0.958397
vt 0.994327 0.958397
vt 0.962802 0.972519
vt 0.994327 0.972519
vt 0.962802 0.986642
vt 0.994327 0.647707
vt 0.962802 0.661830
vt 0.962802 0.647707
vt 0.994327 0.661830
vt 0.962802 0.675952
vt 0.994327 0.675952
vt 0.962802 0.690074
vt 0.994327 0.690074
vt 0.962802 0.704196
vt 0.994327 0.704196
vt 0.962802 0.718319
vt 0.994327 0.718319
vt 0.962802 0.732441
vt 0.994327 0.732441
vt 0.962802 0.746563
vt 0.994327 0.746563
vt 0.962802 0.760685
vt 0.994327 0.760685
vt 0.962802 0.774808
vt 0.994327 0.774808
vt 0.962802 0.788930
vt 0.994327 0.788930
vt 0.962802 0.803052
vt 0.994327 0.803052
vt 0.994327 0.986642
vt 0.446808 0.427699
vt 0.410834 0.232841
vt 0.446808 0.232841
vt 0.632238 0.759429
vt 0.645887 0.751305
vt 0.654210 0.752382
vt 0.731374 0.612328
vt 0.675901 0.700636
vt 0.661621 0.693659
vt 0.410834 0.455149
vt 0.446808 0.495619
vt 0.410834 0.495619
vt 0.647416 0.873419
vt 0.641549 0.860400
vt 0.643953 0.860497
vt 0.587853 0.715344
vt 0.639049 0.803549
vt 0.624784 0.807560
vt 0.410834 0.523174
vt 0.446808 0.515189
vt 0.446808 0.523174
vt 0.410834 0.515189
vt 0.446808 0.505945
vt 0.410834 0.505945
vt 0.410834 0.435654
vt 0.410834 0.427699
vt 0.446808 0.435654
vt 0.410834 0.444845
vt 0.446808 0.444845
vt 0.604324 0.568977
vt 0.529992 0.588143
vt 0.529992 0.568977
vt 0.604324 0.607309
vt 0.529992 0.607309
vt 0.604324 0.453982
vt 0.529992 0.473148
vt 0.529992 0.453982
vt 0.604324 0.473148
vt 0.529992 0.492313
vt 0.604324 0.492314
vt 0.529992 0.511479
vt 0.604324 0.530645
vt 0.529992 0.530645
vt 0.581610 0.823235
vt 0.560098 0.875168
vt 0.508165 0.853656
vt 0.529992 0.549811
vt 0.604324 0.549811
vt 0.409193 0.770086
vt 0.445168 0.613073
vt 0.445168 0.770086
vt 0.446808 0.718033
vt 0.511272 0.709819
vt 0.516326 0.724022
vt 0.409193 0.303589
vt 0.445168 0.333941
vt 0.409193 0.333941
vt 0.803258 0.634256
vt 0.810877 0.620505
vt 0.409193 0.490953
vt 0.643705 0.508671
vt 0.675929 0.496407
vt 0.649788 0.519243
vt 0.445168 0.571820
vt 0.409193 0.528727
vt 0.445168 0.528727
vt 0.409193 0.613073
vt 0.445168 0.597601
vt 0.409193 0.597601
vt 0.445168 0.583775
vt 0.409193 0.583775
vt 0.691303 0.620627
vt 0.688667 0.630854
vt 0.659919 0.613819
vt 0.445168 0.277788
vt 0.445168 0.303589
vt 0.409193 0.277788
vt 0.445168 0.254716
vt 0.410834 0.788563
vt 0.446808 0.768621
vt 0.446808 0.788563
vt 0.410834 0.718033
vt 0.531428 0.800321
vt 0.583361 0.821833
vt 0.561849 0.873766
vt 0.445168 0.490953
vt 0.545606 0.663188
vt 0.515499 0.692915
vt 0.527848 0.677830
vt 0.540381 0.753649
vt 0.809447 0.602372
vt 0.799349 0.584717
vt 0.773224 0.660494
vt 0.783655 0.566654
vt 0.688311 0.611999
vt 0.667573 0.586410
vt 0.638721 0.587662
vt 0.681110 0.639941
vt 0.672978 0.467211
vt 0.702069 0.473570
vt 0.647394 0.489562
vt 0.642829 0.497807
vt 0.654682 0.766645
vt 0.647369 0.768129
vt 0.639301 0.765414
vt 0.611302 0.733713
vt 0.622106 0.732277
vt 0.629119 0.745322
vt 0.623592 0.716622
vt 0.608168 0.725816
vt 0.608660 0.718547
vt 0.612460 0.713653
vt 0.664270 0.753134
vt 0.680071 0.741511
vt 0.631744 0.702529
vt 0.686275 0.728331
vt 0.645516 0.694305
vt 0.684831 0.713384
vt 0.446808 0.455149
vt 0.656846 0.858385
vt 0.653952 0.869601
vt 0.640468 0.874677
vt 0.627981 0.858829
vt 0.680651 0.831336
vt 0.683110 0.836855
vt 0.681898 0.843797
vt 0.677140 0.850338
vt 0.658707 0.857833
vt 0.667501 0.846861
vt 0.634156 0.872213
vt 0.614647 0.844878
vt 0.669580 0.831894
vt 0.610803 0.831574
vt 0.664838 0.817303
vt 0.614447 0.817895
vt 0.653698 0.807071
vt 0.604324 0.588143
vt 0.604324 0.511479
vt 0.508165 0.823234
vt 0.529676 0.801723
vt 0.560098 0.801723
vt 0.581610 0.853657
vt 0.529676 0.875168
vt 0.409193 0.571820
vt 0.409193 0.254716
vt 0.410834 0.768621
vt 0.531428 0.873766
vt 0.509916 0.852255
vt 0.509916 0.821833
vt 0.561850 0.800321
vt 0.583361 0.852255
s 1
g off
g PataDelanteraIzquierda_SpacialRoverExploreralumWhite
usemtl SpacialRoverExploreralumWhite
f 56/1/1 137/2/2 58/3/3
s 2
f 27/4/4 73/5/5 25/6/5
s 3
f 80/7/6 88/8/6 96/9/6
s 2
f 49/10/7 86/11/8 85/12/7
f 61/13/9 90/14/10 59/15/10
f 71/16/11 95/17/12 69/18/12
f 35/19/13 79/20/14 78/21/15
f 45/22/16 84/23/17 83/24/16
f 57/25/18 88/26/19 55/27/19
f 67/28/20 93/29/21 65/30/21
f 33/31/22 76/32/23 31/33/23
f 43/34/24 81/35/25 41/36/25
f 53/37/26 86/11/8 51/38/8
f 63/39/27 91/40/9 61/13/9
f 25/6/5 96/41/11 71/16/11
f 27/4/4 75/42/28 74/43/29
f 37/44/14 80/45/30 79/20/14
f 47/46/17 85/47/7 84/23/17
f 57/25/18 90/14/10 89/48/18
f 67/28/20 95/17/12 94/49/20
f 33/31/22 78/21/15 77/50/22
f 43/34/24 83/24/16 82/51/24
f 53/37/26 88/26/19 87/52/26
f 65/30/21 92/53/27 63/39/27
f 31/33/23 75/42/28 29/54/28
f 39/55/30 81/35/25 80/45/30
s 4
f 120/56/31 145/57/32 98/58/33
s 5
f 30/59/34 100/60/34 99/61/34
f 34/62/34 100/60/34 32/63/34
f 36/64/34 101/65/34 34/62/34
f 38/66/34 102/67/34 36/64/34
f 38/66/34 104/68/34 103/69/34
f 42/70/34 104/68/34 40/71/34
f 42/70/34 106/72/34 105/73/34
f 44/74/34 107/75/34 106/72/34
s 4
f 110/76/35 148/77/36 111/78/37
s 6
f 56/79/34 111/80/34 54/81/34
f 58/82/34 112/83/34 56/79/34
f 58/82/34 114/84/34 113/85/34
f 60/86/34 115/87/34 114/84/34
f 64/88/34 115/87/34 62/89/34
f 66/90/34 116/91/34 64/88/34
f 66/90/34 118/92/34 117/93/34
f 70/94/34 118/92/34 68/95/34
s 7
f 26/96/38 155/97/39 72/98/39
s 1
f 42/99/40 130/100/41 44/101/41
f 72/102/42 122/103/43 26/104/43
f 30/105/44 121/106/45 123/107/44
s 8
f 60/108/46 137/2/46 138/109/46
s 1
f 44/101/41 131/110/47 46/111/47
f 32/112/48 123/107/44 124/113/48
s 8
f 62/114/46 138/109/46 139/115/46
s 1
f 46/111/47 132/116/49 48/117/49
f 34/118/50 124/113/48 125/119/50
s 8
f 62/114/46 140/120/46 64/121/46
s 1
f 48/117/49 133/122/51 50/123/51
f 36/124/52 125/119/50 126/125/52
s 8
f 64/121/46 141/126/46 66/127/46
s 1
f 52/128/53 133/122/51 134/129/53
f 36/124/52 127/130/54 38/131/54
f 68/132/55 141/133/56 142/134/57
f 54/135/58 134/129/53 135/136/58
f 38/131/54 128/137/59 40/138/59
f 68/132/55 143/139/60 70/140/60
f 56/1/1 135/136/58 136/141/61
f 40/138/59 129/142/40 42/99/40
f 70/140/60 144/143/42 72/102/42
f 28/144/45 122/103/43 121/106/45
s 9
f 135/145/34 127/146/34 123/147/34
s 10
f 153/148/34 146/149/34 152/150/34
f 154/151/62 147/152/34 153/148/34
s 11
f 156/153/63 149/154/34 150/155/64
f 151/156/34 149/154/34 155/157/34
s 12
f 52/158/65 152/159/66 50/160/66
f 54/161/67 153/162/65 52/158/65
s 4
f 109/163/68 147/152/35 110/76/35
s 7
f 72/98/39 156/164/69 70/165/70
s 4
f 119/166/71 149/154/31 120/56/31
s 13
f 98/58/72 151/167/72 26/96/72
s 14
f 205/168/73 218/169/73 219/170/73
s 15
f 206/171/74 204/172/74 203/173/74
s 16
f 109/163/72 152/159/72 146/149/72
s 5
f 26/174/34 97/175/34 98/176/34
f 26/174/34 28/177/34 97/175/34
f 107/75/34 46/178/34 48/179/34
f 28/177/34 30/59/34 99/61/34
f 28/177/34 99/61/34 97/175/34
f 50/180/34 108/181/34 48/179/34
f 109/182/34 108/181/34 50/180/34
f 108/181/34 107/75/34 48/179/34
s 17
f 210/183/75 160/184/76 209/185/77
s 18
f 212/186/78 162/187/79 161/188/78
s 19
f 158/189/80 218/169/81 207/190/82
s 20
f 208/191/75 157/192/83 204/193/75
s 21
f 212/186/84 159/194/84 210/183/84
s 19
f 206/171/78 158/189/80 207/190/82
s 7
f 156/195/69 165/196/84 70/197/70
s 11
f 150/198/64 166/199/85 156/195/63
s 22
f 119/200/86 165/196/87 163/201/88
s 4
f 150/202/89 163/201/74 164/203/74
s 10
f 148/204/90 168/205/91 169/206/92
s 23
f 111/207/93 167/208/94 54/209/95
s 4
f 148/204/36 170/210/84 111/207/37
s 12
f 154/211/96 167/208/74 168/212/74
s 24
f 172/213/72 171/214/72 173/215/72
s 25
f 176/216/72 177/217/72 178/218/72
s 15
f 173/215/74 208/219/74 206/220/74
s 26
f 172/213/84 205/221/84 174/222/84
s 20
f 171/223/75 205/221/97 208/224/75
s 19
f 172/213/78 206/220/78 207/225/82
s 21
f 178/218/84 210/226/84 176/227/84
s 18
f 177/217/78 212/228/78 178/218/78
s 17
f 176/229/75 209/230/77 175/231/75
s 27
f 177/217/74 209/230/74 211/232/74
s 28
f 221/233/74 220/234/74 217/235/74
f 224/236/74 254/237/74 236/238/74
s 18
f 162/187/79 220/234/98 215/239/99
s 17
f 209/185/77 216/240/100 217/241/101
s 29
f 209/242/102 220/234/102 211/243/102
s 20
f 205/244/97 213/245/103 157/192/83
s 30
f 158/189/104 226/246/104 214/247/104
s 31
f 221/248/105 162/187/105 215/239/105
s 32
f 160/184/105 224/249/105 216/240/105
s 33
f 227/250/104 157/192/104 213/245/104
s 34
f 227/251/84 219/170/84 218/169/84
s 35
f 225/252/106 247/253/107 226/254/106
s 36
f 222/255/108 236/238/109 229/256/110
s 37
f 223/257/111 238/258/112 224/259/111
s 38
f 228/260/113 251/261/114 244/262/115
s 39
f 250/263/116 241/264/117 245/265/118
s 40
f 246/266/74 241/267/74 242/268/74
s 34
f 249/269/84 250/270/84 251/261/84
s 41
f 230/271/119 239/272/120 232/273/121
s 36
f 229/274/110 237/275/122 231/276/122
s 41
f 231/276/123 235/277/124 230/271/119
f 239/272/120 234/278/125 232/273/121
s 37
f 240/279/126 233/280/127 234/278/126
s 39
f 248/281/128 243/282/129 241/264/117
s 35
f 249/283/130 242/284/131 243/282/130
s 38
f 244/262/115 252/285/132 246/286/133
s 39
f 246/286/134 250/263/116 245/265/118
s 42
f 222/255/84 253/287/84 233/280/84
f 233/280/84 253/287/84 234/288/84
f 230/289/84 253/287/84 231/290/84
f 231/290/84 253/287/84 229/256/84
f 234/288/84 253/287/84 232/291/84
f 232/291/84 253/287/84 230/289/84
s 28
f 236/238/74 254/237/74 237/292/74
f 237/292/74 254/237/74 235/293/74
f 240/294/74 254/237/74 238/295/74
f 235/293/74 254/237/74 239/296/74
f 239/296/74 254/237/74 240/294/74
s 9
f 136/297/34 138/298/34 137/299/34
f 139/300/34 255/301/34 140/302/34
f 140/302/34 142/303/34 141/304/34
f 138/298/34 255/301/34 139/300/34
s 1
f 56/1/1 136/141/61 137/2/2
s 2
f 27/4/4 74/43/29 73/5/5
s 3
f 96/9/6 73/305/6 74/306/6
f 74/306/6 75/307/6 76/308/6
f 76/308/6 77/309/6 78/310/6
f 78/310/6 79/311/6 80/7/6
f 80/7/6 81/312/6 82/313/6
f 82/313/6 83/314/6 84/315/6
f 84/315/6 85/316/6 86/317/6
f 86/317/6 87/318/6 88/8/6
f 88/8/6 89/319/6 90/320/6
f 90/320/6 91/321/6 92/322/6
f 92/322/6 93/323/6 94/324/6
f 94/324/6 95/325/6 96/9/6
f 96/9/6 74/306/6 76/308/6
f 76/308/6 78/310/6 80/7/6
f 80/7/6 82/313/6 84/315/6
f 84/315/6 86/317/6 88/8/6
f 88/8/6 90/320/6 92/322/6
f 92/322/6 94/324/6 96/9/6
f 96/9/6 76/308/6 80/7/6
f 80/7/6 84/315/6 88/8/6
f 88/8/6 92/322/6 96/9/6
s 2
f 49/10/7 51/38/8 86/11/8
f 61/13/9 91/40/9 90/14/10
f 71/16/11 96/41/11 95/17/12
f 35/19/13 37/44/14 79/20/14
f 45/22/16 47/46/17 84/23/17
f 57/25/18 89/48/18 88/26/19
f 67/28/20 94/49/20 93/29/21
f 33/31/22 77/50/22 76/32/23
f 43/34/24 82/51/24 81/35/25
f 53/37/26 87/52/26 86/11/8
f 63/39/27 92/53/27 91/40/9
f 25/6/5 73/5/5 96/41/11
f 27/4/4 29/54/28 75/42/28
f 37/44/14 39/55/30 80/45/30
f 47/46/17 49/326/7 85/47/7
f 57/25/18 59/15/10 90/14/10
f 67/28/20 69/18/12 95/17/12
f 33/31/22 35/19/13 78/21/15
f 43/34/24 45/22/16 83/24/16
f 53/37/26 55/27/19 88/26/19
f 65/30/21 93/29/21 92/53/27
f 31/33/23 76/32/23 75/42/28
f 39/55/30 41/36/25 81/35/25
s 4
f 120/56/31 149/154/31 145/57/32
s 5
f 30/59/34 32/63/34 100/60/34
f 34/62/34 101/65/34 100/60/34
f 36/64/34 102/67/34 101/65/34
f 38/66/34 103/69/34 102/67/34
f 38/66/34 40/71/34 104/68/34
f 42/70/34 105/73/34 104/68/34
f 42/70/34 44/74/34 106/72/34
f 44/74/34 46/178/34 107/75/34
s 4
f 110/76/35 147/152/35 148/77/36
s 6
f 56/79/34 112/83/34 111/80/34
f 58/82/34 113/85/34 112/83/34
f 58/82/34 60/86/34 114/84/34
f 60/86/34 62/89/34 115/87/34
f 64/88/34 116/91/34 115/87/34
f 66/90/34 117/93/34 116/91/34
f 66/90/34 68/95/34 118/92/34
f 70/94/34 119/327/34 118/92/34
s 7
f 26/96/38 151/167/38 155/97/39
s 1
f 42/99/40 129/142/40 130/100/41
f 72/102/42 144/143/42 122/103/43
f 30/105/44 28/144/45 121/106/45
s 8
f 60/108/46 58/3/46 137/2/46
s 1
f 44/101/41 130/100/41 131/110/47
f 32/112/48 30/105/44 123/107/44
s 8
f 62/114/46 60/108/46 138/109/46
s 1
f 46/111/47 131/110/47 132/116/49
f 34/118/50 32/112/48 124/113/48
s 8
f 62/114/46 139/115/46 140/120/46
s 1
f 48/117/49 132/116/49 133/122/51
f 36/124/52 34/118/50 125/119/50
s 8
f 64/121/46 140/120/46 141/126/46
s 1
f 52/128/53 50/123/51 133/122/51
f 36/124/52 126/125/52 127/130/54
f 68/132/55 66/328/135 141/133/56
f 54/135/58 52/128/53 134/129/53
f 38/131/54 127/130/54 128/137/59
f 68/132/55 142/134/57 143/139/60
f 56/1/1 54/135/58 135/136/58
f 40/138/59 128/137/59 129/142/40
f 70/140/60 143/139/60 144/143/42
f 28/144/45 26/104/43 122/103/43
s 9
f 123/147/34 121/329/34 122/330/34
f 122/330/34 144/331/34 143/332/34
f 143/332/34 142/303/34 255/301/34
f 255/301/34 136/297/34 135/145/34
f 135/145/34 134/333/34 133/334/34
f 133/334/34 132/335/34 131/336/34
f 131/336/34 130/337/34 129/338/34
f 129/338/34 128/339/34 127/146/34
f 127/146/34 126/340/34 125/341/34
f 125/341/34 124/342/34 123/147/34
f 123/147/34 122/330/34 143/332/34
f 143/332/34 255/301/34 135/145/34
f 135/145/34 133/334/34 131/336/34
f 131/336/34 129/338/34 127/146/34
f 127/146/34 125/341/34 123/147/34
f 123/147/34 143/332/34 135/145/34
f 135/145/34 131/336/34 127/146/34
s 10
f 153/148/34 147/152/34 146/149/34
f 154/151/62 148/343/90 147/152/34
s 11
f 156/153/63 155/157/34 149/154/34
f 151/156/34 145/57/34 149/154/34
s 12
f 52/158/65 153/162/65 152/159/66
f 54/161/67 154/344/96 153/162/65
s 4
f 109/163/68 146/149/136 147/152/35
s 7
f 72/98/39 155/97/39 156/164/69
s 4
f 119/166/71 150/345/89 149/154/31
s 13
f 98/58/72 145/57/72 151/167/72
s 14
f 205/168/73 207/346/73 218/169/73
s 15
f 206/171/74 208/347/74 204/172/74
s 16
f 109/163/72 50/160/72 152/159/72
s 43
f 210/183/75 159/194/75 160/184/76
s 18
f 212/186/78 211/348/137 162/187/79
s 19
f 158/189/80 214/247/138 218/169/81
s 20
f 208/191/75 205/244/97 157/192/83
s 44
f 212/186/84 161/188/84 159/194/84
s 45
f 206/171/78 203/173/78 158/189/80
s 46
f 156/195/139 166/199/84 165/196/84
s 47
f 150/198/140 164/349/141 166/199/142
s 22
f 119/200/86 70/197/143 165/196/87
s 4
f 150/202/89 119/200/71 163/201/74
s 10
f 148/204/90 154/350/62 168/205/91
s 48
f 111/207/144 170/210/145 167/208/146
s 49
f 148/204/147 169/206/84 170/210/84
s 12
f 154/211/96 54/209/67 167/208/74
s 24
f 172/213/72 174/351/72 171/214/72
s 25
f 176/216/72 175/352/72 177/217/72
s 15
f 173/215/74 171/353/74 208/219/74
s 26
f 172/213/84 207/225/84 205/221/84
s 20
f 171/223/75 174/222/75 205/221/97
s 19
f 172/213/78 173/215/78 206/220/78
s 21
f 178/218/84 212/228/84 210/226/84
s 18
f 177/217/78 211/232/137 212/228/78
s 17
f 176/229/75 210/354/75 209/230/77
s 27
f 177/217/74 175/231/74 209/230/74
s 28
f 217/235/74 216/355/74 224/356/74
f 221/233/74 215/239/74 220/234/74
f 217/235/74 224/356/74 221/233/74
f 236/238/74 221/357/74 224/236/74
f 224/236/74 238/295/74 254/237/74
s 18
f 162/187/79 211/348/137 220/234/98
s 17
f 209/185/77 160/184/76 216/240/100
s 29
f 209/242/102 217/235/102 220/234/102
s 20
f 205/244/97 219/170/148 213/245/103
s 30
f 158/189/104 225/358/104 226/246/104
s 50
f 221/248/105 222/359/105 162/187/105
s 32
f 160/184/105 223/360/105 224/249/105
s 51
f 227/250/104 228/361/104 157/192/104
s 34
f 218/169/84 214/247/84 226/362/84
f 227/251/84 213/245/84 219/170/84
f 218/169/84 226/362/84 227/251/84
s 35
f 225/252/106 242/268/131 247/253/107
s 36
f 222/255/108 221/357/108 236/238/109
s 37
f 223/257/111 233/280/127 238/258/112
s 38
f 228/260/113 227/363/113 251/261/114
s 39
f 250/263/116 248/281/128 241/264/117
s 52
f 242/268/74 225/252/74 228/364/74
s 40
f 228/364/74 244/365/74 246/266/74
f 246/266/74 245/366/74 241/267/74
f 241/267/74 243/367/74 242/268/74
f 242/268/74 228/364/74 246/266/74
s 34
f 251/261/84 227/363/84 226/254/84
f 226/254/84 247/253/84 249/269/84
f 249/269/84 248/368/84 250/270/84
f 250/270/84 252/369/84 251/261/84
f 251/261/84 226/254/84 249/269/84
s 41
f 230/271/119 235/277/124 239/272/120
s 36
f 229/274/110 236/370/109 237/275/122
s 41
f 231/276/123 237/275/123 235/277/124
f 239/272/120 240/279/125 234/278/125
s 37
f 240/279/126 238/258/112 233/280/127
s 39
f 248/281/128 249/283/129 243/282/129
s 35
f 249/283/130 247/371/107 242/284/131
s 38
f 244/262/115 251/261/114 252/285/132
s 39
f 246/286/134 252/285/134 250/263/116
s 53
f 233/280/84 223/257/84 222/255/84
s 42
f 222/255/84 229/256/84 253/287/84
s 9
f 136/297/34 255/301/34 138/298/34
f 140/302/34 255/301/34 142/303/34
s 54
g PataDelanteraIzquierda_SpacialRoverExploreralumGray
usemtl SpacialRoverExploreralumGray
f 186/372/149 1/373/150 8/374/151
s 55
f 185/375/152 8/374/153 7/376/154
s 56
f 6/377/155 185/375/156 7/376/157
s 57
f 5/378/158 184/379/159 6/377/160
s 58
f 4/380/161 183/381/162 5/378/161
s 59
f 3/382/163 182/383/164 4/384/165
s 60
f 180/385/166 3/382/167 2/386/168
s 61
f 179/387/169 2/386/170 1/373/170
s 62
f 269/388/74 277/389/74 270/390/74
s 63
f 263/391/74 259/392/74 258/393/74
s 64
f 257/394/171 262/395/171 260/396/171
s 65
f 257/394/34 258/393/34 259/397/34
s 66
f 261/398/172 258/393/172 256/399/172
s 67
f 265/400/72 279/401/72 268/402/72
s 68
f 273/403/6 277/404/6 279/405/6
s 69
f 271/406/173 273/407/173 266/408/173
s 70
f 277/389/174 271/406/174 270/390/174
s 71
f 267/409/175 273/407/175 272/410/175
s 72
f 265/400/176 275/411/176 274/412/176
s 73
f 269/413/177 279/401/177 278/414/177
s 74
f 267/409/84 275/411/84 264/415/84
s 75
f 282/416/6 297/417/6 283/418/6
s 76
f 283/418/74 297/417/74 315/419/74
s 77
f 284/420/84 300/421/84 314/422/84
s 78
f 280/423/6 309/424/6 287/425/6
s 79
f 286/426/34 291/427/34 281/428/34
s 80
f 285/429/34 300/421/34 284/420/34
s 81
f 294/430/173 303/431/173 298/432/173
s 82
f 310/433/173 292/434/173 306/435/173
s 83
f 290/436/178 310/437/178 311/438/178
s 84
f 298/439/178 296/440/178 294/441/178
s 85
f 299/442/179 295/443/179 296/440/179
s 86
f 292/434/180 308/444/180 306/435/180
s 87
f 293/445/181 307/446/181 308/444/181
s 88
f 304/447/181 302/448/181 300/421/181
s 89
f 305/449/180 301/450/180 302/448/180
s 90
f 281/428/84 291/427/84 313/451/84
s 91
f 289/452/179 311/438/179 309/424/179
s 92
f 308/453/74 307/446/74 312/454/74
s 90
f 289/455/84 313/451/84 290/456/84
s 92
f 312/454/74 286/426/74 287/425/74
f 312/454/74 309/424/74 311/457/74
f 310/458/74 306/459/74 312/454/74
f 311/457/74 310/458/74 312/454/74
f 312/454/74 306/459/74 308/453/74
s 90
f 290/456/84 313/451/84 288/460/84
f 292/461/84 313/451/84 293/462/84
f 288/460/84 313/451/84 292/461/84
f 293/462/84 313/451/84 291/427/84
s 77
f 295/463/84 314/422/84 296/464/84
f 296/464/84 314/422/84 294/465/84
f 302/466/84 314/422/84 300/421/84
f 294/465/84 314/422/84 301/467/84
f 301/467/84 314/422/84 302/466/84
s 76
f 304/447/74 315/419/74 305/468/74
f 305/468/74 315/419/74 303/469/74
f 299/470/74 315/419/74 297/417/74
f 303/469/74 315/419/74 298/471/74
f 298/471/74 315/419/74 299/470/74
s 93
f 261/398/84 257/472/84 260/473/84
s 94
f 260/474/6 262/475/6 271/476/6
f 271/476/6 262/475/6 270/477/6
f 263/391/6 269/478/6 262/475/6
f 269/478/6 263/391/6 268/479/6
f 268/479/6 263/391/6 261/398/6
f 265/480/6 268/479/6 261/398/6
f 260/474/6 271/476/6 266/481/6
f 264/482/6 265/480/6 261/398/6
f 260/474/6 266/481/6 267/483/6
f 260/474/6 267/483/6 264/482/6
f 260/474/6 264/482/6 261/398/6
f 269/478/6 270/477/6 262/475/6
s 95
f 282/416/6 295/443/6 297/417/6
s 76
f 304/447/74 285/429/74 315/419/74
f 285/429/74 283/418/74 315/419/74
s 77
f 295/463/84 282/484/84 314/422/84
f 282/484/84 284/420/84 314/422/84
s 96
f 280/423/6 289/452/6 309/424/6
s 97
f 286/426/34 307/446/34 291/427/34
s 98
f 285/429/34 304/447/34 300/421/34
s 81
f 294/430/173 301/450/173 303/431/173
s 82
f 310/433/173 288/485/173 292/434/173
s 83
f 290/436/178 288/486/178 310/437/178
s 84
f 298/439/178 299/442/178 296/440/178
s 85
f 299/442/179 297/417/179 295/443/179
s 86
f 292/434/180 293/445/180 308/444/180
s 87
f 293/445/181 291/427/181 307/446/181
s 88
f 304/447/181 305/449/181 302/448/181
s 89
f 305/449/180 303/431/180 301/450/180
s 90
f 289/455/84 280/487/84 313/451/84
f 280/487/84 281/428/84 313/451/84
s 91
f 289/452/179 290/436/179 311/438/179
s 92
f 287/425/74 309/424/74 312/454/74
f 312/454/74 307/446/74 286/426/74
s 99
f 329/388/74 337/389/74 330/390/74
s 100
f 323/391/74 319/392/74 318/393/74
s 101
f 317/394/171 322/395/171 320/396/171
s 102
f 317/394/34 318/393/34 319/397/34
s 103
f 321/398/172 318/393/172 316/399/172
s 104
f 325/400/72 339/401/72 328/402/72
s 105
f 333/403/6 337/404/6 339/405/6
s 106
f 331/406/173 333/407/173 326/408/173
s 107
f 337/389/174 331/406/174 330/390/174
s 108
f 327/409/175 333/407/175 332/410/175
s 109
f 325/400/176 335/411/176 334/412/176
s 110
f 329/413/177 339/401/177 338/414/177
s 111
f 327/409/84 335/411/84 324/415/84
s 112
f 342/416/6 357/417/6 343/418/6
s 113
f 343/418/74 357/417/74 375/419/74
s 114
f 344/420/84 360/421/84 374/422/84
s 115
f 340/423/6 369/424/6 347/425/6
s 116
f 346/426/34 351/427/34 341/428/34
s 117
f 345/429/34 360/421/34 344/420/34
s 118
f 354/430/173 363/431/173 358/432/173
s 119
f 370/433/173 352/434/173 366/435/173
s 120
f 350/436/178 370/437/178 371/438/178
s 121
f 358/439/178 356/440/178 354/441/178
s 122
f 359/442/179 355/443/179 356/440/179
s 123
f 352/434/180 368/444/180 366/435/180
s 124
f 353/445/181 367/446/181 368/444/181
s 125
f 364/447/181 362/448/181 360/421/181
s 126
f 365/449/180 361/450/180 362/448/180
s 127
f 341/428/84 351/427/84 373/451/84
s 128
f 349/452/179 371/438/179 369/424/179
s 129
f 368/453/74 367/446/74 372/454/74
s 127
f 349/455/84 373/451/84 350/456/84
s 129
f 372/454/74 346/426/74 347/425/74
f 372/454/74 369/424/74 371/457/74
f 370/458/74 366/459/74 372/454/74
f 371/457/74 370/458/74 372/454/74
f 372/454/74 366/459/74 368/453/74
s 127
f 350/456/84 373/451/84 348/460/84
f 352/461/84 373/451/84 353/462/84
f 348/460/84 373/451/84 352/461/84
f 353/462/84 373/451/84 351/427/84
s 114
f 355/463/84 374/422/84 356/464/84
f 356/464/84 374/422/84 354/465/84
f 362/466/84 374/422/84 360/421/84
f 354/465/84 374/422/84 361/467/84
f 361/467/84 374/422/84 362/466/84
s 113
f 364/447/74 375/419/74 365/468/74
f 365/468/74 375/419/74 363/469/74
f 359/470/74 375/419/74 357/417/74
f 363/469/74 375/419/74 358/471/74
f 358/471/74 375/419/74 359/470/74
s 130
f 321/398/84 317/472/84 320/473/84
s 131
f 320/474/6 322/475/6 331/476/6
f 331/476/6 322/475/6 330/477/6
f 323/391/6 329/478/6 322/475/6
f 329/478/6 323/391/6 328/479/6
f 328/479/6 323/391/6 321/398/6
f 325/480/6 328/479/6 321/398/6
f 320/474/6 331/476/6 326/481/6
f 324/482/6 325/480/6 321/398/6
f 320/474/6 326/481/6 327/483/6
f 320/474/6 327/483/6 324/482/6
f 320/474/6 324/482/6 321/398/6
f 329/478/6 330/477/6 322/475/6
s 132
f 342/416/6 355/443/6 357/417/6
s 113
f 364/447/74 345/429/74 375/419/74
f 345/429/74 343/418/74 375/419/74
s 114
f 355/463/84 342/484/84 374/422/84
f 342/484/84 344/420/84 374/422/84
s 133
f 340/423/6 349/452/6 369/424/6
s 134
f 346/426/34 367/446/34 351/427/34
s 135
f 345/429/34 364/447/34 360/421/34
s 118
f 354/430/173 361/450/173 363/431/173
s 119
f 370/433/173 348/485/173 352/434/173
s 120
f 350/436/178 348/486/178 370/437/178
s 121
f 358/439/178 359/442/178 356/440/178
s 122
f 359/442/179 357/417/179 355/443/179
s 123
f 352/434/180 353/445/180 368/444/180
s 124
f 353/445/181 351/427/181 367/446/181
s 125
f 364/447/181 365/449/181 362/448/181
s 126
f 365/449/180 363/431/180 361/450/180
s 127
f 349/455/84 340/487/84 373/451/84
f 340/487/84 341/428/84 373/451/84
s 128
f 349/452/179 350/436/179 371/438/179
s 129
f 347/425/74 369/424/74 372/454/74
f 372/454/74 367/446/74 346/426/74
s 54
f 186/372/149 179/387/182 1/373/150
s 55
f 185/375/152 186/372/183 8/374/153
s 56
f 6/377/155 184/379/184 185/375/156
s 57
f 5/378/158 183/381/159 184/379/159
s 58
f 4/380/161 182/488/185 183/381/162
s 59
f 3/382/163 181/489/164 182/383/164
s 60
f 180/385/166 181/489/166 3/382/167
s 61
f 179/387/169 180/385/186 2/386/170
s 62
f 269/388/74 278/490/74 277/389/74
s 63
f 263/391/74 262/491/74 259/392/74
s 64
f 257/394/171 259/397/171 262/395/171
s 65
f 257/394/34 256/399/34 258/393/34
s 66
f 261/398/172 263/391/172 258/393/172
s 67
f 265/400/72 274/412/72 279/401/72
s 68
f 279/405/6 274/492/6 275/493/6
f 275/493/6 272/494/6 273/403/6
f 273/403/6 276/495/6 277/404/6
f 277/404/6 278/496/6 279/405/6
f 279/405/6 275/493/6 273/403/6
s 69
f 271/406/173 276/497/173 273/407/173
s 70
f 277/389/174 276/497/174 271/406/174
s 71
f 267/409/175 266/408/175 273/407/175
s 72
f 265/400/176 264/415/176 275/411/176
s 73
f 269/413/177 268/402/177 279/401/177
s 74
f 267/409/84 272/410/84 275/411/84
s 93
f 261/398/84 256/399/84 257/472/84
s 99
f 329/388/74 338/490/74 337/389/74
s 100
f 323/391/74 322/491/74 319/392/74
s 101
f 317/394/171 319/397/171 322/395/171
s 102
f 317/394/34 316/399/34 318/393/34
s 103
f 321/398/172 323/391/172 318/393/172
s 104
f 325/400/72 334/412/72 339/401/72
s 105
f 339/405/6 334/492/6 335/493/6
f 335/493/6 332/494/6 333/403/6
f 333/403/6 336/495/6 337/404/6
f 337/404/6 338/496/6 339/405/6
f 339/405/6 335/493/6 333/403/6
s 106
f 331/406/173 336/497/173 333/407/173
s 107
f 337/389/174 336/497/174 331/406/174
s 108
f 327/409/175 326/408/175 333/407/175
s 109
f 325/400/176 324/415/176 335/411/176
s 110
f 329/413/177 328/402/177 339/401/177
s 111
f 327/409/84 332/410/84 335/411/84
s 130
f 321/398/84 316/399/84 317/472/84
s 136
f 435/498/74 436/499/65 434/500/74
f 437/501/65 438/502/187 436/499/65
f 439/503/187 440/504/177 438/502/187
f 441/505/177 442/506/188 440/504/177
f 443/507/188 444/508/189 442/506/188
f 445/509/189 446/510/72 444/508/189
f 447/511/72 448/512/190 446/510/72
f 449/513/190 450/514/191 448/512/190
f 451/515/191 452/516/176 450/514/191
f 453/517/176 454/518/192 452/516/176
f 455/519/192 456/520/193 454/518/192
s 137
f 458/521/6 530/522/6 532/523/6
f 458/521/6 534/524/6 460/525/6
s 136
f 461/526/194 462/527/195 460/528/194
f 463/529/195 464/530/175 462/527/195
f 465/531/175 466/532/196 464/530/175
f 467/533/196 468/534/197 466/532/196
f 469/535/197 470/536/173 468/534/197
f 471/537/173 472/538/198 470/536/173
f 473/539/198 474/540/199 472/538/198
f 475/541/199 476/542/174 474/540/199
f 477/543/174 478/544/200 476/542/174
s 138
f 441/545/34 502/546/34 499/547/201
f 471/548/34 463/549/34 491/550/34
s 136
f 479/551/200 480/552/31 478/544/200
f 481/553/31 434/500/74 480/552/31
s 137
f 440/554/6 448/555/6 509/556/6
f 464/557/6 472/558/6 521/559/6
s 138
f 459/560/34 535/561/34 533/562/34
s 139
f 460/525/173 535/561/173 461/563/173
s 140
f 457/564/72 530/522/72 456/565/72
s 138
f 459/560/34 531/566/34 457/567/34
s 136
f 435/498/74 437/501/65 436/499/65
f 437/501/65 439/503/187 438/502/187
f 439/503/187 441/505/177 440/504/177
f 441/505/177 443/507/188 442/506/188
f 443/507/188 445/509/189 444/508/189
f 445/509/189 447/511/72 446/510/72
f 447/511/72 449/513/190 448/512/190
f 449/513/190 451/515/191 450/514/191
f 451/515/191 453/517/176 452/516/176
f 453/517/176 455/519/192 454/518/192
f 455/519/192 457/568/193 456/520/193
s 137
f 458/521/6 456/565/6 530/522/6
f 458/521/6 532/523/6 534/524/6
s 136
f 461/526/194 463/529/195 462/527/195
f 463/529/195 465/531/175 464/530/175
f 465/531/175 467/533/196 466/532/196
f 467/533/196 469/535/197 468/534/197
f 469/535/197 471/537/173 470/536/173
f 471/537/173 473/539/198 472/538/198
f 473/539/198 475/541/199 474/540/199
f 475/541/199 477/543/174 476/542/174
f 477/543/174 479/551/200 478/544/200
s 138
f 498/569/34 447/570/34 445/571/34
f 445/571/34 443/572/34 441/545/34
f 441/545/34 439/573/34 505/574/34
f 441/545/34 505/574/34 496/575/34
f 498/569/34 445/571/34 441/545/34
f 499/547/201 498/569/34 441/545/34
f 441/545/34 496/575/34 502/546/34
f 487/576/34 505/574/34 439/573/34
f 439/573/34 437/577/34 435/578/34
f 435/578/34 481/579/34 479/580/34
f 479/580/34 477/581/34 475/582/34
f 475/582/34 473/583/34 471/548/34
f 471/548/34 469/584/34 467/585/34
f 467/585/34 465/586/34 463/549/34
f 463/549/34 461/587/34 459/588/34
f 459/588/34 457/589/34 455/590/34
f 455/590/34 453/591/34 451/592/34
f 451/592/34 449/593/34 447/570/34
f 447/570/34 498/569/34 501/594/34
f 447/570/34 501/594/34 500/595/34
f 455/590/34 451/592/34 447/570/34
f 463/549/34 459/588/34 455/590/34
f 471/548/34 467/585/34 463/549/34
f 479/580/34 475/582/34 471/548/34
f 439/573/34 435/578/34 479/580/34
f 488/596/202 487/576/34 439/573/34
f 485/597/34 488/596/202 439/573/34
f 455/590/34 447/570/34 500/595/34
f 455/590/34 500/595/34 497/598/34
f 485/597/34 439/573/34 479/580/34
f 486/599/34 485/597/34 479/580/34
f 455/590/34 497/598/34 504/600/34
f 455/590/34 504/600/34 493/601/34
f 483/602/34 486/599/34 479/580/34
f 484/603/34 483/602/34 479/580/34
f 463/549/34 455/590/34 493/601/34
f 463/549/34 493/601/34 494/604/203
f 484/603/34 479/580/34 471/548/34
f 482/605/34 484/603/34 471/548/34
f 463/549/34 494/604/203 492/606/34
f 463/549/34 492/606/34 495/607/34
f 503/608/34 482/605/34 471/548/34
f 489/609/34 503/608/34 471/548/34
f 463/549/34 495/607/34 490/610/34
f 491/550/34 489/609/34 471/548/34
f 463/549/34 490/610/34 491/550/34
s 136
f 479/551/200 481/553/31 480/552/31
f 481/553/31 435/498/74 434/500/74
s 137
f 510/611/6 512/612/6 440/554/6
f 440/554/6 442/613/6 444/614/6
f 444/614/6 446/615/6 448/555/6
f 448/555/6 528/616/6 511/617/6
f 509/556/6 510/611/6 440/554/6
f 448/555/6 511/617/6 509/556/6
f 440/554/6 444/614/6 448/555/6
f 518/618/6 528/616/6 448/555/6
f 448/555/6 450/619/6 452/620/6
f 452/620/6 454/621/6 456/622/6
f 456/622/6 458/623/6 460/624/6
f 460/624/6 462/625/6 464/557/6
f 464/557/6 466/626/6 468/627/6
f 468/627/6 470/628/6 472/558/6
f 472/558/6 474/629/6 476/630/6
f 476/630/6 478/631/6 480/632/6
f 480/632/6 434/633/6 436/634/6
f 436/634/6 438/635/6 440/554/6
f 440/554/6 512/612/6 507/636/6
f 440/554/6 507/636/6 508/637/6
f 480/632/6 436/634/6 440/554/6
f 472/558/6 476/630/6 480/632/6
f 464/557/6 468/627/6 472/558/6
f 456/622/6 460/624/6 464/557/6
f 448/555/6 452/620/6 456/622/6
f 519/638/204 518/618/6 448/555/6
f 516/639/6 519/638/204 448/555/6
f 480/632/6 440/554/6 508/637/6
f 480/632/6 508/637/6 506/640/6
f 516/639/6 448/555/6 456/622/6
f 517/641/6 516/639/6 456/622/6
f 480/632/6 506/640/6 529/642/6
f 480/632/6 529/642/6 523/643/6
f 514/644/6 517/641/6 456/622/6
f 515/645/6 514/644/6 456/622/6
f 472/558/6 480/632/6 523/643/6
f 472/558/6 523/643/6 524/646/205
f 515/645/6 456/622/6 464/557/6
f 513/647/6 515/645/6 464/557/6
f 472/558/6 524/646/205 526/648/6
f 472/558/6 526/648/6 522/649/6
f 527/650/6 513/647/6 464/557/6
f 525/651/6 527/650/6 464/557/6
f 472/558/6 522/649/6 520/652/6
f 521/559/6 525/651/6 464/557/6
f 472/558/6 520/652/6 521/559/6
s 138
f 459/560/34 461/563/34 535/561/34
s 141
f 460/525/173 534/524/173 535/561/173
s 142
f 457/564/72 531/653/72 530/522/72
s 138
f 459/560/34 533/562/34 531/566/34
s 143
g PataDelanteraIzquierda_SpacialRoverExploreralumBlack
usemtl SpacialRoverExploreralumBlack
f 186/654/206 189/655/206 179/656/206
s 144
f 179/656/207 196/657/207 180/658/207
s 145
f 180/658/208 197/659/208 181/660/208
s 146
f 182/661/209 197/659/209 198/662/209
s 147
f 183/663/210 198/664/210 199/665/210
s 148
f 8/666/211 21/667/212 7/668/212
f 5/669/213 19/670/214 17/671/213
f 4/672/215 13/673/216 3/674/217
f 1/675/218 11/676/219 24/677/218
f 1/675/218 23/678/211 8/666/211
f 6/679/214 21/667/212 19/670/214
f 5/669/213 15/680/220 4/672/215
f 2/681/221 13/673/216 11/676/219
s 149
f 23/682/222 9/683/223 22/684/224
s 150
f 21/685/225 22/684/226 20/686/227
s 151
f 18/687/228 21/685/229 20/686/230
s 152
f 16/688/231 19/689/232 18/687/233
s 153
f 14/690/234 17/691/235 16/692/236
s 154
f 12/693/237 15/694/238 14/690/239
s 155
f 11/695/240 12/693/241 10/696/242
s 156
f 24/697/243 10/696/244 9/683/245
s 157
f 188/698/246 196/699/246 189/700/246
s 158
f 187/701/247 197/659/247 196/699/247
s 159
f 197/659/248 191/702/248 198/662/248
s 160
f 198/703/249 192/704/249 199/705/249
s 161
f 199/705/250 193/706/250 200/707/250
s 162
f 200/707/251 194/708/251 201/709/251
s 163
f 194/708/252 202/710/252 201/709/252
s 164
f 195/711/253 189/700/253 202/712/253
s 165
f 185/713/254 202/714/254 186/654/254
s 166
f 185/713/255 200/715/255 201/716/255
s 167
f 184/717/256 199/665/256 200/715/256
s 143
f 186/654/206 202/714/206 189/655/206
s 144
f 179/656/207 189/655/207 196/657/207
s 145
f 180/658/208 196/657/257 197/659/208
s 146
f 182/661/209 181/660/258 197/659/209
s 147
f 183/663/210 182/718/210 198/664/210
s 148
f 8/666/211 23/678/211 21/667/212
f 5/669/213 6/679/214 19/670/214
f 4/672/215 15/680/220 13/673/216
f 1/675/218 2/681/221 11/676/219
f 1/675/218 24/677/218 23/678/211
f 6/679/214 7/668/212 21/667/212
f 5/669/213 17/671/213 15/680/220
f 2/681/221 3/674/217 13/673/216
s 149
f 23/682/222 24/697/259 9/683/223
s 150
f 21/685/225 23/682/260 22/684/226
s 168
f 18/687/261 19/689/262 21/685/229
s 169
f 16/688/231 17/719/263 19/689/232
s 170
f 14/690/234 15/694/264 17/691/235
s 171
f 12/693/265 13/720/266 15/694/267
s 155
f 11/695/240 13/720/268 12/693/241
s 156
f 24/697/243 11/695/269 10/696/244
s 157
f 188/698/246 187/701/246 196/699/246
s 158
f 187/701/247 190/721/247 197/659/247
s 172
f 197/659/248 190/721/248 191/702/248
s 173
f 198/703/249 191/722/249 192/704/249
s 174
f 199/705/250 192/704/250 193/706/250
s 175
f 200/707/251 193/706/251 194/708/251
s 163
f 194/708/252 195/723/252 202/710/252
s 164
f 195/711/253 188/698/253 189/700/253
s 165
f 185/713/254 201/716/254 202/714/254
s 166
f 185/713/255 184/717/255 200/715/255
s 167
f 184/717/256 183/663/256 199/665/256
s 4
g PataDelanteraIzquierda_SpacialRoverExploreralumOrange
usemtl SpacialRoverExploreralumOrange
f 98/724/33 27/725/65 25/726/74
f 97/727/65 29/728/187 27/725/65
f 99/729/187 31/730/177 29/728/187
f 100/731/177 33/732/188 31/730/177
f 101/733/188 35/734/189 33/732/188
f 102/735/189 37/736/72 35/734/189
f 103/737/72 39/738/190 37/736/72
f 104/739/190 41/740/191 39/738/190
f 105/741/191 43/742/176 41/740/191
f 106/743/176 45/744/192 43/742/176
f 107/745/192 47/746/39 45/744/192
f 108/747/39 49/748/84 47/746/39
f 109/749/68 51/750/35 49/751/84
f 110/752/35 53/753/195 51/750/35
f 111/754/37 55/755/175 53/753/195
f 112/756/175 57/757/196 55/755/175
f 113/758/196 59/759/197 57/757/196
f 114/760/197 61/761/173 59/759/197
f 115/762/173 63/763/198 61/761/173
f 116/764/198 65/765/199 63/763/198
f 117/766/199 67/767/174 65/765/199
f 118/768/174 69/769/200 67/767/174
f 119/770/71 71/771/31 69/769/200
f 120/772/31 25/726/74 71/771/31
f 98/724/33 97/727/65 27/725/65
f 97/727/65 99/729/187 29/728/187
f 99/729/187 100/731/177 31/730/177
f 100/731/177 101/733/188 33/732/188
f 101/733/188 102/735/189 35/734/189
f 102/735/189 103/737/72 37/736/72
f 103/737/72 104/739/190 39/738/190
f 104/739/190 105/741/191 41/740/191
f 105/741/191 106/743/176 43/742/176
f 106/743/176 107/745/192 45/744/192
f 107/745/192 108/747/39 47/746/39
f 108/747/39 109/773/68 49/748/84
f 109/749/68 110/752/35 51/750/35
f 110/752/35 111/754/37 53/753/195
f 111/754/37 112/756/175 55/755/175
f 112/756/175 113/758/196 57/757/196
f 113/758/196 114/760/197 59/759/197
f 114/760/197 115/762/173 61/761/173
f 115/762/173 116/764/198 63/763/198
f 116/764/198 117/766/199 65/765/199
f 117/766/199 118/768/174 67/767/174
f 118/768/174 119/770/71 69/769/200
f 119/770/71 120/772/31 71/771/31
f 120/772/31 98/724/33 25/726/74
s 176
g PataDelanteraIzquierda_SpacialRoverExploreralumGrayDeep
usemtl SpacialRoverExploreralumGrayDeep
f 389/774/270 400/775/271 401/776/271
s 177
f 385/777/74 548/778/74 546/779/74
f 401/780/74 545/781/74 547/782/74
s 178
f 381/783/272 385/784/273 376/785/273
s 179
f 378/786/84 555/787/84 553/788/84
f 400/789/84 551/790/84 558/791/84
s 180
f 377/792/274 386/793/275 384/794/274
s 178
f 379/795/276 387/796/277 386/793/276
f 378/797/277 385/784/273 387/796/277
s 176
f 389/774/270 382/798/278 380/799/270
s 178
f 391/800/279 383/801/280 382/798/279
f 390/802/281 381/783/272 383/801/280
s 181
f 392/803/282 427/804/282 426/805/282
s 182
f 427/804/283 394/806/283 428/807/283
s 183
f 394/808/284 429/809/284 428/810/284
s 184
f 395/811/285 430/812/285 429/809/285
s 185
f 396/813/286 431/814/286 430/812/286
s 186
f 431/814/287 398/815/287 432/816/287
s 187
f 393/817/84 399/818/84 397/819/84
s 188
f 398/815/288 433/820/288 432/816/288
s 189
f 399/821/289 426/805/289 433/820/289
s 190
f 400/822/290 414/823/291 401/824/290
s 180
f 402/825/292 377/792/274 384/794/274
s 179
f 424/826/84 400/789/84 422/827/84
s 191
f 423/828/293 405/829/294 404/830/294
s 177
f 419/831/74 401/780/74 421/832/74
s 191
f 405/829/294 406/833/295 404/830/294
s 177
f 416/834/74 564/835/74 414/836/74
s 192
f 415/837/296 407/838/297 412/839/297
s 190
f 409/840/291 416/841/298 414/823/291
f 411/842/298 417/843/299 416/841/298
s 192
f 410/844/300 415/837/296 417/843/300
s 179
f 410/845/84 411/846/84 563/847/84
s 191
f 423/828/293 420/848/301 418/849/302
f 425/850/301 421/851/303 420/848/301
s 180
f 424/852/304 419/853/305 421/854/304
f 419/853/305 403/855/292 402/825/292
s 193
f 428/856/74 430/857/74 432/858/74
s 194
f 407/838/306 413/859/306 412/839/306
s 179
f 563/847/84 400/789/84 404/860/84
f 425/861/84 400/789/84 424/826/84
f 400/789/84 425/861/84 423/862/84
f 400/789/84 423/862/84 404/860/84
f 422/827/84 400/789/84 403/863/84
s 177
f 420/864/74 401/780/74 418/865/74
f 421/832/74 401/780/74 420/864/74
f 401/780/74 419/831/74 402/866/74
f 418/865/74 401/780/74 405/867/74
s 179
f 408/868/84 563/847/84 407/869/84
f 407/869/84 563/847/84 406/870/84
f 563/847/84 408/868/84 410/845/84
f 563/847/84 411/846/84 409/871/84
s 177
f 564/835/74 405/867/74 401/780/74
f 564/835/74 412/872/74 413/873/74
f 412/872/74 564/835/74 415/874/74
f 415/874/74 564/835/74 417/875/74
f 417/875/74 564/835/74 416/834/74
s 176
f 389/774/270 380/799/270 400/775/271
s 177
f 546/779/74 384/876/74 386/877/74
f 386/877/74 387/878/74 385/777/74
f 385/777/74 388/879/74 543/880/74
f 385/777/74 543/880/74 544/881/74
f 546/779/74 386/877/74 385/777/74
f 385/777/74 544/881/74 548/778/74
f 540/882/74 543/880/74 388/879/74
f 388/879/74 390/883/74 391/884/74
f 391/884/74 389/885/74 401/780/74
f 384/876/74 546/779/74 536/886/74
f 384/876/74 536/886/74 537/887/74
f 540/882/74 388/879/74 391/884/74
f 541/888/74 540/882/74 391/884/74
f 402/866/74 384/876/74 537/887/74
f 402/866/74 537/887/74 538/889/74
f 541/888/74 391/884/74 401/780/74
f 542/890/74 541/888/74 401/780/74
f 401/780/74 402/866/74 538/889/74
f 401/780/74 538/889/74 539/891/74
f 547/782/74 542/890/74 401/780/74
f 401/780/74 539/891/74 545/781/74
s 178
f 381/783/272 388/892/307 385/784/273
s 179
f 561/893/84 376/894/84 378/786/84
f 378/786/84 379/895/84 555/787/84
f 553/788/84 561/893/84 378/786/84
f 554/896/84 555/787/84 379/895/84
f 400/789/84 380/897/84 382/898/84
f 382/898/84 383/899/84 381/900/84
f 376/894/84 561/893/84 560/901/84
f 376/894/84 560/901/84 559/902/84
f 382/898/84 381/900/84 376/894/84
f 554/896/84 379/895/84 377/903/84
f 549/904/84 554/896/84 377/903/84
f 382/898/84 376/894/84 559/902/84
f 382/898/84 559/902/84 557/905/84
f 549/904/84 377/903/84 403/863/84
f 556/906/84 549/904/84 403/863/84
f 382/898/84 557/905/84 550/907/84
f 400/789/84 382/898/84 550/907/84
f 556/906/84 403/863/84 400/789/84
f 562/908/84 556/906/84 400/789/84
f 400/789/84 550/907/84 552/909/84
f 400/789/84 552/909/84 551/790/84
f 558/791/84 562/908/84 400/789/84
s 180
f 377/792/274 379/795/275 386/793/275
s 178
f 379/795/276 378/797/277 387/796/277
f 378/797/277 376/785/273 385/784/273
s 176
f 389/774/270 391/800/278 382/798/278
s 178
f 391/800/279 390/802/281 383/801/280
f 390/802/281 388/892/307 381/783/272
s 181
f 392/803/282 393/910/282 427/804/282
s 182
f 427/804/283 393/910/283 394/806/283
s 183
f 394/808/284 395/811/284 429/809/284
s 184
f 395/811/285 396/813/285 430/812/285
s 185
f 396/813/286 397/911/286 431/814/286
s 186
f 431/814/287 397/911/287 398/815/287
s 187
f 397/819/84 396/912/84 395/913/84
f 395/913/84 394/914/84 393/817/84
f 393/817/84 392/915/84 399/818/84
f 399/818/84 398/916/84 397/819/84
f 397/819/84 395/913/84 393/817/84
s 188
f 398/815/288 399/821/288 433/820/288
s 189
f 399/821/289 392/803/289 426/805/289
s 190
f 400/822/290 409/840/291 414/823/291
s 180
f 402/825/292 403/855/292 377/792/274
s 191
f 423/828/293 418/849/302 405/829/294
f 405/829/294 413/859/295 406/833/295
s 192
f 415/837/296 408/917/296 407/838/297
s 190
f 409/840/291 411/842/298 416/841/298
f 411/842/298 410/844/299 417/843/299
s 192
f 410/844/300 408/917/296 415/837/296
s 191
f 423/828/293 425/850/301 420/848/301
f 425/850/301 424/918/303 421/851/303
s 180
f 424/852/304 422/919/305 419/853/305
f 419/853/305 422/919/305 403/855/292
s 193
f 432/858/74 433/920/74 426/921/74
f 426/921/74 427/922/74 428/856/74
f 428/856/74 429/923/74 430/857/74
f 430/857/74 431/924/74 432/858/74
f 432/858/74 426/921/74 428/856/74
s 194
f 407/838/306 406/833/306 413/859/306
s 179
f 404/860/84 406/870/84 563/847/84
f 563/847/84 409/871/84 400/789/84
s 177
f 401/780/74 414/836/74 564/835/74
f 564/835/74 413/873/74 405/867/74
l 567 565
l 566 568
